<mxfile host="65bd71144e" pages="2">
    <diagram id="KElBbJp0n0pDRJ8T8lvi" name="3d Model Diagram">
        <mxGraphModel dx="1579" dy="779" grid="1" gridSize="10" guides="1" tooltips="1" connect="1" arrows="1" fold="1" page="1" pageScale="1" pageWidth="1000" pageHeight="1000" background="#1A1A1A" math="0" shadow="0">
            <root>
                <mxCell id="0"/>
                <mxCell id="1" parent="0"/>
                <mxCell id="zUnTaJyi1g9B3rZYQBrX-1" value="" style="endArrow=none;html=1;rounded=0;entryX=0;entryY=0.75;entryDx=0;entryDy=0;endFill=0;fillColor=#60a917;strokeColor=#33FF33;strokeWidth=2;" parent="1" target="zUnTaJyi1g9B3rZYQBrX-34" edge="1">
                    <mxGeometry width="50" height="50" relative="1" as="geometry">
                        <mxPoint x="394" y="525" as="sourcePoint"/>
                        <mxPoint x="514" y="417" as="targetPoint"/>
                        <Array as="points">
                            <mxPoint x="394" y="519"/>
                            <mxPoint x="394" y="513"/>
                            <mxPoint x="435" y="513"/>
                            <mxPoint x="513" y="513"/>
                            <mxPoint x="513" y="468"/>
                            <mxPoint x="513" y="427"/>
                        </Array>
                    </mxGeometry>
                </mxCell>
                <mxCell id="zUnTaJyi1g9B3rZYQBrX-2" value="" style="html=1;verticalLabelPosition=bottom;align=center;labelBackgroundColor=#ffffff;verticalAlign=top;strokeWidth=1;strokeColor=#FF3333;shadow=0;dashed=0;shape=mxgraph.ios7.icons.sun;pointerEvents=1;fontFamily=Helvetica;fontSize=12;" parent="1" vertex="1">
                    <mxGeometry x="501" y="290" width="36.5" height="36" as="geometry"/>
                </mxCell>
                <mxCell id="zUnTaJyi1g9B3rZYQBrX-3" value="" style="strokeWidth=2;html=1;shape=mxgraph.flowchart.document2;whiteSpace=wrap;size=0.25;fontSize=3;rotation=-180;fillColor=none;strokeColor=#3399FF;" parent="1" vertex="1">
                    <mxGeometry x="-82" y="575" width="692" height="226" as="geometry"/>
                </mxCell>
                <mxCell id="zUnTaJyi1g9B3rZYQBrX-4" value="" style="endArrow=none;html=1;rounded=0;strokeColor=#FF3333;strokeWidth=2;dashed=1;" parent="1" edge="1">
                    <mxGeometry width="50" height="50" relative="1" as="geometry">
                        <mxPoint x="-81" y="595" as="sourcePoint"/>
                        <mxPoint x="499" y="595" as="targetPoint"/>
                    </mxGeometry>
                </mxCell>
                <mxCell id="zUnTaJyi1g9B3rZYQBrX-5" value="" style="endArrow=none;html=1;rounded=0;dashed=1;strokeColor=#33FF33;" parent="1" edge="1">
                    <mxGeometry width="50" height="50" relative="1" as="geometry">
                        <mxPoint x="426.00000000000045" y="817" as="sourcePoint"/>
                        <mxPoint x="409" y="535" as="targetPoint"/>
                    </mxGeometry>
                </mxCell>
                <mxCell id="zUnTaJyi1g9B3rZYQBrX-6" value="" style="endArrow=none;html=1;rounded=0;dashed=1;strokeColor=#33FF33;" parent="1" edge="1">
                    <mxGeometry width="50" height="50" relative="1" as="geometry">
                        <mxPoint x="348" y="819.0000000000005" as="sourcePoint"/>
                        <mxPoint x="369" y="535" as="targetPoint"/>
                    </mxGeometry>
                </mxCell>
                <mxCell id="zUnTaJyi1g9B3rZYQBrX-7" value="" style="endArrow=none;html=1;rounded=0;strokeColor=#FF3333;strokeWidth=2;entryX=1;entryY=0.75;entryDx=0;entryDy=0;fillColor=#e51400;" parent="1" target="zUnTaJyi1g9B3rZYQBrX-34" edge="1">
                    <mxGeometry width="50" height="50" relative="1" as="geometry">
                        <mxPoint x="556.0000000000005" y="452" as="sourcePoint"/>
                        <mxPoint x="554" y="427" as="targetPoint"/>
                        <Array as="points">
                            <mxPoint x="556" y="427"/>
                        </Array>
                    </mxGeometry>
                </mxCell>
                <mxCell id="zUnTaJyi1g9B3rZYQBrX-8" style="edgeStyle=orthogonalEdgeStyle;rounded=0;orthogonalLoop=1;jettySize=auto;html=1;exitX=0;exitY=0.5;exitDx=0;exitDy=0;exitPerimeter=0;endArrow=none;endFill=0;entryX=0.152;entryY=0.507;entryDx=0;entryDy=0;entryPerimeter=0;fillColor=#60a917;strokeColor=#FFFF33;strokeWidth=2;" parent="1" source="zUnTaJyi1g9B3rZYQBrX-30" target="zUnTaJyi1g9B3rZYQBrX-34" edge="1">
                    <mxGeometry relative="1" as="geometry">
                        <mxPoint x="519.0645161290322" y="417" as="targetPoint"/>
                        <Array as="points">
                            <mxPoint x="519" y="417"/>
                        </Array>
                    </mxGeometry>
                </mxCell>
                <mxCell id="zUnTaJyi1g9B3rZYQBrX-9" value="" style="endArrow=none;html=1;rounded=0;exitX=0.5;exitY=0;exitDx=0;exitDy=0;fillColor=#60a917;strokeColor=#FFFF33;strokeWidth=2;" parent="1" source="zUnTaJyi1g9B3rZYQBrX-34" edge="1">
                    <mxGeometry width="50" height="50" relative="1" as="geometry">
                        <mxPoint x="534" y="417" as="sourcePoint"/>
                        <mxPoint x="544" y="377" as="targetPoint"/>
                    </mxGeometry>
                </mxCell>
                <mxCell id="zUnTaJyi1g9B3rZYQBrX-10" value="" style="shape=trapezoid;perimeter=trapezoidPerimeter;whiteSpace=wrap;html=1;fixedSize=1;strokeWidth=2;strokeColor=default;fillColor=default;" parent="1" vertex="1">
                    <mxGeometry x="438" y="563" width="1120" height="530" as="geometry"/>
                </mxCell>
                <mxCell id="zUnTaJyi1g9B3rZYQBrX-11" value="" style="rounded=0;whiteSpace=wrap;html=1;" parent="1" vertex="1">
                    <mxGeometry x="464" y="677" width="20" as="geometry"/>
                </mxCell>
                <mxCell id="zUnTaJyi1g9B3rZYQBrX-12" value="" style="endArrow=none;html=1;rounded=0;" parent="1" edge="1">
                    <mxGeometry width="50" height="50" relative="1" as="geometry">
                        <mxPoint x="504" y="637" as="sourcePoint"/>
                        <mxPoint x="514" y="677" as="targetPoint"/>
                    </mxGeometry>
                </mxCell>
                <mxCell id="zUnTaJyi1g9B3rZYQBrX-13" value="" style="endArrow=none;html=1;rounded=0;" parent="1" edge="1">
                    <mxGeometry width="50" height="50" relative="1" as="geometry">
                        <mxPoint x="514" y="677" as="sourcePoint"/>
                        <mxPoint x="524" y="637" as="targetPoint"/>
                    </mxGeometry>
                </mxCell>
                <mxCell id="zUnTaJyi1g9B3rZYQBrX-14" value="" style="endArrow=none;html=1;rounded=0;" parent="1" edge="1">
                    <mxGeometry width="50" height="50" relative="1" as="geometry">
                        <mxPoint x="504" y="637" as="sourcePoint"/>
                        <mxPoint x="504" y="517" as="targetPoint"/>
                    </mxGeometry>
                </mxCell>
                <mxCell id="zUnTaJyi1g9B3rZYQBrX-15" value="" style="endArrow=none;html=1;rounded=0;" parent="1" edge="1">
                    <mxGeometry width="50" height="50" relative="1" as="geometry">
                        <mxPoint x="524" y="637" as="sourcePoint"/>
                        <mxPoint x="524" y="517" as="targetPoint"/>
                    </mxGeometry>
                </mxCell>
                <mxCell id="zUnTaJyi1g9B3rZYQBrX-16" value="" style="endArrow=none;html=1;rounded=0;" parent="1" edge="1">
                    <mxGeometry width="50" height="50" relative="1" as="geometry">
                        <mxPoint x="399" y="517" as="sourcePoint"/>
                        <mxPoint x="504" y="517" as="targetPoint"/>
                    </mxGeometry>
                </mxCell>
                <mxCell id="zUnTaJyi1g9B3rZYQBrX-17" value="" style="endArrow=none;html=1;rounded=0;" parent="1" edge="1">
                    <mxGeometry width="50" height="50" relative="1" as="geometry">
                        <mxPoint x="379" y="525" as="sourcePoint"/>
                        <mxPoint x="379" y="497" as="targetPoint"/>
                    </mxGeometry>
                </mxCell>
                <mxCell id="zUnTaJyi1g9B3rZYQBrX-18" value="" style="endArrow=none;html=1;rounded=0;" parent="1" edge="1">
                    <mxGeometry width="50" height="50" relative="1" as="geometry">
                        <mxPoint x="379" y="497" as="sourcePoint"/>
                        <mxPoint x="504" y="497" as="targetPoint"/>
                    </mxGeometry>
                </mxCell>
                <mxCell id="zUnTaJyi1g9B3rZYQBrX-19" value="" style="endArrow=none;html=1;rounded=0;" parent="1" edge="1">
                    <mxGeometry width="50" height="50" relative="1" as="geometry">
                        <mxPoint x="399" y="525" as="sourcePoint"/>
                        <mxPoint x="399" y="517" as="targetPoint"/>
                    </mxGeometry>
                </mxCell>
                <mxCell id="zUnTaJyi1g9B3rZYQBrX-20" value="" style="endArrow=none;html=1;rounded=0;" parent="1" edge="1">
                    <mxGeometry width="50" height="50" relative="1" as="geometry">
                        <mxPoint x="379" y="525" as="sourcePoint"/>
                        <mxPoint x="399" y="525" as="targetPoint"/>
                    </mxGeometry>
                </mxCell>
                <mxCell id="zUnTaJyi1g9B3rZYQBrX-21" value="" style="endArrow=none;html=1;rounded=0;" parent="1" edge="1">
                    <mxGeometry width="50" height="50" relative="1" as="geometry">
                        <mxPoint x="399" y="524.7600000000002" as="sourcePoint"/>
                        <mxPoint x="409" y="534.7600000000002" as="targetPoint"/>
                    </mxGeometry>
                </mxCell>
                <mxCell id="zUnTaJyi1g9B3rZYQBrX-22" value="" style="endArrow=none;html=1;rounded=0;" parent="1" edge="1">
                    <mxGeometry width="50" height="50" relative="1" as="geometry">
                        <mxPoint x="379" y="524.7600000000002" as="sourcePoint"/>
                        <mxPoint x="369" y="534.7600000000002" as="targetPoint"/>
                    </mxGeometry>
                </mxCell>
                <mxCell id="zUnTaJyi1g9B3rZYQBrX-23" value="" style="endArrow=none;html=1;rounded=0;" parent="1" edge="1">
                    <mxGeometry width="50" height="50" relative="1" as="geometry">
                        <mxPoint x="369" y="534.7600000000002" as="sourcePoint"/>
                        <mxPoint x="409" y="534.7600000000002" as="targetPoint"/>
                    </mxGeometry>
                </mxCell>
                <mxCell id="zUnTaJyi1g9B3rZYQBrX-24" value="" style="endArrow=none;html=1;rounded=0;" parent="1" edge="1">
                    <mxGeometry width="50" height="50" relative="1" as="geometry">
                        <mxPoint x="504" y="497" as="sourcePoint"/>
                        <mxPoint x="504" y="357" as="targetPoint"/>
                    </mxGeometry>
                </mxCell>
                <mxCell id="zUnTaJyi1g9B3rZYQBrX-25" value="" style="endArrow=none;html=1;rounded=0;" parent="1" edge="1">
                    <mxGeometry width="50" height="50" relative="1" as="geometry">
                        <mxPoint x="524" y="517" as="sourcePoint"/>
                        <mxPoint x="524" y="357" as="targetPoint"/>
                    </mxGeometry>
                </mxCell>
                <mxCell id="zUnTaJyi1g9B3rZYQBrX-26" value="" style="endArrow=none;html=1;rounded=0;" parent="1" edge="1">
                    <mxGeometry width="50" height="50" relative="1" as="geometry">
                        <mxPoint x="504" y="357" as="sourcePoint"/>
                        <mxPoint x="524" y="357" as="targetPoint"/>
                    </mxGeometry>
                </mxCell>
                <mxCell id="zUnTaJyi1g9B3rZYQBrX-27" value="" style="endArrow=none;html=1;rounded=0;" parent="1" edge="1">
                    <mxGeometry width="50" height="50" relative="1" as="geometry">
                        <mxPoint x="524" y="477" as="sourcePoint"/>
                        <mxPoint x="564" y="477" as="targetPoint"/>
                    </mxGeometry>
                </mxCell>
                <mxCell id="zUnTaJyi1g9B3rZYQBrX-28" value="" style="endArrow=none;html=1;rounded=0;" parent="1" edge="1">
                    <mxGeometry width="50" height="50" relative="1" as="geometry">
                        <mxPoint x="514" y="357" as="sourcePoint"/>
                        <mxPoint x="514" y="317" as="targetPoint"/>
                    </mxGeometry>
                </mxCell>
                <mxCell id="zUnTaJyi1g9B3rZYQBrX-29" value="" style="endArrow=none;html=1;rounded=0;" parent="1" edge="1">
                    <mxGeometry width="50" height="50" relative="1" as="geometry">
                        <mxPoint x="524" y="357" as="sourcePoint"/>
                        <mxPoint x="524" y="317" as="targetPoint"/>
                    </mxGeometry>
                </mxCell>
                <mxCell id="zUnTaJyi1g9B3rZYQBrX-30" value="" style="shape=or;whiteSpace=wrap;html=1;rotation=-90;strokeColor=#FF3333;" parent="1" vertex="1">
                    <mxGeometry x="514" y="307" width="10" height="10" as="geometry"/>
                </mxCell>
                <mxCell id="zUnTaJyi1g9B3rZYQBrX-31" value="" style="endArrow=none;html=1;rounded=0;" parent="1" edge="1">
                    <mxGeometry width="50" height="50" relative="1" as="geometry">
                        <mxPoint x="564" y="477" as="sourcePoint"/>
                        <mxPoint x="564" y="377" as="targetPoint"/>
                    </mxGeometry>
                </mxCell>
                <mxCell id="zUnTaJyi1g9B3rZYQBrX-32" value="" style="endArrow=none;html=1;rounded=0;" parent="1" edge="1">
                    <mxGeometry width="50" height="50" relative="1" as="geometry">
                        <mxPoint x="524" y="367" as="sourcePoint"/>
                        <mxPoint x="564" y="387" as="targetPoint"/>
                    </mxGeometry>
                </mxCell>
                <mxCell id="zUnTaJyi1g9B3rZYQBrX-33" value="" style="endArrow=none;html=1;rounded=0;strokeColor=#3399FF;strokeWidth=3;" parent="1" edge="1">
                    <mxGeometry width="50" height="50" relative="1" as="geometry">
                        <mxPoint x="524" y="357" as="sourcePoint"/>
                        <mxPoint x="564" y="377" as="targetPoint"/>
                    </mxGeometry>
                </mxCell>
                <mxCell id="zUnTaJyi1g9B3rZYQBrX-34" value="" style="rounded=0;whiteSpace=wrap;html=1;" parent="1" vertex="1">
                    <mxGeometry x="524" y="397" width="20" height="40" as="geometry"/>
                </mxCell>
                <mxCell id="zUnTaJyi1g9B3rZYQBrX-35" value="" style="endArrow=none;html=1;rounded=0;" parent="1" edge="1">
                    <mxGeometry width="50" height="50" relative="1" as="geometry">
                        <mxPoint x="564" y="452" as="sourcePoint"/>
                        <mxPoint x="548" y="452" as="targetPoint"/>
                        <Array as="points">
                            <mxPoint x="554" y="452"/>
                        </Array>
                    </mxGeometry>
                </mxCell>
                <mxCell id="zUnTaJyi1g9B3rZYQBrX-36" value="" style="endArrow=none;html=1;rounded=0;" parent="1" edge="1">
                    <mxGeometry width="50" height="50" relative="1" as="geometry">
                        <mxPoint x="548" y="452" as="sourcePoint"/>
                        <mxPoint x="548" y="477" as="targetPoint"/>
                        <Array as="points"/>
                    </mxGeometry>
                </mxCell>
                <mxCell id="zUnTaJyi1g9B3rZYQBrX-37" value="" style="shape=image;verticalLabelPosition=bottom;labelBackgroundColor=default;verticalAlign=top;aspect=fixed;imageAspect=0;image=data:image/png,iVBORw0KGgoAAAANSUhEUgAABAAAAAQACAYAAAB/HSuDAAD8GElEQVR4Aez9C5gV1Z3o/VftBhsSgSYYBV+JmPOcXIRMUPNMRpiZYCaZqJMnMolGk5wZGYSgTkzw8E/eN//JRMybzEWPStRBCC0hx5MZdXIh8yaKExPJvAEn/ydRQkBzVQweQSN0N8ilm+5d//XbsKG72ZeqvdeqWpdvPU/bvWtXrctnFe69frVqrShiQwABBBBAAAEEEEAAAQQQQAABBBBAAAEEEEAAAQQQQAABBBBAAAEEEEAAAQQQQAABBBBAAAEEEEAAAQQQQAABBBBAAAEEEEAAAQQQQAABBBBAAAEEEEAAAQQQQAABBBBAAAEEEEAAAQQQQAABBBBAAAEEEEAAAQQQQAABBBBAAAEEEEAAAQQQQAABBBBAAAEEEEAAAQQQQAABBBBAAAEEEEAAAQQQQAABBBBAAAEEEEAAAQQQQAABBBBAAAEEEEAAAQQQQAABBBBAAAEEEEAAAQQQQAABBBBAAAEEEEAAAQQQQAABBBBAAAEEEEAAAQQQQAABBBBAAAEEEEAAAQQQQAABBBBAAAEEEEAAAQQQQAABBBBAAAEEEEAAAQQQQAABBBBAAAEEEEAAAQQQQAABBBBAAAEEEEAAAQQQQAABBBBAAAEEEEAAAQQQQAABBBBAAAEEEEAAAQQQQAABBBBAAAEEEEAAAQQQQAABBBBAAAEEEEAAAQQQQAABBBBAAAEEEEAAAQQQQAABBBBAAAEEEEAAAQQQQAABBBBAAAEEEEAAAQQQQAABBBBAAAEEEEAAAQQQQAABBBBAAAEEEEAAAQQQQAABBBBAAAEEEEAAAQQQQAABBBBAAAEEEEAAAQQQQAABBBBAAAEEEEAAAQQQQAABBBBAAAEEEEAAAQQQQAABBBBAAAEEEEAAAQQQQAABBBBAAAEEEEAAAQQQQAABBBBAAAEEEEAAAQQQQAABBBBAAAEEEEAAAQQQQAABBBBAAAEEEEAAAQQQQAABBBBAAAEEEEAAAQQQQAABBBBAAAEEEEAAAQQQQAABBBBAAAEEEEAAAQQQQAABBBBAAAEEEEAAAQQQQAABBBBAAAEEEEAAAQQQQAABBBBAAAEEEEAAAQQQQAABBBBAAAEEEEAAAQQQQAABBBBAAAEEEEAAAQQQQAABBBBAAAEEEEAAAQQQQAABBBBAAAEEEEAAAQQQQAABBBBAAAEEEEAAAQQQQAABBBBAAAEEEEAAAQQQQAABBBBAAAEEEEAAAQQQQAABBBBAAAEEEEAAgawCcdYTOB4BBBBAAAEE9AtMXbn2Hc1STUrl2XESdzU6Lk7KXUkcz250TF7vxUmyJYlLvcPz233dNTcPf83fCCCAAAIIIJCfAAGA/KzJCQEEEEDAU4Fpd3efnZRKM6R6ozvpqhM8O4mjLnnv2DZDffjOqL4I/ncS9SqfLVWH4UGDJE5643Lp+Hu7r1/4g+px/EYAAQQQQACB7AIEALKbcQYCCCCAgOcC1bvxSWmoK05Ks49WN5mhfstPFCfR7Ghkp152s+UkkETRDpXVDtUOKngQb6lmm8TlLXG5QwUNyjt2fWzRc9X9/EYAAQQQQACBowIEALgSEEAAAQSCE5AO/sg79ck8QVB3n7siS4bPB9coJio8YnRBvFGykCBBaTDeQoDABDhpIoAAAgjYLkAAwPYWonwIIIAAAi0JnL7q3reWyom6Ux/PUN2+edy1b4nR75NGBwiSo0GC/o4jW3qWLOnzu/LUDgEEEEAgRAECACG2OnVGAAEEPBGQTn4clWccHaZfvYvP8HxPmrfwasijBipwtOX4YwYqQMA8BIU3CwVAAAEEEGhDgABAG3icigACCCBgXuDEBHvlGdzNN+9NDikEKqsbxL3qoZGNlaNVYIBRAyncOAQBBBBAoHABAgCFNwEFQAABBBCoChydfE/d0Y9k5vx4tvqQmld9j98IOCFwNDiwRQUHdjDfgBMtRiERQACBoAQIAATV3FQWAQQQsEPg+F39WJ7NV8/pR2qGfSbfs6NxKIV+gWNzDVSWOIziLeVSvOWla6/5qf6MSBEBBBBAAIHGAgQAGvvwLgIIIIBAmwJMxtcmIKd7KzBijgEeI/C2nakYAgggYJMAAQCbWoOyIIAAAo4LjL6zn8SRDOOf4Xi1KD4CuQkcDQok6xNGCuRmTkYIIIBASAIEAEJqbeqKAAIIaBaQZ/aTUnm2LLGnfuZHcdSlOQuSQyB4ARUU2Fh9fGD39Yu+EjwIAAgggAACLQsQAGiZjhMRQACB8ASGdfjnS6efDn941wA1tkDg2ESDaoTNltJgtH7XxxY9Z0GpKAICCCCAgAMCBAAcaCSKiAACCBQhMHn16kmnJKV5pXI0jxn5i2gB8kQgpYCaZFBNpLlOHhuIy9FGAgIp3TgMAQQQCFCAAECAjU6VEUAAgVoC1Q5/nMTz1fvz1AfEjFrHsQ8BBOwWOD65YBStJyBgd1tROgQQQCBvAQIAeYuTHwIIIGCJAB1+SxqCYiBgWKA6sWC5FG0sDcZbGCFgGJzkEUAAAYsFCABY3DgUDQEEENAtUFmSTybrixK5wz9Pd/qkhwAC9gsMDwi8eO3ib9lfYkqIAAIIIKBLgACALknSQQABBCwUkA5/LJ191emnw29hA1EkBGwQSKL1MjpAzSGw8aVrr/mpDUWiDAgggAACZgQIAJhxJVUEEECgMIEzVq25TJ7jZ1m+wpqAjBFwVkBGB6jCb0ziZP1AXN7Ys2RJn7OVoeAIIIAAAicJEAA4iYQdCCCAgFsC0+7uPjspRfOiWE3cJ8P746jLrRpQWgQQsFVABQRUMCBaz+gAW1uIciGAAALZBAgAZPPiaAQQQMAKgakr174jjobmq8Kojn8824pCUQgEEPBaoDo6oBzHK3hUwOumpnIIIOCxAAEAjxuXqiGAgF8CdPr9ak9qg4DTAknUKyMDoiTa2N8xtJ5HBZxuTQqPAAIBCRAACKixqSoCCLgnIM/zl8rqLn8UL2Bov3vtR4kRCEKAYEAQzUwlEUDADwECAH60I7VAAAGPBI53+uN4qUfVoioIIBCCgAoGqGqqFQWi9buvX/SVEKpMHRFAAAGXBAgAuNRalBUBBLwVkOX6SkmyVFVwnvof8wxvK0rFEEAgHAGCAeG0NTVFAAFnBAgAONNUFBQBBHwTkNn7o5J0+hne71vbUh8EEBglMOwxAUYGjLLhJQIIIJCjAAGAHLHJCgEEEKgs2dehOvxRsoA7/VwPCCAQpMCxYACrCQTZ+lQaAQQKFiAAUHADkD0CCPgvMHn16kmnJB0LKpP5xdF8/2tMDRFAAIF0ArK0oFpNYEVpMFq/62OLnkt3FkchgAACCLQqQACgVTnOQwABBJoIyLJ9UVyWO/0LmhzK2wgggEDwAioYsFGWFiQYEPylAAACCBgUIABgEJekEUAgPIHq3f44iZaq/8HOCE+AGiOAAAIaBJJofbmUrHvx2sXf0pAaSSCAAAIIHBMgAMClgAACCLQpIJ3+zqGO+VFcmcF/QZvJcToCCCCAQFUgSbaUS/G6gXhoXc+SJX3V3fxGAAEEEGhNgABAa26chQACCETVpfvU3X7p/HdBggACCCBgUIBRAQZxSRoBBEIRIAAQSktTTwQQ0CZw7Nn+5ep/oPO0JUpCCCCAAAKpBGTiwDhJ1kfleAUTB6Yi4yAEEEDguAABgOMU/IEAAgjUF+DZ/vo2vIMAAggUJaCCAeuipLRu9/ULf1BUGcgXAQQQcEmAAIBLrUVZEUAgdwFm8s+dnAwRQACBzALV5QSZKyAzHScggEBgAgQAAmtwqosAAukEzli15rI4iVeo/0nOSHcGRyGAAAIIFC6QRL1RlKzj8YDCW4ICIICApQIEACxtGIqFAAL5C0y7u/vspCNeoL48LqDjn78/OSKAAAJaBdSkgUlUWsHjAVpVSQwBBBwXIADgeANSfAQQaF9AOv5RKVkaxfHS9lMjBQQQQAABqwTUUoJJFK/o7xhaz1KCVrUMhUEAgQIECAAUgE6WCCBgh8CxZfxkmP88O0pEKRBAAAEEjAmoxwOSWAUCSoMrCAQYUyZhBBCwXIAAgOUNRPEQQEC/gDzfXypHy9Ud/9n6UydFBBBAAAGrBY7NE5BEHet5PMDqlqJwCCBgQIAAgAFUkkQAAfsEZBm/zqGO+VEcLVf/45thXwkpEQIIIIBA3gJq9YCNahnB5QQC8pYnPwQQKEqAAEBR8uSLAAK5CFQ6/uUxS+NEnvGPunLJlEwQQAABBNwSODZPwO7rF33FrYJTWgQQQCCbAAGAbF4cjQACjggcndFf3e1PIrnr3+VIsSkmAggggECBAmpEwI4oidSIAAIBBTYDWSOAgEEBAgAGcUkaAQTyFzje8Y+iBfnnTo4IIIAAAj4ISCAgiaMVA/HQOiYM9KFFqQMCCFQFCABUJfiNAAJOC0xdufYdUVyW5/vnOV0RCo8AAgggYI8AKwfY0xaUBAEEtAgQANDCSCIIIFCUAB3/ouTJFwEEEAhI4FggIB5K1u362KLnAqo5VUUAAc8ECAB41qBUB4FQBOj4h9LS1BMBBBCwTCBJVhzuKC/n0QDL2oXiIIBAKgECAKmYOAgBBGwRmLqy+2o1qd8C9T+vebaUiXIggAACCAQmwKMBgTU41UXAHwECAP60JTVBwGuBYx3/5ep/WjO8riiVQwABBBBwR4BHA9xpK0qKAAIVAQIAXAgIIGC1wBmr1lwWJ/EKOv5WNxOFQwABBIIXSKJ4eX9pcAWPBgR/KQCAgNUCBACsbh4Kh0C4AjzjH27bU3MEEEDAWYFjIwJ2X3fNzc7WgYIjgIDXAgQAvG5eKoeAewJ0/N1rM0qMAAIIIDBSIImiHVESLd99/aKvjHyHVwgggECxAgQAivUndwQQOCZAx59LAQEEEEDANwECAb61KPVBwH0BAgDutyE1QMBpgdNX3fvWklpSSf3PaJ7TFaHwCCCAAAII1BFQgYCNUVJSIwIW/qDOIexGAAEEchEgAJALM5kggMBogWl3d5+ddEQyq/+C0e/xGgEEEEAAAS8Fkmj9UCle/tK11/zUy/pRKQQQsF6AAID1TUQBEfBPYOo93V+m4+9fu1IjBBBAAIF0AmpEwLp4KFq+62OLnkt3BkchgAACegQIAOhxJBUEEEghMHVl99VRXLnrPyPF4RyCAAIIIICAvwLHVgxg6UB/m5iaIWCjAAEAG1uFMiHgmYBM8BdHQyuiOJ7tWdWoDgIIIIAAAu0JSCAgipayYkB7jJyNAALpBAgApHPiKAQQaEHg2HP+69T/aOa1cDqnIIAAAgggEIyACgKopQNLC5goMJgmp6IIFCJAAKAQdjJFwG+ByatXTxo3VFqu7vgv9bum1A4BBBBAAAG9AjI/QDmOVzBRoF5XUkMAgaMCBAC4EhBAQKvAGau6PxEn0VL1P5cZWhMmMQQQQAABBAISSKJ4OfMDBNTgVBWBnAQIAOQETTYI+C5w+qp739pRLq/jOX/fW5r6IYAAAgjkJXD0sYBoOfMD5CVOPgj4L0AAwP82poYIGBU49pz/cvU/kwVGMyJxBBBAAAEEQhVIki1DpdICHgsI9QKg3gjoEyAAoM+SlBAITkCG+5fKkXrWP+oKrvJUGAEEEEAAgbwFkmTF4Y7y8p4lS/ryzpr8EEDADwECAH60I7VAIFcBhvvnyk1mCCCAAAIIHBeQxwKSOFrx4rWLvnh8J38ggAACKQUIAKSE4jAEEIgimd2/s9yxQv2PYwEeCCCAAAIIIFCgAI8FFIhP1gi4K0AAwN22o+QI5CrAcP9cuckMAQQQQACBdAI8FpDOiaMQQKAiQACACwEBBBoKHJvkb536n8W8hgfyJgIIIIAAAggUInD0sYBk6YvXLv5WIQUgUwQQcEaAAIAzTUVBEchfYOo9994UR8ny/HMmRwQQQAABBBDILJBE66NytHTXxxY9l/lcTkAAgSAECAAE0cxUEoFsAlNXrn1HHA2tiOJ4drYzORoBBBBAAAEEChVIot5yKVrOJIGFtgKZI2CtAAEAa5uGgiGQv4BM8jduqKSW9YuX5p87OSKAAAIIIICANgEmCdRGSUII+CRAAMCn1qQuCLQhcMaqNZfFSSwz/M9oIxlORQABBBBAAAGbBJgk0KbWoCwIFC5AAKDwJqAACBQrcPSuf8e6KI7mF1sSckcAAQQQQAABEwIySWCUlBbsvn7hD0ykT5oIIOCOAAEAd9qKkiKgXYCl/bSTkiACCCCAAAL2CjAawN62oWQI5CRAACAnaLJBwCYB7vrb1BqUBQEEEEAAgfwEGA2QnzU5IWCjAAEAG1uFMiFgUECe9S+VYxny32UwG5JGAAEEEEAAAYsFVCBgXX9paGnPkiV9FheToiGAgGYBAgCaQUkOAVsFpt3dfXZUitTSfjzrb2sbUS4EEEAAAQRyFVBLBiZRaT5zA+SqTmYIFCpAAKBQfjJHIB8B7vrn40wuCCCAAAIIOCnA3ABONhuFRqAVAQIArahxDgKOCPCsvyMNRTERQAABBBAoWkCNBhgqxfNeuvaanxZdFPJHAAFzAgQAzNmSMgKFCnDXv1B+MkcAAQQQQMBNAUYDuNlulBqBlAIEAFJCcRgCrggcvetfWh7F8VJXykw5EUAAAQQQQMAeAVkpoBzH8xkNYE+bUBIEdAmUdCVEOgggULzA6avufeu4odJGOv/FtwUlQAABBBBAwFUBdYdwRkeSbJl6z703uVoHyo0AArUFGAFQ24W9CDgncMaq7k+UEjXLPxsCCCCAAAIIIKBJQI0G2BgPRQt2fWzRc5qSJBkEEChQgABAgfhkjYAOgWND/uWu/2wd6ZEGAggggAACCCAwQqCyXGC0dPf1i74yYj8vEEDAOQECAM41GQVG4ITA1JVr3xFH5fVRHHWd2MtfCCCAAAIIIICAAYEkWn+4Y2hBz5IlfQZSJ0kEEMhBgABADshkgYBuAbnr31nuWKH+AS/QnTbpIYAAAggggAAC9QRkgsAoKS3Yff3CH9Q7hv0IIGCvAJMA2ts2lAyBmgLVif7o/NfkYScCCCCAAAIIGBRQ3z9mxHF5IxMEGkQmaQQMCqh/w2wIIOCKQGWiv3KklvhjyL8rbUY5EUAAAQQQ8FZArRQQleP5TBDobQtTMQ8FCAB42KhUyT+BoxP9daxTHf/5/tWOGiGAAAIIIICAswJqgsByKVnw4rWLv+VsHSg4AgEJEAAIqLGpqpsCMuS/lCTr1T/WGW7WgFIjgAACCCCAgPcCSbJi1/WLb/S+nlQQAccFCAA43oAU32+BqSu7r47jaJ3ftaR2CCCAAAIIIOCDgJogcGM8FC3gkQAfWpM6+CpAAMDXlqVeTgswy7/TzUfhEUAAAQQQCFdAPRKgAgFLd1+/6CvhIlBzBOwVIABgb9tQskAFpt3dfXZUStZHcTw7UAKqjQACCCCAAAKOCyRRvHz3ddfc7Hg1KD4C3gkQAPCuSamQywKVWf6TaIXLdaDsCCCAAAIIIICACPBIANcBAvYJEACwr00oUYACDPkPsNGpMgIIIIAAAiEIqEcChkrxvJeuveanIVSXOiJgu0DJ9gJSPgR8Fzi6xF9po4rGLfC9rtQPAQQQQAABBAITiKOujiTZMvWee28KrOZUFwErBRgBYGWzUKhQBGSJv45ysjFSH46h1Jl6IoAAAggggECYAuqRgHX9paGlPUuW9IUpQK0RKF6AEQDFtwElCFRAnveXiDid/0AvAKqNAAIIIIBAYAIy2nHcUGmj3AAJrOpUFwFrBBgBYE1TUJBQBHjeP5SWpp4IIIAAAgggUFNAzQtQLiULXrx28bdqvs9OBBAwJsAIAGO0JIzAyQIS8ZbIt0TAT36XPQgggAACCCCAQAAC6tHHUhKvZ16AANqaKlonwAgA65qEAvkqcMaqNZeVyvE6hvz72sLUCwEEEEAAAQSyCjAvQFYxjkegPQECAO35cTYCqQSmruy+Oo6jdakO5iAEEEAAAQQQQCAkATUn0lCptIClAkNqdOpalAABgKLkyTcIAZ73D6KZqSQCCCCAAAIItCug5gUYKsXzCAK0C8n5CDQWYA6Axj68i0DLAtPu7j6b5/1b5uNEBBBAAAEEEAhJQM0LIKsjMS9ASI1OXYsQYARAEerk6b2ATPZXSpL16h/YDO8rSwURQAABBBBAAAGNAjIvwO7rFv2VxiRJCgEEjgkQAOBSQECzQOV5/yhawWR/mmFJDgEEEEAAAQTCEVCjAQ53lOf1LFnSF06lqSkC5gV4BMC8MTkEJHDGqu5PVCb7U8PYAqo2VUUAAQQQQAABBPQKxPFseZRSRlXqTZjUEAhbgBEAYbc/tdcoMPWe7i+rf1ALNCZJUggggAACCCCAQNgCanJA9UjA0t3XL/pK2BDUHgE9AgQA9DiSSsACMtO/RKgjFakOmIGqI4AAAggggAACxgTKcbT0xWsXfdFYBiSMQCACBAACaWiqaUZAZvqPSsl6Ov9mfEkVAQQQQAABBBCoCjA5YFWC3wi0LkAAoHU7zgxcQJ5J6ygn6s4/z/sHfilQfQQQQAABBBDISUAFATb2l4bmMzlgTuBk450AkwB616RUKA+BM1atuYzOfx7S5IEAAggggAACCJwQUHcv58mjl/II5om9/IUAAmkFCACkleI4BI4JyEz/pSRWw/65889FgQACCCCAAAII5C5QWSGgYwcrBOQuT4YeCBAA8KARqUJ+AjLTfymJVuSXIzkhgAACCCCAAAIInCSgbsTIaEwZlXnSe+xAAIG6AswBUJeGNxAYKcAyfyM9eIUAAggggAACCNggkCTRApYJtKElKIMLAgQAXGglylioAMv8FcpP5ggggAACCCCAQHOBJFmx6/rFNzY/kCMQCFuAAEDY7U/tmwjQ+W8CxNsIIIAAAggggIAlAiwTaElDUAyrBQgAWN08FK5IAZb5K1KfvBFAAAEEEEAAgRYEkmTL4Y7yPJYJbMGOU4IQYBLAIJqZSmYVoPOfVYzjEUAAAQQQQAABCwQqKwSwTKAFLUERLBUgAGBpw1Cs4gTo/BdnT84IIIAAAggggEDbAseCANPu7j677bRIAAHPBAgAeNagVKc9gakru6+WJWUitbRMeylxNgIIIIAAAggggEBhAioIEJWiLXJjp7AykDECFgoQALCwUShSMQJnrOr+RBxH6+j8F+NPrggggAACCCCAgFYBdUNHbuycsWrNZVrTJTEEHBZgEkCHG4+i6xOYek/3l9U/hgX6UiQlBBBAAAEEEEAAAVsEkqQ0b/f1C39gS3koBwJFCTACoCh58rVGgM6/NU1BQRBAAAEEEEAAASMCcVzeKI96GkmcRBFwSIAAgEONRVH1C9D5129KiggggAACCCCAgI0C8qjn1HvuvcnGslEmBPIS4BGAvKTJxzoBOv/WNQkFQgABBBBAAAEEjAuU42jpi9cu+qLxjMgAAQsFCABY2CgUybwAnX/zxuSAAAIIIIAAAgjYKpBE0brd1y36K1vLR7kQMCVAAMCULOlaKTB59epJ44ZKapk/tTQMGwIIIIAAAggggECwAgQBgm36oCtOACDo5g+r8nT+w2pvaosAAggggAACCDQTkCBAf2loac+SJX3NjuV9BHwQYBJAH1qROjQVoPPflIgDEEAAAQQQQACB4ATU3dAF44Y61gVXcSocrAAjAIJt+nAqTuc/nLampggggAACCCCAQEsCSbLlcEd5HiMBWtLjJIcEGAHgUGNR1OwCdP6zm3EGAggggAACCCAQnICaH0rmiZLvjsHVnQoHJUAAIKjmDquydP7Dam9qiwACCCCAAAIItCVAEKAtPk52Q4BHANxoJ0qZUWDa3d1nJx3RRnWBz8h4KocjgAACCCCAAAIIhCzA4wAht773dWcEgPdNHF4FK0O3Ssl6Ov/htT01RgABBBBAAAEE2hZgJEDbhCRgrwABAHvbhpK1ICB3/uX5rUj9j7uF0zkFAQQQQAABBBBAAIFIvksyJwAXgo8CPALgY6sGWie5899Z7tjCnf9ALwCqjQACCCCAAAII6BbgcQDdoqRXsAAjAApuALLXI1Cd8I/Ovx5PUkEAAQQQQAABBBBQAmokgNxgqjxiCggCHggQAPCgEUOvQrXzz7D/0K8E6o8AAggggAACCOgXkBtMPA6g35UUixEgAFCMO7lqEqDzrwmSZBBAAAEEEEAAAQTqCzAnQH0b3nFKgACAU81FYYcL0PkfrsHfCCCAAAIIIIAAAkYFCAIY5SXxfAQIAOTjTC6aBej8awYlOQQQQAABBBBAAIHmAgQBmhtxhNUCBACsbh4KV0uAzn8tFfYhgAACCCCAAAII5CJAECAXZjIxI0AAwIwrqRoSoPNvCJZkEUAAAQQQQAABBNILEARIb8WRVgkQALCqOShMIwE6/410eA8BBBBAAAEEEEAgVwGCALlyk5keAQIAehxJxbAAnX/DwCSPAAIIIIAAAgggkF3gWBAg+4mcgUAxAmpZSzYE7Bag8293+1A6BBBAAAEEEEAgdIEkijb2l4bm9yxZ0he6BfW3W4ARAHa3T/Clo/Mf/CUAAAIIIIAAAgggYL2Auqs6r7Pcsd76glLA4AUIAAR/CdgLQOff3rahZAgggAACCCCAAAIjBSQIMPWe7i+P3MsrBOwSIABgV3tQmmEC44ZKGyP1XNWwXfyJAAIIIIAAAggggIC1AioIsGDqyjXrVAHVn2wI2CdAAMC+NqFESqASPaXzz7WAAAIIIIAAAggg4JhAHMdXT13xT3erYhMEcKztQiguAYAQWtmxOkrnX6KnjhWb4iKAAAIIIIAAAgggUBGIOzuvP/3v/8d16gVBAK4JqwQIAFjVHBSGzj/XAAIIIIAAAggggIAPAh1dXf9EEMCHlvSrDgQA/GpPp2tzxqruT3Dn3+kmpPAIIIAAAggggAACwwQIAgzD4E8rBBiSYkUzUIipK7uvjuNoHRIIIIAAAggggAACCPgmMNTb+9cvffr/c4+qV+Jb3aiPWwKMAHCrvbwsLZ1/L5uVSiGAAAIIIIAAAggcEyhNmvR3XTd+8o/VS27AclUUKsAFWCg/mZ++6t63diTJFiQQQAABBBBAAAEEEPBZIEmSvsM/f/rPe++8faOqJyMBfG5si+vGCACLG8f3olU6/+Vko+/1pH4IIIAAAggggAACCKjlASeNe9ObvznuXe86R2lwI5ZLohABAgCFsJPp8c5/HHWhgQACCCCAAAIIIIBACAISBOi67PJvEQQIobXtrCMBADvbxetS0fn3unmpHAIIIIAAAggggEADgXjMmFkEARoA8ZZRAQIARnlJfLTA5NWrJ5WSZL0a9NQ1+j1eI4AAAggggAACCCAQgoAEASb92WV/p+o6Rf3wOEAIjW5JHQkAWNIQoRRj3FBpo/o/3IxQ6ks9EUAAAQQQQAABBBCoJVAaN/7KM+646271HkGAWkDsMyJAAMAIK4nWEph6T/eXozieXes99iGAAAIIIIAAAgggEJqABAFee/MXPqLqTRAgtMYvqL4EAAqCDy1b6fyrO/8LQqs39UUAAQQQQAABBBBAoJHAmNPPWEEQoJEQ7+kUIACgU5O0agpMXdl9NZ3/mjTsRAABBBBAAAEEEEAgkiDApOtumK0oGAnA9WBUgACAUV4Sr3T+42gdEggggAACCCCAAAIIIFBfYPxbfu9rBAHq+/COHgECAHocSaWGgCz3p+78r6jxFrsQQAABBBBAAAEEEEBgmEAcx5PGnzvzjs65c2UUwMRhb/EnAtoEVP+MDQH9AtL57ygnG1nuT78tKSKAAAIIIIAAAgj4K5AMDm7ruf++y/s3bfqdquVef2tKzYoQYARAEeqe5zl59epJpSRZT+ff84ameggggAACCCCAAALaBeIxY2Z1XX7VzSrhTvUzSXsGJBi0AAGAoJtff+Wl8z9uqLRRDS2ZoT91UkQAAQQQQAABBBBAwH8BWR7wjFtXSBDgVeqHIID/TZ5bDQkA5EYdRkad5Y4VURzPDqO21BIBBBBAAAEEEEAAATMCpVNPXayWB/ygSp0ggBniIFMlABBks5up9NR7ur+s7vwvMJM6qSKAAAIIIIAAAgggEJZAx2tPv1mtDDBT1VqCAPLDhkBbAgQA2uLj5KpAZbk/Ov9VDn4jgAACCCCAAAIIINC2QGVlALU8oFoZQFYFkEcBxredKAkELUAAIOjm11N5lvvT40gqCCCAAAIIIIAAAgiMFpAgwOSr/qIaBOhS7xMEGI3E69QCBABSU3FgLQGZ9I/l/mrJsA8BBBBAAAEEEEAAAT0Cw1YGkARlNMAYPSmTSmgCBABCa3GN9a3O+M9yfxpRSQoBBBBAAAEEEEAAgRoCsjLA6f94+zL1lvThpqgfggA1nNjVWIAAQGMf3m0gMG6oYx0z/jcA4i0EEEAAAQQQQAABBDQKdEycuOzYygDVIECHxuRJKgABAgABNLKJKk5bueYOded/vom0SRMBBBBAAAEEEEAAAQRqCwxbGUD6cpPVj1qIiw2BdAIEANI5cdQwgTNWrblM3flfOmwXfyKAAAIIIIAAAggggEAOApWVAc6decexlQHGqizlcQCCADnY+5AFAQAfWjHHOsiM/6VyvC7HLMkKAQQQQAABBBBAAAEEhglUJgW88r+tPbaLIMAwG/5sLEAAoLEP7w4TkEn/Skmynkn/hqHwJwIIIIAAAggggAACBQiUxo6dc8atK24+lrUEAboKKAZZOiZAAMCxBiuyuOOGShvV2KIZRZaBvBFAAAEEEEAAAQQQQOCoQOnUUxcfmxRQdoxTP6cefYf/IlBbgABAbRf2jhI4OulfPHvUbl4igAACCCCAAAIIIIBAgQJjTj9jxaTrbph5rAgT1O/xBRaHrC0XIABgeQPZULypK7uvZtI/G1qCMiCAAAIIIIAAAgggcLLA+BOTAsqbXernFPmDDYHRAgQARovweoSATPqnhv2vGLGTFwgggAACCCCAAAIIIGCNgEwKOPmKD68YVqDJ6u8xw17zJwIVAQIAXAh1BWTSv45yeR2T/tUl4g0EEEAAAQQQQAABBKwQiDs7Lz79H29fdqww0s9jeUArWsauQhAAsKs9rCpNZ7ljhRr6P9uqQlEYBBBAAAEEEEAAAQQQqCnQMXHisinLPn3hsTcJAtRUCnsnAYCw279u7c9Y1f0JNfR/Qd0DeAMBBBBAAAEEEEAAAQSsExj7X16/tnPu3InHCibLA8rjAGwIVAQIAHAhnCQgz/2XEp77PwmGHQgggAACCCCAAAIIWC4Qx/Gkriv/29phxexUf08a9po/AxYgABBw49equjz3X0qS9bXeYx8CCCCAAAIIIIAAAgjYL1AaO3bOsPkApMCvOvZjf+EpoVEBAgBGed1LfNxQxzo19H+GeyWnxAgggAACCCCAAAIIIFAVkPkAXnvzFz5Yfa1+yyiA8cNe82eAAgQAAmz0elWW5/7VjP/z673PfgQQQAABBBBAAAEEEHBHoOO1p9886bobZg4rscwNwPKAw0BC+5MAQGgtXqe+PPdfB4bdCCCAAAIIIIAAAgg4KiDzAYw/d+YdwyYFlP4fywM62p46ik0AQIei42nw3L/jDUjxEUAAAQQQQAABBBCoIxCPGTOr6/Krbh72tvQBWRlgGEhIfxIACKm169S1s9yxnuf+6+CwGwEEEEAAAQQQQAABxwVK48ZfOeVvl79nWDVYGWAYRkh/EgAIqbVr1HXqPffepDr/82q8xS4EEEAAAQQQQAABBBDwRGDstP9jxcQrP3LWsOrIygBMCjgMJIQ/CQCE0Mp16ijP/cdRsrzO2+xGAAEEEEAAAQQQQAABTwRkPoBX/eEfrR02H4DUrEv9yGgAtkAECAAE0tCjq8lz/6NFeI0AAggggAACCCCAgN8CNeYDkAp3qZ8O+YPNfwECAP63cc0aquf+V/Dcf00adiKAAAIIIIAAAggg4K1AjfkApE84Wf2o7gGb7wIEAHxv4Rr1m7qy+2r1r3tBjbfYhQACCCCAAAIIIIAAAp4L1JgPYKyq8kTPq031lAABgMAug2l3d5+tOv8rAqs21UUAAQQQQAABBBBAAIFjAtX5AEaByKSA8sPmsQABAI8bt2bVSsl6Nbinq+Z77EQAAQQQQAABBBBAAIEgBGQ+gNP/8fZloyo7Sb1mUsBRKD69JADgU2s2qYss+RfF8ewmh/E2AggggAACCCCAAAIIBCDQMXHisinLPn3hqKp2qddMCjgKxZeXBAB8ackm9WDJvyZAvI0AAggggAACCCCAQIACY18/Y8WopQGlj8ikgJ5eCwQAPG3Y4dViyb/hGvyNAAIIIIAAAggggAACVYG41DG96/Krbq6+PvabSQFHgfjykgCALy3ZoB4s+dcAh7cQQAABBBBAAAEEEAhcoMbSgCIiEwKOD5zGu+oTAPCuSUdW6IxVay5jyb+RJrxCAAEEEEAAAQQQQACBkQI1lgaUA7rUzxj5g80PAQIAfrRjzVpUhv6X43U132QnAggggAACCCCAAAIIIHBMQJYGHD/3D1fUAJmi9ql7imw+CBAA8KEV69Rh3FDHOpb8q4PDbgQQQAABBBBAAAEEEBghUBo7ds5pf3/rohE7o0j6jBIEYPNAgACAB41YqwpnrOr+hOr8z6/1HvsQQAABBBBAAAEEEEAAgVoCY7smf27SdTfMHPUekwKOAnH1JQEAV1uuQbmn3d19dqkcLW9wCG8hgAACCCCAAAIIIIAAAjUFxs+atXbU0oBy3KvVT2fNE9jpjAABAGeaKn1Bk46Iof/puTgSAQQQQAABBBBAAAEEhglUlgacf8WyYbuqf3apPzqqL/jtngABAPfarGGJZei/mqFjXsODeBMBBBBAAAEEEEAAAQQQaCBQOvXUxTUeBZD+4+QGp/GW5QIEACxvoCzFO33VvW9l6H8WMY5FAAEEEEAAAQQQQACBegLjz515R433ZD6AU2vsZ5cDAgQAHGiktEXsKJcZ+p8Wi+MQQAABBBBAAAEEEECgoUA8ZsysM25dcXONgyaofeNr7GeX5QIEACxvoLTFOzrrfzw77fEchwACCCCAAAIIIIAAAgg0E5BHAaYs+/SFNY6bqPaNqbGfXRYLEACwuHHSFo1Z/9NKcRwCCCCAAAIIIIAAAghkFRj7+hkraqwKIH3JrqxpcXyxAgQAivXXkjuz/mthJBEEEEAAAQQQQAABBBCoIdBgVQCZD0BGArA5IkAAwJGGqldMZv2vJ8N+BBBAAAEEEEAAAQQQ0CXQ4FGAV6s8OnXlQzpmBQgAmPU1mjpD/43ykjgCCCCAAAIIIIAAAggME6jzKIAc0aV+1GrkbLYLEACwvYUalI+h/w1weAsBBBBAAAEEEEAAAQS0CjR4FED6lZO1ZkZiRgQIABhhNZ/o1JXdV6sQ2zzzOZEDAggggAACCCCAAAIIIHBUQB4FmHTdDTNreMhjAK+qsZ9dFgkQALCoMdIWZfLq1ZNU539F2uM5DgEEEEAAAQQQQAABBBDQJTD+3Jl31ElrktrP0oB1cGzYTQDAhlbIWIZxQ6Xl6gmbroyncTgCCCCAAAIIIIAAAggg0LZAPGbMrNP/8fZldRLqUvvV/Uo2GwVoGBtbpUGZpq5c+444Lm9scAhvIYAAAggggAACCCCAAALGBQ5u/em7++65a3uNjA6offtq7GdXwQKMACi4AbJkL0P/o7i8Lss5HIsAAggggAACCCCAAAIImBAY9+Zzb66TLksD1oEpejcBgKJbIEP+neUxS9WQjRkZTuFQBBBAAAEEEEAAAQQQQMCIQGns2DmvvfkLH6yTeJfaz4jzOjhF7SYAUJR8xnxPX3XvW+MoWZ7xNA5HAAEEEEAAAQQQQAABBIwJdLz29Js7586dWCMD6Wt21djPrgIFCAAUiJ8l644yQ/+zeHEsAggggAACCCCAAAIImBeI43jS5Cs+vKJOTuPUfpYGrINTxG4CAEWoZ8xz6sruq6M4np3xNA5HAAEEEEAAAQQQQAABBIwLxJ2dF09Z9ukL62Q0Qe3vqPMeu3MWIACQM3jW7GTiP/XgzIqs53E8AggggAACCCCAAAIIIJCXwNjXz1jR4FGAyXmVg3waCxAAaOxT+LvjhkrL1dQZXYUXhAIggAACCCCAAAIIIIAAAnUE4lLH9Env+8DiOm+PVftPrfMeu3MUIACQI3bWrGTiPzX0f2nW8zgeAQQQQAABBBBAAAEEEMhboDRhwqKJV37krDr5yqMAY+q8x+6cBAgA5ATdSjZM/NeKGucggAACCCCAAAIIIIBAEQIyIeD4uX+4okHeXQ3e460cBAgA5IDcShZnrOr+BBP/tSLHOQgggAACCCCAAAIIIFCUQGns2DlT/nb5e+rkz6MAdWDy2k0AIC/pDPnIxH+lcrQ8wykcigACCCCAAAIIIIAAAghYITB26rTP1ZkQUMrHowAFthIBgALx62XdWe5YwcR/9XTYjwACCCCAAAIIIIAAAjYLNJkQUIreZXP5fS4bAQDLWlcm/lPL/i2wrFgUBwEEEEAAAQQQQAABBBBILdAxceKyBhMC8ihAakm9BxIA0OvZdmpM/Nc2IQkggAACCCCAAAIIIICABQKvunDO5xoUg0cBGuCYeosAgCnZFtKdurL7aib+awGOUxBAAAEEEEAAAQQQQMA6gbiz8+Ipyz59YYOCdTV4j7cMCBAAMIDaSpIy8Z8a+r+ilXM5BwEEEEAAAQQQQAABBBCwUWDsjLNvblAuHgVogGPiLQIAJlRbSLOzPGYpE/+1AMcpCCCAAAIIIIAAAgggYK1APGbMrNfe/IUPNijgq9V7HQ3e5y2NAgQANGK2mtS0u7vPjqNkeavncx4CCCCAAAIIIIAAAgggYKtAx2mnLWuwLKD0SSfZWnbfykUAwIIWTTqi5RYUgyIggAACCCCAAAIIIIAAAtoFUiwL2KkylR82wwIEAAwDN0t+6sq172DZv2ZKvI8AAggggAACCCCAAAIuC5QmTFjUYBSAVK1L/aiuEZtJAQIAJnXTpB2Xl6c5jGMQQAABBBBAAAEEEEAAAVcF4jie1HX5VY0mBJS+aZer9XOl3AQACmypM1atuUyFuOYVWASyRgABBBBAAAEEEEAAAQRyESiNG39lk2UBx6mCnJJLYQLNhABAgQ0fJ/GKArMnawQQQAABBBBAAAEEEEAgV4ExZ79uWZMMZUJAHgVogtTq2wQAWpVr87ypK7uvVlf1jDaT4XQEEEAAAQQQQAABBBBAwBmB0tixc5qMAhijKiNLA7IZECAAYAC1WZKTV6+epDr/K5odx/sIIIAAAggggAACCCCAgG8CKUYBTFB17vCt3jbUhwBAAa0wbqi0XA1q6Soga7JEAAEEEEAAAQQQQAABBAoVqIwC+Nvl72lSCHkUgE2zAAEAzaDNkpt2d/fZURwvbXYc7yOAAAIIIIAAAggggAACvgqMnTrtc03q1qnelx82jQIEADRipkkq6YiWpzmOYxBAAAEEEEAAAQQQQAABXwXiUsf01978hQ82qd9E9T4TAjZByvI2AYAsWm0ee/qqe9+qrt4FbSbD6QgggAACCCCAAAIIIICA8wIdp53WbEUAJgTU3MoEADSDNkquo5wsb/Q+7yGAAAIIIIAAAggggAACoQjIKIDT/v7WRU3qy4SATYCyvE0AIItWG8ceffY/mt9GEpyKAAIIIIAAAggggAACCHglMGZS17LOuXNlqH+jrdn7jc7lvWECBACGYZj8Uz37v85k+qSNAAIIIIAAAggggAACCLgmEMfxpEnv+8DiJuUep94/pckxvJ1CgABACqR2D5m6cu071LP/89pNh/MRQAABBBBAAAEEEEAAAd8EShMmLEoxCoBlATU0PAEADYhNk4jLy5sewwEIIIAAAggggAACCCCAQIACKUcByISApwbIo7XKBAC0cp6cGHf/TzZhDwIIIIAAAggggAACCCAwXCDlKAAmBByO1sLfBABaQMt0Cnf/M3FxMAIIIIAAAggggAACCIQnkHIUgMAwCqCNy4MAQBt4zU7l7n8zId5HAAEEEEAAAQQQQAABBI4KpBwF8Cp1tDwOwNaCAAGAFtBSn8Ld/9RUHIgAAggggAACCCCAAAJhC2QYBcCygC1eKgQAWoRrdhp3/5sJ8T4CCCCAAAIIIIAAAgggMFIg5SiATnWW/LBlFCAAkBEs9eHc/U9NxYEIIIAAAggggAACCCCAgAgwCsDsdUAAwIAvd/8NoJIkAggggAACCCCAAAIIBCGQchQAywK2cDUQAGgBrekp3P1vSsQBCCCAAAIIIIAAAggggEAtARkFMOG98z9Y671R+16tXsej9vGygQABgAY4rbzF3f9W1DgHAQQQQAABBBBAAAEEEDghMGbixMUnXtX9S/qzE+q+yxsnCRAAOImkzR3c/W8TkNMRQAABBBBAAAEEEEAgdIG41DH9tTd/Ie0ogI7QvdLWnwBAWqkUx3H3PwUShyCAAAIIIIAAAggggAACKQQ6TjttWYrD5JBJKY8L/jACADovAe7+69QkLQQQQAABBBBAAAEEEAhYIMMoAFkS8JSAqVJXnQBAaqrGB3L3v7EP7yKAAAIIIIAAAggggAACWQUyjAI4NWvaIR5PAEBXq8flBbqSIh0EEEAAAQQQQAABBBBAAAE1xb+aC2DK3y5/TwoLRgGkQCIAkAKp2SHT7u4+W609saDZcbyPAAIIIIAAAggggAACCCCQTWDMa89IsyKAJMpcAE1oCQA0AUrzdtIRLU9zHMcggAACCCCAAAIIIIAAAghkEyiNHTtnyrJPX5jirDHqmPEpjgv2EAIAbTb95NWrJ3H3v01ETkcAAQQQQAABBBBAAAEEGgiMOevMNEsCSgrMBdDAkQBAA5w0b3WWxyxNcxzHIIAAAggggAACCCCAAAIItCZQGjf+yolXfuSsFGczCqABEgGABjjN3qrc/U+Spc2O430EEEAAAQQQQAABBBBAAIH2BMb/wR8sS5kCowDqQBEAqAOTZnfnUMf8KI660hzLMQgggAACCCCAAAIIIIAAAq0LxJ3jLu6cO3diihQYBVAHiQBAHZhUu+NoearjOAgBBBBAAAEEEEAAAQQQQKAtgTiOJ0163wfSrggggQI1XRvbcAECAMM1Mvw9deXad6iraUaGUzgUAQQQQAABBBBAAAEEEECgDYHSqa9OOxmg9HVf3UZWXp5KAKDFZo2j8tIWT+U0BBBAAAEEEEAAAQQQQACBFgTiUsf01978hbRBAAkAMApgmDMBgGEYaf+cdnf32eoymp/2eI5DAAEEEEAAAQQQQAABBBDQI9DxmimLUqbEKIBRUAQARoGkelli5v9UThyEAAIIIIAAAggggAACCGgWiMeMmTVl2acvTJksowCGQREAGIaR5k9Z+k+NIlmQ5liOQQABBBBAAAEEEEAAAQQQ0C8wdvpZaScDlD7vOP0lcDNFAgAZ242l/zKCcTgCCCCAAAIIIIAAAgggoFkg7uy8eOKVHzkrZbKnpjzO+8MIAGRs4jhi+H9GMg5HAAEEEEAAAQQQQAABBLQLjDv/gitTJjpGHTc+5bFeH0YAIEPzytJ/URzPznAKhyKAAAIIIIAAAggggAACCBgQKE2YkHYyQMmdUQAKgQBAhguRpf8yYHEoAggggAACCCCAAAIIIGBQII7jSRmWBGQUgGoLAgApL0iW/ksJxWEIIIAAAggggAACCCCAQE4CGZYElBIFPwqAAEDKCzPpYOb/lFQchgACCCCAAAIIIIAAAgjkIiBLAk667oaZKTMLfhQAAYCUV0oUJQtSH8qBCCCAAAIIIIAAAggggAACuQiMe8MbsswFEPRkgAQAUlySZ6xac1kcRTNSHMohCCCAAAIIIIAAAggggAACOQrEneMu7pw7d2LKLDvVcaekPNa7wwgApGjSUpnh/ymYOAQBBBBAAAEEEEAAAQQQyF1AJgOc8N75H8yQcbBzARAAaHKVMPlfEyDeRgABBBBAAAEEEEAAAQQKFhgzceLiDEWQUQAyH0BwGwGAJk1eHhPNb3IIbyOAAAIIIIAAAggggAACCBQoEJc6pk9Z9ukLMxTh1RmO9eZQAgBNmjJOoqVNDuFtBBBAAAEEEEAAAQQQQACBggXGnHVmlscAXqWK21FwkXPPngBAA/KpK9e+g8n/GgDxFgIIIIAAAggggAACCCBgiUBp3PgrM0wGKKUObhQAAYBGF2tcXtDobd5DAAEEEEAAAQQQQAABBBCwRyDjZICyJKC65xvORgCgTltPXr16kroSFtR5m90IIIAAAggggAACCCCAAAKWCWScDFD6w0GNAiAAUOeC7RzqmF/nLXYjgAACCCCAAAIIIIAAAghYKCCTAU667oaZGYomowCC2QgA1GvqOFpe7y32I4AAAggggAACCCCAAAII2Ckw7g1vWJShZLIcYDBBAAIANa6M01fd+1Ym/6sBwy4EEEAAAQQQQAABBBBAwHKBuHPcxRmLGMxjAAQAalwZpSRZWmM3uxBAAAEEEEAAAQQQQAABBCwXiON40mtv/kKWJQHHqirJSADvNwIANZo4TqL5NXazCwEEEEAAAQQQQAABBBBAwAGB0uTXZAkASI2CGAVAAGDUxXvGqjWXqYUgukbt5iUCCCCAAAIIIIAAAggggIAjAqWxY+dMvPIjZ2Uo7qvUsd4vCUgAYNQVESfx/FG7eIkAAggggAACCCCAAAIIIOCYwLjzL7gyY5G9HwVAAGDYFTF59epJDP8fBsKfCCCAAAIIIIAAAggggICjAqVTX531MQDvVwMgADDsYu4c6pjP8P9hIPyJAAIIIIAAAggggAACCDgqEJc6pk+67oaZGYrv/ZKAQcx0mLbB1QMf89Mey3EIIIAAAggggAACdgtceObUEQWcPmFCNH3CqSP26Xyx+YVdI5Lb/vLeaN/AwIh9vEAAgXwFxr3+v3ywL4puypCrjAI4lOF4pw71fpKDtK0x7e7us6OOaEfa4zkOAQSKEZh4yinRzNNeMyLzOWdOG/Fa54ud+1+Jdu7fPyLJx1/YPeI1LxBAAAEE8hWQjv3MKVOiSZ2nVDKWvyce//s1an9nvgVKmdu2l/dEz6vPle179lTOGP4ZQ7AgJSKHIZBRIEmSvt3XL35zxtN+p44fzHiOE4cTADjWTGes6v5EKYlWONFqFBIBzwTOUndjqndkhn+hu1B17GW/3LGxdave7dnXP3D8C13fsb/5Mmdrq1EuBBCwXaAa7JXPBPkcmHnalEqRbf9MaNe1r79ffZbsjR4/NpKg+nlC4LldWc4PXWDghef/as//vfyRDA4H1bFq4IB/G48AHGvTUjlZEMXEQ/y7xKmRLQLVL3PVu/VHX0+Jqq9tKWfWcgwv/8XnnH3S6dUvc/KGjCSQOz8SNJC7PvI3GwIIIIBAFMlngtzVn6U6+hL8Hf7/1pB8ZOSC1L1W/eUzRD4/HvzFr/gMCemioK5aBMa8ZsrFKqEsAYBx6vh96ifRUgCLEqHHqxqD4f8WXZEUxRuBmVNeUxmOuext56thmvYOxywSXL7MyRc5AgJFtgJ5I4BA3gKjO/u+39U35Tv8cQL5HGHUmSlp0vVFYO//+vKb+jdtkk592q1XHejdXAAEAFSrTlu55g5193+p+pMNAQRaEJAh/NLJr9654ctcC4jqlOpoARn6yZe51gw5CwEE7BOofkbIXW0ZKWXzY1326WUrkQQFZH6BDc8+px4j2M0EhNn4ONpzgSO9PZ99+dOf7M5QzSPq2JczHO/EoQQAVDNNvaf7WQUxw4kWo5AIWCAgd2/kS9zFM86O5IuddPzZzAjIl7lHdjwXyW++zJkxJlUEENAv8J4Zr6sMY6fDr982S4oy0kyCARJUfmTHb7OcyrEIeCeQDA5u233DtX+asWLeTQYYfADg9FX3vrUjSbZkvBA4HIGgBKrDNaudfltnVw6hUeRLnHyZkzs8DPcMocWpIwJuCEgwWILC1bv8bpQ6vFJWg8pHP0f2hgdAjYMXOLDxsd/f98BXn88A4d1kgMEHABj+n+Hy59CgBLh740ZzVwMCG9QoASYVdKPNKCUCvgjIo18ffON/ZVi/ow0qj53JZ0f31u2VlQccrQbFRiCTQAuPAZRVBi+pH28mAww+AMDw/0z/ZjjYcwGZgXnxW2ZVZmLmLr97jS1DPdeoL3IEA9xrO0qMgCsCdPpdaals5ayuMCAjA3hUIJsdR7sl0OJjAL2qlt5MBhh0AIDh/279g6W0+gUY2q/f1JYUq899yioDsqY0GwIIINCqgAzvv1Ld6Ze7/Uzg16qiO+fx+eFOW1HS1gRaeAxgUOUkcwF4sQUdAGD4vxfXMJVoQUDu9MsXOXlWky9zLQA6dop8mZNAwAPqh8cEHGs8iotAgQKL3jKz8lnBRK8FNkLBWcucAfL5wciyghuC7LUKtPAYgOTvzWSAQQcAGP6v9d8SiVkuwB0cyxsop+LJnAHyZU5+EwzICZ1sEHBIoPpZsext5ztUaoqah0D180M+Q9gQcFmgxccAvJkMMNgAAMP/Xf5nS9mzCMid/urd/izncazfAjL5kywr+NnN/0kgwO+mpnYIpBKQiV+vfOMbKhP6pTqBg4IVkM+Pmzb/qLIizb6BgWAdqLjbAi08BuDNZIDBBgAY/u/2P1pK31xAOv03z3l7xGR+za1CP0ImfXrgF79k4qfQLwTqH5yAzAOz+PeODvPncbDgmr/tCksgQEYDrPnZdgLJbWuSQN4CLT4G0KvK6fxkgCEHAJ6M4nh23hcb+SFgUkCGbi4+9swmHX+T0n6mzVwBfrYrtUJgtIB8Vix723nRxTPOJkg8GofXLQkQSG6JjZMKFCgfObL5xY9fd3nGIvSr452fWTnIAMC0u7vPjjqiHRkbnMMRsFagunzfxeecbW0ZKZg7AtW1oW/78ZPc1XGn2SgpAk0F+KxoSsQBbQrIpIHdakQA8wS0CcnpuQi08BiAlOsl9TOUSwENZRJkAOCMVd2fKCXRCkOmJItAbgLyzObi35tVmc0/t0zJKCgBuatz24+fYCnBoFqdyvomIB1/mdRPVn5hQyAPARlRtmbr9kowII/8yAOBVgRafAxgv8rrlVbys+WcIAMA6vl/hv/bcgVSjpYE5Pl+Gb7JM5st8XFSCwIy+7MEAmTiQDYEEHBDgI6/G+3kcymZMNDn1nW/bkl//4bdS/96YcaaDKrjZUlAZ7fgAgAM/3f2WqXgSoCOP5dB0QIEAopuAfJHoLkAHf/mRhyRr0B1RIA8GsDKAfnak1tjgV3XLTqz8RE1392j9jq7BEZwAYCpK7uvjuNoXc2mZCcClgrQ8be0YQIuFoGAgBufqlsrQMff2qahYMcEJBAg88swRwCXhC0CAy88/1d7/u/lj2Qsz0F1fF/Gc6w5PLgAwLSV3d+M4mi+NS1AQRBoICDP+Mtzm7NOm9LgKN5CoDgB5ggozp6cEagKyKz+n5vzBxETwVZF+G27gEwWKI+VPbLjt7YXlfJ5LlA+fOiBF2+84caM1Syr41/MeI41hwcVAJi8evWkceWOXmv0KQgCdQRmTnlNdPPcP2DCpjo+7LZP4IFf/LJyV+f5/U7Pi2MfLCVCoIHAxFNOqcwHI6PEWPq1ARRvWSsgo8lu2vSfTDRrbQv5X7AkSfp2X7/4zS3UtFedc6iF8wo/JagAwBmr1lxWSuL1hatTAATqCMhdnMVvmVmZ2b/OIexGwGoBuaMjMz/zjKfVzUThPBBYpD4rZDJYOv4eNCZViAgicxEUKXBw60/f3XfPXdszluGwOr4n4zlWHB5UAGDqPd1fVhVeYIU8hUBgmIDcxVn8ezMj+ULHl7lhMPzppEB11mee8XSy+Si05QIyQuyOi/6YR8MsbyeKl11APjtkfoDun2Xth2XPizMQGC5QfuWVNS9+culNw/el/FuWRkpSHmvNYUEFANTz/z3q+f8ua/QpCAJKQJ7z/5wa7s+SflwOvgnIM543PvYfDO30rWGpTyECPOdfCDuZFiAgEwUuVZ8dLDtbAH6gWSaDg9t233Dtn7ZQ/V51jnOPAQQTADh91b1v7UiSLS00LKcgYESAL3NGWEnUQgGZKFC+zPFYgIWNQ5GcEGC4vxPNRCE1C8hjATdt+hGfHZpdSa62wIGNj/3+vge++nztd+vuPaLeebnuu5a+UbK0XNqLVUqY+V87Kgm2LCDPbf7/PnIlMza3LMiJLgnIzOQ/+sgHK6NdXCo3ZUWgaAEJFH/tfZdWRonxeFjRrUH+eQtc+cY38NmRN3rA+Z0ye/bFLVR/rDqno4XzCj0lmABAnJTnFypN5ggoAVmj+d8vn19Z2g8QBEISkM7Lly9+d7T2Pe+K5BlmNgQQaCxQDRTPOXNa4wN5FwGPBYZ/dkhAjA0BUwJjxr9qTotpd7Z4XmGnBfEIAMv/FXZ9kfExgepSTYt/bxYmCCCgBGS1AJnsiQ0BBEYKMMnfSA9eITBcgM+O4Rr8rVtg13WLzmwhTeceAwgiADB1ZffVcRyta6FBOQWBtgXkrv8KNWMzk/y1TUkCngkwSaBnDUp12hKorgaz7G3nt5UOJyPgu4B8dix85NHo+f2v+F5V6pezwMCvf/OBPbf9/eMtZPuSOmeohfMKOSWMRwDiaF4humQavMDNc94eff19f0bnP/grAYBaArNOm1J5vlkmOGNDIGSB6rP+dP5Dvgqoe1oB+ez4rnqc8oNv/K9pT+E4BFIJdJz+2lYfAxifKgNLDgoiABAzAaAll1s4xZAhnPKsP0P+w2lzatqagDzfKctgykRnPN/ZmiFnuS0gATDpzEinhg0BBNIJyGeHjK6846I/imT0DBsCOgRKr3rVe1pMx6kAgPePALD8X4uXMae1LCATN3EXp2U+TgxYoK+/vzIvQPfPtgesQNVDEZBOi3RgZJUMNgQQaF1g5/79laVmH39hd+uJcCYCxwT2/q8vv6l/06Z9LYD8Tp0z2MJ5uZ/i/QgAlv/L/ZoKNkP5MscM/8E2PxXXIFAdDSCPznBHRwMoSVgrIHPDyNKYdP6tbSIK5pCAzLEkj1vKDRg2BNoVmPinl7ayHKBk68xQFO8DACz/1+4/A85PI1D9MscQzjRaHINAYwF5dOa7V8xnucDGTLzrqIB0UqSzIgEvNgQQ0Ccgoy95nEyfZ6gplSZOvLDFur+qxfNyP83rRwBY/i/36ynIDOVuJc/6B9n0VNqwgDwScNPmH0UP/uJXhnMieQTMCzDk37wxOSAgAvLZIasE8EgA10MrAkl5aOfuv17y9lbOVec4sRqA1yMAOoc65rfYeJyGQFOB6qzNdP6bUnEAAi0JVCd5Wvued/FIQEuCnGSLgEwMK6NaGPJvS4tQDp8F5LNDRtmwwozPrWyubnGpY/qk625odXkiJ4Z2eR0AiFj+z9y/jsBTliH/MmvznDOnBS5B9REwLyCdJhnWKZ0oNgRcE5Clyr57xZ+zHKxrDUd5nReQFWYIIDvfjIVUYOzrXuf1YwB+BwCiaF4hVw2Zei0gEWWe3/S6iamchQIyv4YEAd4z43UWlo4iIXCygAz5lyXKZKZ/NgQQKEaAAHIx7q7n2vHqU1udCHCsqnuH7fX3dg6AaXd3n634d9jeAJTPHQH5Mnfz3LdHV77xDe4UmpIi4KHAbT9+orJcoIdVo0qeCMjnxdqL38UoMU/ak2q4LyDzAlz+bw9F2/fsdb8y1CAXgV3XLTqzxYz61HkHWzw3l9O8HQGQlLj7n8sVFEgm8mVO7j7S+Q+kwamm1QIy07PcWZV/l2wI2CZQfd6fR8RsaxnKE7KAzAsgj+LIIzlsCKQRmPK3y9+T5rgax4yrsc+qXd4GAHj+36rrzOnCyJc5Wa+ZJf6cbkYK75mABONY7smzRvWgOjI/jFyXsi45GwII2Ccgj+TI6k1sCDQTGDOxa06zY+q8b/1EgN4GAOIkml+nUdiNQGoBed5YIsas15yajAMRyE1AgnJfZ3LA3LzJqLGA3FlkfpjGRryLgA0CsnqTTA7IhkAjgfhV41udB0CStXqIopcBgNNX3ftWNQKgq1Gj8h4CzQRksr8vX/zuZofxPgIIFCggd1qZHLDABiDrioDcUWSyPy4GBNwRkMkB/12t5sSjZO60Wd4lleUAJ175kbNazNfqxwC8DADEUTKvxcbiNAQqAvJ8sSwfw4YAAvYLyAgdCdbxbKf9beVjCeXzQu4osiGAgFsCMorsu1fMj86acKpbBae0uQl0nntuq48BMAIgt1Y6llGpzASAeZv7kh+T/fnSktQjRAG5AyudMTYE8hDg8yIPZfJAwKyAjCL7rhoJIPM9sSEwWqA0ceKFo/elfG31coBejgBQDTMvZeNwGALHBapf5pi5+TgJfyDgnIBMDkgQwLlmc67AfF4412QUGIG6AtUVAmQSTzYEhgvEY8bOHP4649/WjgLwLgDA8/8ZL00OrwhUv8wx0z8XBALuC1RXCJB/12wI6BaQ4cIybJjPC92ypIdAsQIyiadM/syGQFUgHjNmVhvzAFj7JcS7AADP/1cvWX6nFWCZv7RSHIeAOwIykkcmByQI4E6buVBSuZ5k9nCW+XOhtSgjAtkFmE8mu5nvZ4x9w39tdRSAtRMBehcA4Pl/3/8Z6q2fdP6lk8Ayf3pdSQ0BGwTkDq38+2aCJxtaw/0yMFLM/TakBgikEZD5ZJhUNo1UGMeMmdjV6kSA0s8eY6OSdwEAhTzPRmjKZJ8AnX/72oQSIaBbQIIAX2ckgG7W4NKj8x9ck1PhwAUkCLDsbecFrkD1KwKdna2OAJDTrRwF4FUAYNrd3WdHcdRVaSz+g0ADAZnohTv/DYB4CwGPBGS4No8DeNSgOVeFzn/O4GSHgCUCy952PkEAS9qiyGKUxo5tdQSAFNvKeQC8CgAkJe7+F/kPxJW8ZYIXeYaTYf+utBjlRKB9gerjANKZY0MgrQCd/7RSHIeAnwISBFj0lnZuAPvpElqtpiz7dKvLAXYqq9g2L68CAIp3nm3AlMcuAbnzL8O66Pzb1S6UBoE8BAgC5KHsTx5MEOtPW1ITBNoR+NzcP2BOgHYAPTi34/TXejUKwKsAQJwksz24xqiCIQH5Msedf0O4JIuAIwIEARxpqIKLyRwxBTcA2SNgmQATA1rWIDkXJx4/vtURAFJS6+YB8CYAMHn16klRHM/O+XogO0cE+DLnSENRTARyECAIkAOyw1nweeFw41F0BAwKEAQwiGt50vGYMe08B2Lds4feBAA6h8bOtvzaoXgFCfBlriB4skXAYgGCABY3ToFF4/OiQHyyRsABAYIADjSSgSLGcTxp4pUfOavFpGUpwI4WzzVymjcBgChO5hkRIlGnBfgy53TzUXgEjAoQBDDK61zifF4412QUGIFCBAgCFMJeeKad557bzjwAMhmgNZs/AYCIAIA1V5UlBeHLnCUNQTEQsFiAIIDFjZNj0fi8yBGbrBDwQODmOW+P5P8bbOEIlF716nYeAyAAYOJSiZNotol0SdNNAVm6ae3FLPXnZutRagTyFSAIkK+3bbnR+betRSgPAvYLyGpSX3vfpQQB7G8qfSXs7GwnAGDVPABejACYdnf32WoJwC59LUxKLgtU122ePmGCy9Wg7AggkKMAQYAcsS3Kis6/RY1BURBwTKAaBJDvnWz+C5TGjm3nEQDpc8tcAFZsXgQAklI0zwpNCmGFgERk5cs8GwIIIJBFgCBAFi33j6Xz734bUgMEihYgCFB0C+Sb/6TrbvBiFIAXAYA4Smbn2/zkZqvA2ve8i86/rY1DuRBwQIAggAONpKGIdP41IJIEAghUBKqfG3D4L3DK1KntBACsmQfAiwBAEsez/b/kqGEzgTsu+qPo4nPObnYY7yOAAAINBapf5hjW2ZDJ2Tfp/DvbdBQcAWsF5HNDvoey+S3Q5kSA1jwr4kUAII54BMDvf27Na/fBN/7X6Mo3vqH5gRyBAAIIpBAgCJACycFD6Pw72GgUGQFHBOR7qKwOwOaxQHsTAUq/24p5AJwPAJy+6t63enyZUbUUAtL5lzVZ2RBAAAGdAgQBdGoWnxad/+LbgBIg4LvA4t+bFcn3UjY/BdqcCFBQrBgF4HwAoFTm+X8//4mlq5V8oSPams6KoxBAILsAQYDsZjaeQeffxlahTAj4KSDfS+X/OWx+CrQ5EaAV8wA4HwBgAkA//3GlqdVZE06N1l78rkhmYGVDAAEETAkQBDAlm0+6dP7zcSYXBBA4KlBdGUC+p7L5J9DmRICMANBxSTABoA5F99KQyblkxv/pEya4V3hKjAACzgkQBHCuySoFpvPvZrtRagRcF5AggHxPZTJZ11vy5PLH48ZPP3lv6j1y873weQDcHwGQRLNTk3OgNwI3z307y/1505pUBAE3BAgCuNFO1VLS+a9K8BsBBIoQkM8M+b7K5pdAPH78hW3WaGyb57d9utMBgGl3d58dxVFX2wok4JTAorfMZMZ/p1qMwiLgjwBBADfaks6/G+1EKRHwXUBWBmBSQL9aOR4zZmabNSr8MQCnAwDlMUwA2OYF6NzpF545Nfrc3D9wrtwUGAEE/BEgCGB3W9L5t7t9KB0CoQnISlXy/ZXND4E4jidNvPIjZ7VRGwIAbeBFcVKa3c75nOuWQGXSP/U8FRsCCCBQtABBgKJboHb+dP5ru7AXAQSKFWA+gGL9dec+9qzXtTMPgMwBEOsuU5b0nB4BECeMAMjS2C4fW530jxn/XW5Fyo6AXwIEAexqTzr/drUHpUEAgRMClUkB1cpVbH4IdJz+2jlt1qTQUQBOBwCiKJnRJj6nOyLApH+ONBTFRCAwAYIAdjQ4nX872oFSIIBAfYE5Z06Llr3tvPoH8I4zAvEpY9t5BEDqWega5m4HAOJ4tjNXCgVtWeA9M17HpH8t63EiAgiYFiAIYFq4cfp0/hv78C4CCNgjsOxt50fy/yw2twXiMWPbnQiw0KUAnQ0ATF259h1uXzqUPo2APPcvk6ewIYAAAjYLEAQopnXo/BfjTq4IINC6wFr1KIA82srmroBaCWBWm6VnBEBrgOUZrZ3HWS4JyKQpPPfvUotRVgTCFSAIkG/b0/nP15vcEEBAj8D0CRO4uaWHstBUJl13g7OjAJwdARDF8YxCW53MjQvIc1LyhZoNAQQQcEWAIEA+LUXnPx9nckEAATMCF59zdiSPuLK5KzDmtCntzgNQ2DAQdwMAUTLP3UuGkjcTkPVS5TkpNgQQQMA1AYIAZluMzr9ZX1JHAIF8BOQRV3nUlc1NgY5TJ7b7GMDYomrubABALQHYVRQa+ZoVkOeieO7frDGpI4CAWQGCAGZ86fybcSVVBBDIX0AeceX7bv7uunIsdXa2+wgAAYDMjcEKAJnJXDlB/mcoz0exIYAAAi4LEATQ23p0/vV6khoCCBQvIEsDLnpLu/3I4usRYgmSUmlim/UuLABQ6BIEraKdvuret0ZJ0urpnGexgDwPJc9FsSGAAAI+CFSDAJf/20PRvoEBH6pUSB3o/BfC7lWmfYcORdt27a7U6bc9PdHOnt7K39t27Yr6Dh1uua6Txo+LZk2bVjl/+uSu6HWTJ1f+njVtajRp/PiW0+XEcARkzqsNO56Lnt//SjiV9qCmpbFj52iohswDkPuXg1hDwXNPQpYAjOPyxtwzJkOjAjL0/0cf+SCz/htV9ifxEV/gXlBf4A4f/QK36Zln26okX+ba4uPkOgLbXt4TEQSog9NkN53/JkC8PUKg+hkgv6VzLx39asd/xIE5vZBAgAQGJEgw9/XnVHKt/s6pCGTjgMBm9T1GPiPY3BI4sPGx39/3wFefb6PUfercg22c39KpbgYA7rn3pjhKlrdUY06yVuCOi/4ouvKNb7C2fBQsf4HqHRu5OyNf5Co/L+yOdvb25l+YYznyZa4weuczJgiQvQnp/Gc3C+kMCQRvU58J8tlwtMO/O9p3LBhss8P0rq5KUEACARIYmKUmPq6OHLC53JTNrMBfbfhu9MiO35rNhNS1Cgz8+jcf2HPb3z/eRqLS+ZcgQK6bkwGAaSvX3KGWAVyaqxSZGRWQWf+//r4/M5oHidsv8DMVAT/a0Vdf6Cp/82XO/lajhFkECAKk16Lzn94qlCOrHf6Hn3r6+GeFL3Wfc86MShDgqgvUEsg8PuBLs2aqR19/f/T2rz7I42KZ1Io9+Ehvz2df/vQnu9soxRF17sttnN/SqU4GAKbe0/2YKvi8lmrMSdYJyND/714xn4n/rGsZ8wWSDr8Mz7z/iScqd3GKvLOvu7Z8mdMt6k96BAGatyWd/+ZGoRwhnf77f/JkpcP/8FM/D6Xa0VXnHw0EXDLzzYwOCKbVo+iBX/wyuvGx/zegGrtd1aF9+2576f/877e1WYtdbZ6f+XQnAwDTVnb3RHHUlbm2nGClwM1z3h4t/r12l9K0smoUqoaADNOUn6N3cI5OyFTjMO928WXOuyZtq0Jyp0ee99y+Z29b6fh4Mp1/H1s1W50kOCyfEfJZsfnZHdlO9vDoS859U+VRARkdwKMCHjbwqCp94N++Ez2uHm1hs1+gfOTI5hc/ft3lbZZ0jzo/14kA3QwA3NPNEgBtXmm2nM7Qf1tawmw5Htp+dLim3MXx6S5/q2p8mWtVzq/zCAKc3J50/k82CWWPzPnykOr0f2nT4+puP52feu0unx9XnX9+dKkaGcDmp8DO/fsrjwL4WTu/apUMDm7bfcO1f9pmrfrU+blOBOhcAECWAOxIki1tQnO6JQJfe9+lkayByuafQHXYJp3+xm3Ll7nGPr6/SxDgRAvT+T9hEdpf//KTJ6JbH32MAHGGhpfHzD71rnceX1kgw6kc6oDAZzf9Z9T9s+0OlJQi7rpu0ZltKhxQ5+9rM41MpzsXAGAJwEzta/XBi94yM/rc3D+wuowULruA3MWRTv9nvvNw9pMDPoMvc+E2PkGAKKLzH971X/2sWK3u+DMyrPX2lwkDPzr3wuhDF5zfeiKcaZ2AfC4wIaB1zVKzQBqWAuxXCef6PKB7AQCWAKx58bm2Uyb++9FHPhhN6ux0reiUt46A3PGXL3LS+XdhGaY61Sh8twQC5DlPvswV3hS5FiDkIACd/1wvtcIzq44Ou/V7jxVeFp8KMHHcuOhTf3JR5fNj0vjxPlUt2LowIaAbTa9hKUCpaK4TARIAcOPa8q6Ud1z0R9GVb3yDd/UKsUIyWdOt3/u+mrDp5yFW31id5cvc5997SXTpuW+O+DJnjNmqhEMMAtD5t+oSNFoYueN/i+r0EyQ2yhzJZ8cSNSJAfvjsMGudR+rv/tdvMllsHtBt5KFhKUDJ/SX1M9RGMTKd6mAAgCUAM7WwhQfLF77vXvHnFpaMImURkLs4n/n2Q3T8s6C1cOz0rq6jX+b+cE4LZ3OKawIhBQHo/Lt2dbZe3lse/X5lhBijw1o3zHomnx1Zxew8frO6ySIrxrDZK6BpKUB5BEAeBchlIwCQCzOZDBdg4r/hGu79LXdxPvPth6P7n3jSvcI7XGL5Mvf5917KzM8Ot2HaoocQBKDzn/ZqcPs4mdxPPi/o+BfXjvLZcdcV72eywOKaoO2cWRawbUKjCST9/Rt2L/3rhW1msl+d/0qbaaQ+3bkAwDSWAEzduDYeyLJ/NrZKujJJx1+e8ee5zXRepo6SCZ8kEDD39eeYyoJ0LRDwOQhA59+CC8xwETY982wkd/03P7vDcE4kn1ZAVpz55J+8M3oLKy+lJbPmuG0v74n+9GvrrSkPBRkpUD5yZPOLH7/u8pF7M786rM7oyXxWiyc4FQCYvHr1pHHljt4W68ppFgjIxH/TJ0ywoCQUIYsASzRl0crn2KvOPy/65Lsuil43eXI+GZJL7gI+BgHo/Od+GeWaYfU5/y+pYDGbnQKfVBMFyvKBbG4JLH3sP6IHf/ErtwodUGk1LAV4RHG9nBdZKa+MdOTTOTR2to50SKMYgQ++8b/S+S+GvuVc5Tn/y750b/Txr32TZZpaVjRzojyCcdGdK6PVP9xsJgNSLVxAVkmRR6ak0+zDRuffh1asX4eHtj8dzV+zNqLzX9/IhndkFN9Fd/5TJKM02NwRWPa289wpLCVtRWBsKye1eo5TAYBWK8l5xQvIsn/8z6v4dshSAulYSgeTIZxZ1PI9Vp6r/cx3Hq4EaWQ1Bjb/BHwJAtD59+/arNZI7vrf8K/fiK7+X/8cbdu1u7qb3xYLSDtJsOZv1ES+0n5s9gvI6Fm5kcZmp8CUZZ++UEPJxmhII1USbgUA4mReqlpxkHUC3P23rknqFkju+svdAelYMnFTXSar3pAgzTvvWll55taqglEYLQKuBwHo/Gu5DKxMRAKPEihmUlgrm6dpoWS0hrQfAeSmVFYcwI00K5rBZCE6TCY+PG23AgDDS87fzghw99+ZporkWX/5MsBdHHfabHhJq0M7JYjD5peAq0EAOv9+XYfDayOjxOQu8s7e3uG7+dsxAWk/aUceJ7O/4WQUwDWMArCyoTpOf62OtZpzewzAsQAAIwCsvOqbFGrx782M5Msrm70CMgRQhgLKs/7c9be3ndKUTII3EsSR53HZ/BJwLQhA59+v669aG/m8kLlhGCVWFXH/d/Vxsr+876s8EmB5cy6e/ZZo8OXc5oqzXMO74hEA8K5JA62Q3P1f9JaZgdbejWpXh3AycZMb7ZWmlPJlTp7Hledy2fwScCUIQOffr+uuWpvq5wVzw1RF/Pr98FM/r4wG4JEAe9tVVv65Uo0CIAhgVxuVOjt1dHZyW53PqREAcRLNtqu5KU0zAe7+NxMq9n0Z8s8QzmLbwGTuR1cK+KeIRwJMKueftu1BADr/+V8TeeRYneWfIf95aBeXR3WCQEaRFdcGzXKWJYCTA68QBGgGleP7Sak0UUN2uQ2XdioAEMVRlwZckshJgLv/OUG3mM0tj36fIf8t2rl0WvWRAJZ8cqnVmpfV1iAAnf/mbefiEfJ8uIwq4hExF1sve5mro8iYFyC7XR5nyCiAq84/jyBAHtgp84g7StNTHtrssFwmAnQmADDt7u6zm4nxvl0CMvO/fElls09AnvOTCePYwhCQL3N/ed8/VyZ5DKPGYdTStiAAnX8/rzv5vJDn/dnCE5B251EyO9v9qgvOqxSMkQB2tE9c6iAAYKIp1NCKGSbSJU1zAjL8n80ugeoSf/KcH1tYAhIEkEkeZbJHNn8EbAkC0Pn355qq1qQ62R+fF1WRMH/Lo2Qy6aNcD2z2CMx9/TnRnHNmVApEEMCOdumcO1fHYwBj8qiNMyMA8sAgD30Ccvdfliths0dAJvWZ/6W1LPFnT5MUUhKZ7FHu6PBlrhB+I5kWHQSg82+kWQtNVP7/IPPDMNlfoc1gTeZyHcj1wOeGNU1SKUh1FIC8IAhQfNuc+gd/rOPOZy5981wy0dIkMUsAanHMKRFm/s8JOmU2lc4/6zWn1PL/MLmjI48E8GXOn7YuKghA59+fa6hak2rnX+YPYUOgKlCdHJDPjapI8b8/dMH50fSuruMFIQhwnMLlP07Jo/DuBADy0CAPLQIXnjk1mnXaFC1pkUj7AtXOP5M3tW/pUwrc0fGpNY/WJe8gAJ1//66ho4+JrWSkmH9Nq6VG1UllWVlGC6eWRGRFgOEbQYDhGvn+HZ/2GkYA6CdPZuhPkxRNCMjwfzY7BKrLNtH5t6M9bCsFX+Zsa5H2y5NXEIDOf/ttZVsK0qmTx8RY5s+2lrGrPHJ9yHVCEMCOdrn03DdHE8eNG1EYggAjOHJ7USp1TNKQ2VgNaTRNwqURADOa1oYDCheQpf+ufOMbCi8HBYgi6fzf8LVvsGwTF0NDAb7MNeRx8k3TQQA6/05eFg0LLcO6r1aPBdH5b8jEm8cE5DqR64XHAYq/JCaNHx9JEGD0RhBgtIj513GppGMSQClobLq0LgUATFuQvgYBZv7XgKghCRn2T+dfA2QgSfBlzr+GNhUEoPPv37UiNZIJ3njm38+2NVUr5gQwJZs93Y/OvbDmSQQBarKY29nZqeMRACmf8VEAzgQA4iSaba7FSFmXAMP/dUm2ng7P/LduF/KZfJnzr/V1BwHo/Pt3jUiNZFUQOv9+tq3pWvG5YVo4XfpvOXNaNGva1JoHEwSoyWL7zg7TBXQmAKAGQ3SZxiD99gRY+q89Px1n0/nXoRhuGvJlTlYHYPNHQFcQgM6/P9fE8JpI519WBWFDoFUBggCtyuk9r94oAMmFIIBe63qpxR2l6fXey7ifAEBGMA4vUODiGWcXmDtZ0/nnGtAhIKsDSKeAzR+BdoMAdP79uRaG12T1DzfT+R8Owt8tC1SDx8wJ0DJh2yfWmgxweKIEAYZrmPk7LnUQANBJe/qqe9+qMz3S0i9w1oRTo4vPIQCgXzZditUJnJjtP50XRzUWkDuCBAEaG7n2bqtBADr/rrV0uvL+y0+eiD7znYfTHcxRCKQQkODxZ77NNZWCysgh9SYDHJ4ZQYDhGlb/zQgAaZ5SOe6yupkoXMTd/+IuAun8ywROzN5cXBv4mDNBAP9aNWsQgM6/f9eA1Eg6/x//2jf9rBy1KlSAz41C+aNGjwFUS0YQoCph5vfEKz9yloaUmQRQAyJJ5CDA7P85INfJQmb7l+F3bAjoFuDLnG7R4tNLGwSg8198W5kogTwqxl1aE7KkWRWQzw0JMrHlLyCTAU7v6mqaMUGApkQtHzD2rNfpeAzA+Bx9Y1quYY4nJqXybLUKAJulAvJFcfqECZaWzu9i/c23H4oefurnfleS2hUqIF/mZLvrivcXWg4y1ydQDQJc/m8PRdv37D0pYTr/J5F4sYN5YrI1o3Skpk/uqnnSzp5eRt3VlDm6U0aYvG7y5Gju689pcBRvmRC4ZOaboy9terxp0pUggDpqzGmnNT2WAwoRkD76oKmcnQgAxIk8AkAEwNRF0G66LP3XrmBr58sETmn+J99a6pyFwAkBggAnLHz5q14QgM6/Ly08sh50/kd61HolHX7psF51wXmpO66bnnk2uv8nT0bym8fwRqrKijKPffz6SiBg5Du8MimwZO6Fqb8bEgQw0BKv6pyoKVWjowCcCABogiQZQwJM/mcItkGy8mWDCZwaAPGWdgGCANpJC09wdBCAzn/hTWKkAHT+G7PK+uny7LTMoi4TqWXZJGAgPzIXz0NPPR3d+uhjBAKOAcqkxFerIMD6xQszu2ZpA44dKSAjL+SaTvtoKEGAkX7tvuo4deIslcYj7aajzjc6EaDR6IKGyleSiJNyl660SEevAMP/9XqmSe23PT2s1Z4GimO0C0gQgNUBtLMWmmA1CCAjub72vksjec3mjwCd/8Zt+ck/uUjdpf7r6EMXnN9WJ1UCB5KG3PFOMxFb41L58650QplzIv/2vOr88zJlypwAmbjyOpgAQBLHs/PSJp9sAot+b2a2Ezi6bQHpgLHcX9uMJNCiAEGAFuEsPk06/Ssu+mM6/xa3UStFo/NfX03ukP7kU/89+tS73ln/oBbekUDAF957aeWu98Rx41pIwb9T5DODSQHzbVeZByDrJkGAoX37sp7G8eYEjN6kN5q4ORNStkWA5f/ybQmZ9E/W2mVDoEgBggBF6pM3As0F6PzXN5Jn/WVYugyVNrXJYwGSB9tRARkFINckWz4C1ccAsuZW7tkblV95JetpHD9MIB4//sJhL9v50+hj+gQA2mmawM+98Myp3DHK8RqQ5/6Z9C9HcLJqKEAQoCEPbyJQmACd//r0clf+K3/x4baG+9dPfeQ7siTbnZf/+cidgb6SUYsfV0sWs+UncIma06KVbWjPywQBWoFz7BxXAgAzHHMNorjc/c+vmWWCIZlRlw0BmwQIAtjUGpQFgahyl3X+mrU8JlbnYvifqvMvHfO8NpkX4PN/dkle2Vmdj8wHIKMY2fIRaDUAIKUjCJBPGzXJxeiEPE4EAOIomtEEibcLEGD2//zQb1CRc577z8+bnNILEARIb8WRCJgU4M5/Y12ZnE+G5ue9LfnDOdEl574p72ytzE9GMfIoQD5NI4Euedyl1Y0gQGtycRzrWgawtQKkPMuJAEDKunBYjgLM/p8f9kPbn44efurn+WVITghkFCAIkBGMwxHQLEDnvzGoDP3/lJrxv6jt82piQCYFPKrPowD5XYWtTAY4vHQEAYZrpPs7HjNGlgHUtRlbCYAAgK4mCiydC3McQhcY7YjqytB/ufvPhoDtAgQBbG8hyuerAJ3/5i37+fdekstz//VKIpOyLVEjENiiyvr0tzz6fShyEJh7TvsjXggC5NBQ9bMINwAw7e7us+u78E5RAgz/z0f+lu89xtD/fKjJRYMAQQANiCSBQAYBOv/NseTOuzyLX/QmAQBGARxthVvVd5vf9vQU3STe539pC8sB1kIhCFBLxe191o8ASEqlGW4T+1f6iaecEs1hBIDxhpUvdsz6b5yZDDQLEATQDEpyCNQRoPNfB2bU7qsuOG/UnmJeTho/Prq0xZnZiymx2Vxv+FdGN5oVPpr6nHNmaMmGIIAWxqyJnJL1hLTHWx8ASFsRjstPgLv/+Vhfzaz/+UCTi3YBggDaSUkQgRECdP5HcDR8cdX5dgQApJC2BCMaguX05uZnd0SyvDGbWQGdQSeCAOnaasqyT1v/vA8BgHRtyVHDBC48c+qwV/xpQmD1DzdHO3t7TSRNmgjkIkAQIBdmMglQgM5/tkbPc9m/ZiUrYhWCZmUq8n0ZBSBzHbGZE5ijeeULggDm2qpGysb66cYSrlEJdnkiwPB/sw0pH4by7D8bAq4LEARwvQUpv20CdP6ztYiu4c/Zcm18tI1lalxic+/KjY7VamlANnMCEgDTPfcEQQBz7TUq5TGjXmt76UAAoDxDW21JqG2BsyacGk2fMKHtdEigvoB8GO47fLj+AbyDgEMCBAEcaiyKarUAnf/szSOz79u22VimIo3kOw+jAMy2wNzXz9CeAUEA7aS5Jmh/ACCO9V+1uRL7lRl3/822p8yKK7PjsiHgkwBBAJ9ak7oUIUDnvzX16ZO7WjvR4Fk2lslgdZsmLTc8GAXQlKmtA3QsB1irAAQBaqmofa/qnFjnnay7w10GMKsUx5sV4Pl/s763Pkrn36wwqRclQBCgKHnydV2Azr/rLUj5mwkwCqCZUHvv654HYHhpCAIM1zj6d8epE2edvLelPSE/AtASGCcZEmAEgCFYlazc/ZdOEhsCvgoQBPC1ZamXKQE6/6ZkSdcmAUYBmG0NE/MADC8xQYDhGm78bf8jAG44BlHKiaecwvP/Bluau/8GcUnaGgGCANY0BQWxXIDOv+UNRPG0CjAKQCvnSYnNmmZ2BS+CACeR69ph5DEAAgC6mieAdBj+b66RuftvzpaU7RMgCGBfm1AiuwTo/NvVHpTGvACjAMwa57EEJUEAI20YagAgmWGEk0QzCzD8PzNZ6hOYACc1FQd6IkAQwJOGpBraBej8ayclQUcE7v8Jj0GaaqpZ06aZSnpEugQBRnBY+8KFEQAzrNULrGAzT5sSWI3zqa4sf8OHXj7W5GKXAEEAu9qD0hQvQOe/+DagBMUJ7Oztjf7lJ08UVwCPczaxFGA9rtCDAPEpY8+qZ2PLfhcCALZYBV8ORgCYuQQeeurpSIa+sSEQogBBgBBbnTrXEqDzX0uFfaEJcEPETItPGj8+mt7VZSbxGqkGHQToGDO9Bkmru05p9cRG5xEAaKTDe8cFZk55zfG/+UOvAJP/6fUkNfcECAK412aUWK8AnX+9nqTmrsDmZ3dE8u+BTb/ArDPNTgQ4usRBBwFGY1j2mgCAZQ1ia3EY/m+mZR7a/nQkQ97YEAhdgCBA6FdAuPWn8x9u21Pz2gJf2vR47TfY25ZAXvMADC8kQYDhGvb8TQDAnrawuiSMADDTPA+r4f9sCCBwVIAgAFdCaAJ0/kNrceqbRkAejWTTL5DHSgC1Sk0QoJZK6n2hrgKQGogDDQowAkA/bmXyvyeY8Va/LCm6LEAQwOXWo+xZBOj8Z9Hi2JAEZF4kJgPU3+LTJ3fpTzRligQBUkKdfBgBgJNN2JOXACMA9EsT4dZvSop+CBAE8KMdqUV9ATr/9W14BwER2PzMDiA0C7xu8mTNKWZLjiBANi+TR/MIgEldT9KeeMop0aTOTk9qY081GP5vT1tQEvsECALY1yaUSI8AnX89jqTit4B8BshISTa9AnPOmaE3wYypEQTICGbocOsDAHEUzTNUd5JNKTDztNekPJLD0gr8tqcnevipn6c9nOMQCFKAIECQze51pen8e928VE6zwCZGAWgWjaKiRwFIhQgCZGrWsZmOTnmw9QGAlPXgMIMCM6dMMZh6mEk/rGb/Z0MAgeYCBAGaG3GEGwJ0/t1oJ0ppj8D9TzxhT2E8KUmR8wAMJ/Q5CFAaO3bO8Lq2+beRvrqRRNusKKdbJjB9wqmWlcj94mx69ln3K0ENEMhJgCBATtBkY0yAzr8xWhL2WIARAPobt6iVAGrVxOcgQK362rSPAIBNrWFpWVgBQG/DyDNtDP/Xa0pq/gsQBPC/jX2tIZ1/X1uWepkWkNUANj3DDROdzhPHjdOZXNtpEQRom7ClBAgAtMQW1kmMANDb3sz+r9eT1MIRIAgQTlv7UlM6/760JPUoSoAAgF75t5w5TW+CGlIjCNAU8ZSmR2Q8gABARrAQD58+YUKI1TZWZ5a2MUZLwgEIEAQIoJE9qSKdf08akmoUKsCKSfr5p3d16U+0zRQJArQJmPF0AgAZwUI7/MIzp4ZWZeP1JZptnJgMPBcgCOB5A3tQPTr/HjQiVbBCYNuu3SwHqLklbJkIcHS1CAKMFjH3mgCAOVtSRuAkAVn+b2dv70n72YEAAtkECAJk8+Lo/ATo/OdnTU5hCDAZoN52tmEpwHo1IghQT0bvfgIAej29S22Ohc8KuYzM3X+XW4+y2yZAEMC2FqE8dP65BhDQL7Bt1y79iQacoq0jAKpNQhCgKnH895jjf2n6gwCAJkiSQSCNAM//p1HiGATSCxAESG/FkWYF6Pyb9SX1cAW4eaK37SdZthJArdoRBBihor2/rj3BEcXlhfMCM6dMcb4ONlWAKLZNrUFZfBEgCOBLS7pbDzr/7rYdJbdfQOYBYNMnMMuR0b0EAfS1+eiUCACMFuH1CIGJndpXnhiRfmgv+BALrcWpb14CBAHykiaf0QJ0/keL8BoBvQL7Dh+OZA4ltvAECAKYaXMCAGZcvUl1+oRTvalL0RVhCFvRLUD+vgsQBPC9he2rH51/+9qEEvkpsO0FRgHoatm5rz9HV1K5pEMQQD+z9kkF9BeRFIsUmD5hQpHZe5X3thf8n8RG1pYdPrmMax8yrl9ww4NMO3t6g1xxQoIAst11xftdb07Kb7kAnX/LG4jieSUgj1BeOvPNXtWJyqQXkCCAbKVTg7wx2ZFeKt2RBADSOXEUAm0L9KkhbL5t0uGXTv5VF5xX+e1b/XyojwQF7v/Jk5H8DmUJSoIAPly5dteBzr/d7UPp/BOQoDZb2AIBBwEIAIR96edb+7MY/q8VfPjdWa0JF5DYrGlTo4/OvTC69Nw3R5PGjy+gBGSZVkACNPLTd+hQ9NBTT0e3PvpYEIEAggBprxCOyypA57+x2EQ1w7h8RlQ3mXCsqFnHbRyFZrpMcqe879DRGw7y7Lwvcw8xB0D1X5Se33IDx8WbAgEHAfQ0/LFUGAGgldOvxHj+X297ygexD9sn/+Si6FPveqcPVQmqDhKo+dAF51eCNrd877HoS5se977+BAG8b+LcK0jn/2Ry6fDPff2M6Krzz6/8Jih8stHwPdWg7PB9pv+W6/ZhFQCWH1cDApuf3WGaKaj05XFNFwMA0kgEAdq/VAkAtG9ICgikEnD1Q7daObmj85W/+HD0usmTq7v47aCAfDn/wnsvrQQC/vK+f458CUzVawqCAPVk2J9VgM7/SDG5gyiPf8kPnwsjbWx79RY1CkN+JHj/0Pano9WbNkcudqhlJBsBJtuurmLKQxCgPXdWAWjPj7MRCEJAvuitX7yQL3ketbbchZI2DWGTIMAN//qNEKpKHQ0J0PkfCXvJuW+KHvv49ZUOJZ3/kTa2v5KJ9L710Wuiz//ZJZGM3nBpc/1GikvWLpRVggDlV15xoajWlZEAgHVNYk+B5qhoMZseAZef/5cvCHLnn6i7nmvBplTkjtCdl/+5TUUyVhaCAMZovU+Yzv+JJpbPAwkc/s+/+AifCSdYnPxryR/OqQRxhs/X4GRFKHRLAqbnomipUC2cRBCgBTR1CgGA1tw4C4FgBP6n6vxLR5HNTwGZF0DuBIWwEQQIoZX11pHO/0hP6fz70nEYWbMwX8noDWlTGeXnwubyzRQXfF0tI0GA7C1HACC7GWcgkFlgm5qAx8VNZvrny56LLZetzHInSIb0hrARBAihlfXUkc7/SEcZLUQweKSJD69kdJ+M8nPtcQAf7KmDPgGbggBJeWinvppVUhqrOT1GAOgGJT0Eagn0ObgCgHwZ+JSa8Z8tDIHPq4kBQ/kCSBAgjGu6nVrS+R+pJ6u/yGghNj8FJLDjwpwwO3t6/WwAaqVFwJYgQDJU1h0A0H7DXnuCWlqQRBBAoHCBz7/3Ep7xLLwV8iuADAVdokZ8hLIRBAilpbPXk87/SDN5RpylX0ea+PhKggC2Pw72254eH+mpk0YBW4IAGqtkJCn7AwBJssVIzUm0qcDMKVOaHsMB6QS27XLrEQC5E8zdnnRt69NREgAIZRSAtBtBAJ+uXj11ofN/sqOMDmILQ0AeB2NSwDDaetY0f+d2IgjQ/Bq2PgCQxHFv82pwhAmBiZ2nmEg2yDT7Dh12qt6yrjNbeALyLOil5745qIoTBAiquRtWls7/yTxXnX8e88CczOL1HgI+Xjfv8cpNGu/WEpDHC57yD4IAjaGsDwA0Lj7vIoCACQH50scWpkCIwR+CAGFe68NrTed/uMaJv2UiWLawBGTi3znnzLCy0puf3WFluSiUnQIEAeq3CwGA+ja8g0CwAsz0HGzTB3u3jyBAuNc8nf/abS9DwfksqG3j+94QA8G+t2mo9SMIULvlCQDUdmEvAloFtu3arTU9k4nZGvk3WWfSHikQ6jVAEGDkdRDCKzr/9VuZkWD1bXx/hzmAfG/hsOpHEODk9iYAcLIJexDQLrDPoWUAZTZ4trAFQr4GCAKEc+3T+W/c1rPUrPBs4QqEGggOt8X9rjlBgJHtSwBgpAevEAheYPrkruANQgcI/RogCOD/vwA6/83bWJ4FZwtXgPYPt+19rTlBgBMtSwDghAV/IYAAAgggUBGQIMAtj34fDQ8FVv9wczR/zdrIpZFZeTfD9K6uvLMkP8sEQg8EW9YcFEeTAEGAo5AEADRdUCSDAAIIIOCPgEyAtoQZ0P1p0GE1mcOd7WEatf+k81fbJaS9IT8KFlI7h1hXggBR5EAAIN4Y4sVJnRFAAAEEihGQzv/6xQujSePHF1MAcjUqIDPbS/tOHOf3OthGEUkcAQQQcFjAaBBgaHCn7TQOBABsJ6R8CPglsLOn168KUZvMAiFfA3T+M18uTp5AEMDJZqPQCCCAgDYBU0GAZODI89oKaSghAgCGYEkWAVcFftvT42rRKbcmgVCvATr/mi4gR5IhCOBIQ1FMBBBAwJCAqSCAoeJqS5YAgDZKEkLAD4HNz+7woyLUomWBEK8BOv8tXy5On0gQoHbzhTwKqLZIeHttDATz2E5412EeNQ4xCEAAII8rizwQcExAlshiC1Pgoe1PB1dxOv/BNfmIChMEGMFRebGzt/fknewJSsDGIJD8v5oNARMCoQUBCACYuIpIE4FRAnPOmTFqj90vZQk0tjAFNj37bFAVp/MfVHPXrSxBgJNpNj0T1v8LThYIew/t73f79x067HcFW6idriBAuTzU10L2uZ5ifwAgiTfmKkJmCCAQPRzgXWCa/ajA/T8JJ/hD55+rfrgAQYDhGlG0jZFgI0ECetV36FAU4qNgATVxtG0XIz1rtbeOIEDy8t7ttdK2aZ/9AQCbtAIry+N8+AfW4ieqK8M//+UnT5zYwV9BCNzy6PejfYfDuCtA5z+ISzpzJQkCnCBjJNgJi9D+2vTMDiurPGk8S3da2TCeFUpHEMB2EgIAtrcQ5fNCwMUPrVsffcwLeyqRTkDu+Kze9Hi6gx0/is6/4w1ouPgEAY4Cb9u1O7JxIjjDzU/ySuD+J+y8ATBr2jTaB4FcBHwPAhAAyOUyIpPQBVz80JJRAH/z7YdCb7pg6v+X9/1zEHf/6fwHc0m3VVGCAEf5CAS3dRk5ebI8+//wUz93suwUGgGdAj4HAQgA6LxSSAsBzwS+pO4IhzgrvGfN2LQ6MvQ/hOc96fw3vRQ4YJgAQQC5E/wkowCGXRMh/CmfB7ZuLt5MsdWyL5DH/dr1byUIsOe2v9c9nLLcbj1Gn299AGD39Qt/MLrQvEbANQGXP7Ru+No3IpYFdO2KS19emevh1u/5/7gHnf/01wRHnhAgCBBFV6vRQWxhCNgeDHbxcUpbrxwm+UzfMq0EAdKnnurII6mOynCQ9QGADHXhUM0C217eoznFcJNz+UNLJoWbv2YtkwJ6ePnKIx4f/9o3PazZyCrR+R/pwatsAqEHAWQuAB4Hy3bNuHi0DP23PRgs/y9nQ6AIAQuCAFqrTQBAK6dfie0bGPCrQgXWZvrkrgJzbz9rCQJIR5GVAdq3tCWFG/71G5E84uH7Ruff9xbOp36hBwHk/xX8/z+fa62IXGSUn8wDY/s2afx424tI+TwWSBMESJKkzwUCAgAutBJldF7gdZMnO18HqYAEAf7yvq9GMmM8m5sC0naXfeneyrO9btYgfanp/Ke34sjmAqEHAeT//4wEaH6duHaEBHZklJ/tS8DOOWeGa7RWl1dG9rBlF2gWBEgGB7dnTzX/M9wIACTJlvxpyHFfPyMAdF4Fvgxdk9mBz7/ldu4G6bw4ckpLnu+UtmPCv5zAycY7gdCDADISQEYPsfkhIJ1/CezY3vkXbV9upNhy5bjQ5rZYjS5HsyDA6ONtfO1EACCJ414b8Xwv0/Y9e32vYq71c/0xgOFY1UcCzv/H26LVP9zMiIDhOJb9LXf8Kx1/1VbyfGcIH/rc+bfsIvSsOKEHAWRlgIvu/Ccmh3X8unZtDhifvkM5fulQfCXgehBgDK2IAAL5CMhKAL6trbuztzf6zHcervxIp0vqyId0PtdTs1x29vRG23btUj9hDfOj89/syuB9HQLVIIALQ6d11Hd0GvL/lXfetTL65J9cFC2Ze2HEs9mjhex9LUv7fkZNACuf3y5tc19/jkvFtbqsMuEjW/sCEgSQrXTqqScS6+934hEAJwIAcRL1RvEJW/7KT6Cvvz+a1NmZX4Ye5+R7x1i+EIbW2fT4cnWyanT+nWw2ZwsdehBAGk5GFa1WjwVcdcF5lUAAw7TtvZxluL88wuHq57Tv36HsvXIoWSOB0UGApFze1+h4W95zIgCgHgHYEkfJfFvQQiqHPAYw58xpIVXZWF3l7jgbAgiYEaDzb8aVVBsLEASIKo8VScdSfqZ3dUWzzjw6GqyxXD7vyl1j2+4cy93XvO7A9qkVfGS9d9fnfZHriuCSvn8zv+3p0ZcYKVUeBxCGESMB9Lpon5TNiQCAXkNSQ6AYAfmiOHHcuCCewS5GmFxDFaDzH2rL21FvggAn2kGGlcuPTY+72RgAkJETbOkFJKjEpk9AHhFk0ytQHQkw9Mq+bXpTNpOaE5MAmqk6qaYR2P7ynjSHcUxKAemosCGAgD4BOv/6LEmpdYFqEECCvGwIIKBXYO45PP+vU1RGhrDpF5AgwNDOXU48AuBEACCJy1v0NxMpphHYN6B91EmabL09xrY7Ed5CU7EgBOj8B9HMzlSSIIAzTUVBHROYwwSAWltMHgthMyQw1G8oYb3JOhEAiMsdvXqrTWppBXbufyXtoRyXQoB5AFIgcQgCKQTo/KdA4pDcBQgC5E5Ohp4LyKga+XfFpk8ghOWA9WllS+nQM79yYhUAJwIA2eg5WqfAzv37dSYXfFpzXz8jeAMAEGhXgM5/u4Kcb1KAIIBJXdIOTYDvTfpb3NWVIPRL6E+xf9MmE48AlHWX1IkAQFwu79BdcdJLJ8AIgHROaY+StZKl88KGAAKtCdD5b82Ns/IVIAiQrze5+SvA8/962/ZnDP/XCzo8tdhYt3pweDY6/jZWUh2Fq6ax62OLnqv+ze98BZ7nEQDt4DzLpp2UBAMRoPMfSEN7Uk2CAJ40JNUoVOCSmW8uNH/fMmf4v7kWTY4MbDaXut6UnQgA6K0yqWUV4DGArGKNj7/0XD7MGgvxLgInC9D5P9mEPfYLEASwv40oob0C8v/9102ebG8BHSzZpmeedbDUFFm3gDsBgCTZorvypJdOgMcA0jmlPUpWAmCpqLRaHIdAVHlsZv3ihZE8QsOGgGsCBAFcazHKa4sAIyb1twRLAOo3raYYx/G+6t+2/3YmAJDEca/tmL6Wb/vLe3ytWmH1YlKbwujJ2DEB7vw71mAUt6YAQYCaLOxEoKHAVeef1/B93swuwBKA2c3SnlE+fNjUCgBDacuQ9jhnAgCqQjvSVorj9AowAkCvp6R2CY8B6EclRe8E6Px716RBV4ggQNDNT+UzCkzv6mL5v4xmaQ5nBYA0StYdE3IAIN5hXXMEUqDtexgBoLupmQdAtyjp+SZA59+3FqU+IkAQgOsAgXQCV13A3f90UumP+m1PT8QkgOm9sh45tOflH2U9p6jjXRoBUJRR8Pluf3lv8Aa6AeRZZoa26VYlPV8E6Pz70pLUo5YAQYBaKuxDYKQAAYCRHjpe7ezp1ZEMadQRiDs6tN+pr5NV27vdCQAk8ca2a0sCLQnsGxiI+vr7WzqXk+oL8BhAfRveCVeAzn+4bR9SzSUI8MSn/ntlgsuQ6k1dEUgjMOecGcz+nwYq4zGsAJARLOPhA7/bvTPjKWkOL6c5KOsx7gQAstaM47UKbN/DKACtoCqxS9XatqwGoFuV9FwWoPPvcutR9qwCMhJMVreQ654NAQROCHD3/4SFzr+27dqlMznSGiVwcMOG50ft0vHyiI5ERqfhTACgv+PIltGF53V+AqwEYMaauQDMuJKqewJ0/t1rM0rcvgBBgPYNScEvAbkx8qELzverUpbUZtsLuy0piX/FSJKkz6VaORMA6FmyxClYly6CNGVlBEAapezHfHTuhdlP4gwEPBOg8+9Zg1KdTAIEATJxcbDnAtz9N9PAfYcORTt7e80kTqpRNDRkaglAI7rOBACk9glLARq5CNIkygiANErZj5HnQBn+md2NM/wRoPPvT1tSk9YFCAK0bseZfgks4caIkQZl+T8jrMcTTQaHDhx/ofePQb3JHU3NqQCAKvIOEwik2VyAEQDNjVo9glEArcpxnusCdP5db0HKr1OAIIBOTdJyUeCSc9/E5H+GGo4JAA3BVpMdGtxa/VPzbyYBVKA7NKOSXAaBzS8weUgGrtSHyrNuTAaYmosDPRGg8+9JQ1INrQIEAbRykphjAkvmznGsxO4UlwkA3WmrPErq2AiAeEceKORRW4DHAGq76NjLkDcdiqThigCdf1dainIWIUAQoAh18ixaQJb+m/v6c4ouhrf5b3pmh7d1s6FiQ3te/pGhcgyZSNepAEASJ70mEEgznQAjANI5tXKUBAAYBdCKHOe4JkDn37UWo7xFCBAEKEKdPIsU+NS73llk9l7n/duenmjf4cNe17HoysUdHUY66qpeRtJ1KgAQl0tbim7gkPNnHgBzrS9f9lgS0JwvKdshQOffjnagFG4IEARwo50oZfsC8tnA3f/2HeulwPP/9WT07e+9b52pEQD6CjksJacCAOUSIwCGtV3ufz6//5Vo5/79uecbSoaffNdFjAIIpbEDrCed/wAbnSq3LUAQoG1CEnBA4PPvvdSBUrpbRFYAyKXtjEzWp0rOCICXrr3mp7k0IZnUFdj+8t667/FGewKvmzyZUQDtEXK2pQJ0/i1tGIrlhABBACeaiUK2KMCz/y3CZTht8zPPZjiaQ7MKJEeOmLz7TwBAGiRhJYCs16XW45kHQCvnSYl9/r2XMArgJBV2uCxA59/l1qPstggQBLClJSiHbgGe/dctOjI9ef6fEQAjTbS/imMjnXTt5RyWoFOPABwr945h5efPnAU27Hgu5xzDyk6+5LEiQFht7nNt6fz73LrULW8BggB5i5OfaYFLzn0Tz/4bRub5f8PAKvnk8CFTIwAGTZWeAIApWU/TZR4A8w3LigDmjcnBvACdf/PG5BCeAEGA8Nrc1xrLykc8+2++dTez/J9x5PLg0D5DmRgbWeBgACDeYQiZZFMK8BhASqgWD5MvePIoABsCrgrQ+Xe15Si3CwIEAVxoJcrYTEBudsjcR2xmBRgBYNa3kvqBV7bmkIvWLJwLACRxeYtWARLLLPD4C7szn8MJ2QQ+dMH5kUyMw4aAawJ0/l1rMcrrogBBgHSttrOnN92BOR5lY5lyrH4lK7n7z+OO5tV/9sKuaGdvr/mMAs+hf9fzLxgiGDCUbuRcACAud/SawiDddAIbnmUegHRS7R3FxDjt+XF2/gJ0/vM3J8dwBQgCNG97mQDNts3GMuVtdNfl74/k+mUzK8Ds/2Z9q6kfevRR5zpGzgUAdl+/8AdVcH4XI7BvYCDa9vKeYjIPKNe5rz8nuur88wKqMVV1WYDOv8utR9ldFSAI0LjlNj+7o/EBBbxrY5nyZJCJ/y6d+eY8sww2r03Psvyf6cZPBo88bTCPsqm0nQsAVCCSqNcUCOmmE3hcDStiMy/AsoDmjcmhfQE6/+0bkgICrQoQBGgsJ8Ogbdke2m6yr2BLLeuXQ4b+y91/NvMCfYcORQ8/9XPzGQWfQ2xymBGrAAy/vpI42jL8NX/nL/DgL36Vf6YB5ihf7PiwDLDhHaoynX+HGouieitAEKB+097/xJP138z5ndDvyDL0P78L7qGnwg425SWd9Pc/nldeOvNxcwRAFO3QiUBa2QW279kb7dy/P/uJnJFZQIbKyZA5NgRsE6Dzb1uLUJ6QBQgC1G79hy26637/T+wJRtTWMreXof/mbGul/DABgFos2veVh4b6tCd6IkEmATxhIX+xFOBIj2JeMRlgfu4SNZ/e1ZVfhuSEQBMBOv9NgHgbgQIECAKcjC6zoP/LT544+Y2c99zy6PejfYcP55yrHdkx9D//dtj0zI78Mw0xx/37trtYbTdHACTxRhexfSvzZoueq/PNdnR9Ko8CXMFzc6NdeF2MAJ3/YtzJFYE0AgQBTla69dHHTt6Z4x55Hnv1JidHCmtR+p9/8WFm/dcimS4RmWsi1GBTOiF9Rx366ROmAgBH9JXy5JScDACUS0nvyVVhT94Cj+z4bdTX3593tsHmJ6sCfPJPLgq2/lTcDgE6/3a0A6VAoJEAQYCROjIK4G++/dDInTm++sv7/jnYDtlH514YyfcXtvwEGP6fj3VSLr/Sv3XrPkO5GVsBQMrrZADgpWuv+akhbJLNKLBhx3MZz+DwdgQ+9a53RtIBY0OgCAE6/0Wo55OnDJG+6M5/iuROJZsfAgQBRrbjl9Qd+CJm4Zeh/6Eu/SefGV9476UjG4JXxgWYANA48dEMyuWtBnMaMpi2mwGACkiSbDEJQ9rpBJgHIJ2TzqPWL17IfAA6QUkrlQCd/1RMTh4knf+Pf+2b0bZdu6P5a9YSBHCyFWsXmiDASJcbvvaNKM9lAeXf1q3fK/bxg5EC+b2SeYvk+wpbvgIM/8/POykP7TSYGwGAWrhJHPfW2s++fAV4DCBfb8lNvtB9RT1Px4ZAXgJ0/vOSzj+faue/mjNBgKqEP78JApxoS3kuWoJcct2b3uSRAwmshbrJ9xS59tjyFbj/CfPXdr41sji3I4PPGywdAYDauPHG2vvZm7fAg7/4Vd5ZBp/fW86cFn3+zy4J3gEA8wJ0/s0bF5XD6M5/tRwEAaoS/vwmCHCiLSUIIB1zk0GAG/71G5E8chDqduflfx7J9xS2fAXkEa6Hn/p5vpkGnFu5t2ezweoTAKiJmyQ7au5nZ+4CBAByJ69kuOQP50RXnX9eMZmTaxACdP79beZ6nf9qjQkCVCX8+U0QYGRbShDgL+/7qtZHXqQDdtmX7o3uf+LJkZkF9Eom/fvQBecHVGN7qnr/T8K97opohYHf7Tb5CACTANZq1HIp3lJrP/vyF9i+Z2+07eU9+WdMjtFdamnAS859ExIIaBeg86+d1JoEm3X+qwUlCFCV8Oc3QYCRbSl3S8+/5XYtowFksj9JK9QJ/0RWvo8w6d/IayzPVyEHnvJ0ruZ1cMMGk48ADFbzMfG7ZCLRPNJkJYA8lNPnwSiA9Fa6j7zr8vezMoBu1MDTo/Pv7wWQtvNfFSAIUJXw5zdBgJFtWX0k4Px/vC1a/cPNmUYEyB3/SsdfnSuT/YW89rp8bsj3EbZiBGRyS/n/NVs+AsngoMnh/0bv/otQnA+TmVymrVzzZBTHs82kTqpZBCaeckr084V/keUUjtUoIF9CLrpzZSRrHbMh0I4Anf929Ow+N2vnf3htuC6Ga/jxt3xuyIR4dBpObk+53mdNmxZNn9x18ptqz86eXuVGh6uKw/8fqhLF/ZZ5JxgBkJ9/+cjgA3tv+4cbDeXYr9LdayjtSrKOBwC6v6lCGPNNApF2eoE7Lvqj6Mo3viH9CRypVUC+zMnww5DvQGgFDTAxvsT52+jtdP6rKlwfVQl/fhME8Kcti6qJLPf32MevZ8b/ohpA5cv3v/zxy4f6b9v7xVtvM5TzQWlWQ2lXknX2EQApvVoKcEulFvzHCgEeAyi2GarDOieOG1dsQcjdSQE6d042W6pC6+j8S0Y8DpCK26mDqp8b8u+fDYGsAvJ9g+X+sqrpP/6hp57m5o9+1oYplvf+zuQjAEZXAJCKOR4AKG9p2Dq8mavA4y/sjnbu359rnmQ2UkCW3Vm/eGFEEGCkC68aC9D5b+zj8ru6Ov9VA4IAVQl/fksQ4E717DafG/60aR41ketFvm+w3F8e2o3zCHnJycYy5t4tDxwxuQIAAYBGTZdEpR2N3ue9/AXWbN2ef6bkOEKAIMAIDl40EaDz3wTI4bd1d/6rFAQBqhL+/JbPDRnGLcO52RBoJlAd9k/nv5mU+feZ/M+88Uk5xHHfvge+anIFAAIAJ6EP28FKAMMwLPmTxwDsaAi+zNnRDraXgs6/7S3UevlMdf6rJSIIUJXw5/frJk+O1n90IUEAf5rUSE2k8y/XiVwvbMULcPc//zZIhsqm73YeMV0rpx8BEJwkijaaRiL99AL7BgaiB37xy/QncKQxAb7MGaP1ImE6/140Y81KmO78VzMlCFCV8Oc3nxv+tKWJmtD5N6Haepq/7elh5v/W+Vo+Mxk8YjoAoLq3ZjfnAwCKZ4dZIlLPKnDbj5/MegrHGxLgy5whWMeTpfPveAM2KH5enf9qEQgCVCX8+S2fG/I4gPx/gg2BqoBcD3JdyPXBZofA/T/h+3YhLTFmjMnn/2UJQOOb8wGAJI62GFcig0wCz+9/Jdr8wq5M53CwOQG+zJmzdTFlOv8utlq6Mufd+a+WiiBAVcKf39XVAS45903+VIqatCwg14FM+CfXBZsdArL03+pNj9tRmMBKoZYANDkCwPjdf2ku5wMAcbm0JbDrzonq3vbjJ5woZyiF5MtcKC3duJ50/hv7uPxuUZ3/qhlBgKqEP7/lc+N//sVHoo/OvdCfSlGTzALS/nId0PnPTGf0BLn7v+/wYaN5kHgNgbgU9d51m8nIi/Hn/6VWzgcAdl+/8Ac1moddBQvIkoDbXt5TcCnIfrgAX+aGa4T3N51/f9u86M5/VZYgQFXCr99feO+l0ef/7BK/KkVtUglIu0v7s9knwN3/YtokSYa2Gc7Z+AoAUn7nAwCVRkiSLZXf/Mcqge6fmRwhY1VVnSoMX+acai4thaXzr4XRykRs6fxXcQgCVCX8+r3kD+dUhoDL2u9s/gtIO8uQf2l3NvsE5P/7O3t77StYACWKy5Hpzg0BgLTXURLHW9Iey3H5CciSgDv3788vQ3JKLcCXudRUzh9I59/5JqxbAds6/9WCEgSoSvj1e+7rz2FyQL+atGZt5DNDJvuT9mazU+DWRx+zs2ABlKocxc8bruaA4fQryXsxAoCJAPO4VFrLgxUBWnPL4yy+zOWhXGwedP6L9TeZu62d/2qdCQJUJfz6XVlZRt0Zvur88/yqGLWpCMjz/nLnn5n+7b0guPtfbNuU+/o2GyzBoMG0RyTtRQCAiQBHtKlVLxgFYFVznFQYvsydROLNDjr/3jTlSRWxvfNfLTBBgKqEX79lPpm7rnh/dOflf+5XxQKujQz5l/aURwSZ7M/uC+FLzPxfXAOpCQAPbXvC5CMAuQz/F0AvAgBMBFjcv4U0Oa/ZavLfSpoScEwjAb7MNdJx8z06/262W5pSu9L5r9aFIEBVwr/fH7rg/Oj7N1wfyf9v2NwVmHPOjMqQf2lPNrsF5P//8v9UtoIE4mhn/6ZN+wzmnsvwfym/FwGASkMwEaDB67G9pGUyQOYCaM8wj7P5MpeHsvk86PybNy4qB9c6/1UnggBVCf9+v+XMaarz+NfRJ//kIv8qF0CNpN2+9dFrGPLvSFtz97/ghopj03c0y3nV0JsAABMB5nXJtJYPowBac8v7LL7M5S2uN7/q85sM4dTrakNqrnb+q3YEAaoSfv7+1LveyWgAh5pWAsUyekPajc0NAe7+F99O5SNDpgMAzAGQtZmZCDCrWL7HMwogX+92c+PLXLuC+Z5f/TLH85v5uueVm+ud/6oTQYCqhJ+/CSC70a5y119GbUh7sbkjwMz/xbeV4QkApYJH8qqlPyMAonhjXmjk05oAKwK05lbUWXyZK0o+W758mcvm5drRvnT+q+4EAaoS/v6WAPJPPvXfI3m2nM0egUvOfVP068/+f7nrb0+TpC6JfA7s7O1NfTwHGhAwPwGg3P1PDJS8ZpJxzb2O7px2T3ducI4SFV7sf798fjTrtCmFl4MCZBP4bU9PdMO/fiPa/OyObCdytDEBuet/5+Xv5y6OMeHiE/at8z9clLkqhmv4+/dD25+OPvPth+i8FNjE8m/t82p2f1n6l809gb5Dh6Lzb7k92nf4sHuF96jESam0bc/ffe5PDVapX6W912D6I5L2ZgSA1Er1/jeOqB0vrBO4afN/WlcmCtRcQJYLlImCvvLfPhxN7+pqfgJHGBMQf2kHhnAaI7YiYZ87/wLMSAArLjPjhbh05pujJ/7PZdHn/+ySSJaaY8tPYPhnBZ3//Nx157RaLftH51+3avb04kHjz//ntgKA1N6rAEDEYwDZr+icz3j8hd3R5hd25Zwr2ekS4MucLsns6ciXORnuL1+mpR3Y/BXwvfNfbTmCAFUJ/38v+cM50RPqsQD5fxiBALPtLZ8VEnDhs8Kscx6py+hLCQCwFS9QPnzYdEMM5VlLrx4BOGPVmstKSbw+T0Dyyi4wc8prou9e8efZT+QMqwRkWJp8MBGdNtss8mX5qgvOiz6lvjgzu79ZaxtSD6XzP9yaxwGGa/j/N58dZtq4EiR+10XRpee+mc8KM8S5pyqPXt7/xJO550uGJwsc6et7d989d5lcBeB3KtfcVgHwKgAwefXqSePKHb0nNxt7bBO4ec7bo8W/N8u2YlGeFgT4MtcCWopTpOMvnX7p/NPxTwHmwSEhdv6rzUYQoCoRzm/57Lj/J09WgshMcNZ6u8u/nU/+yTsZGdY6oZVnbnrm2Wj+mrVWli24QnV09L38hZtND73MdXi0VwEAuSCn3tP9rKrUjOAuTscqPPGUU6IffeSD0aTOTsdKTnHrCfBlrp5Mtv3S8f/8ey/hLk42NuePDrnzX208ggBVifB+y2SB9z/xRLRNPSZIMKB5+8u/lVnTplUCxDzf39zLxSMu+9K9TLxsScMlHWM27/nC8ssNFifXCQClHj4GAL6sKrXAYCORtCaBZW87L1r2tvM1pUYyNgnwZS57a8iSWXK3/0MX8G8iu57bZ9D5P9F+BAFOWIT6V/Xz4+Gnfh4qQc16S3BYhvd/dO6FrP5SU8ifnXwm2NWW5SODt+297R9uM1iqgyrtPoPpn5S0fwGAld1Xx3G07qSassNKAZYFtLJZtBaKL3P1OeWZzUvUhH5L1Bc6WWmBLTwBvuid3OYEAU42CXGPTIAmjwjIT8ijAni2P6yrX0ZTsuyfXW0+2NP3gd7Vd5mcBFA6/xIEyG3zLgAw7e7us6OOaEdugmTUlsCFZ06Nvv6+P2srDU52Q6D6ZY5JA6PKHZy555zDM5tuXLrGSknnvz4tQYD6NiG+I89Db1MrCMnnRwjBALn+5U6/DPN/y5nTQmzyYOvMxH+WNX1civb/x/fe1L9p0z6DJduj0s51GUDvAgDSOMwDYPASNZA0EwIaQLU8SfkyJz+h3NmROzjynOYlavgmS/hZfnHmVDw6/82hCQI0Nwr1CPn38/BTT3szZ4B8RsxSN0SuOv98PiNCvahVvZn4z77GT0qlbXv+7nN/arhku1X6ieE8RiTvZQBg2srub6rZDeaPqCkvrBWQCQG/e8X8aPqECdaWkYKZE5Dhbg+pL3ISDJB1wfcdPmwus5xSlmc1pfNS7fRzBycneEeyofOfvqEIAqS3CvVI6TTJCDP5/JBRApuf3WE9hcz5Mkvd2Zfrm7v81jdXLgWU70IX3bkyiBEuuYBqyqQ8MLBm7+233KQpuVrJyNJ/sgRgrpuXAYAzVnV/opREK3KVJLO2BN4z43XRly9+d1tpcLIfAvJlTr7EyZc5+VLnwpe56t0b+SInnX5mZfbjWjRRCzr/2VUJAmQ3C/kM6UjJ50ffocPq967KXdWigsvDg8Hy+TBp/NHgMEu7hnyF1q7733z7oehL6hEXNrsEBnv3/lXvqpWPGCyV3PXqMZh+zaS9DACcvuret3YkyZaaNWantQJr3/Ou6OJzzra2fBSsGAEJAuzs6R1xh6foL3MyYV/lzs2xOzh8mSvm2nAtVzr/rbcYQYDW7TjzhMDPVHBZRplJkLnv2GgzCTq3u1WDvtMnd1UmdJWOPyO/2lUN53z5niN3/30YAelbqw08++zv73vgq88brNd+lfYrBtOvmbSXAQCpqXoMoEc9BtBVs9bstFLgrAmnRt+9fH40qbPTyvJRKPsETH2Zkw6+fJGTrXrXpvoFr7KT/yCQUYDOf0awGocTBKiBwi4EEHBe4LIv3evEaEfnobNWoFTa+fLffe7tWU/LeHzuEwBK+cZkLKRLh29UhZ3vUoFDL+vz+1+Jbvvxk9Hn5v5B6BTUP6VA9Q4LnfOUYBxWiACdfz3sMvJn/pq10frFC9VQ6vF6EiUVBBBAoECB1T/cTOe/QP+GWQ8ObW74vp43c539v1rkUvUP336XS9FG3+oUQn26f7Y92qyG5rEhgAACPgjQ+dfbitUggDznzYYAAgi4LCCjGD/znYddroLXZS8fPvy44QoeMZx+3eS9DQAkUbyxbq15w2qBpY/9R9TX3291GSkcAggg0EyAzn8zodbeJwjQmhtnIYCAXQIf/9o37CoQpRkhMPjibtMjAAgAjBDX8OKla6/5aRJFOzQkRRI5C8ijABIEYEMAAQRcFaDzb7blCAKY9SV1BBAwKyCz/sv/x9jsFEiiZJvhyf+k4gQADDX/RkPpkqxhgUd2/DZas3Wb4VxIHgEEENAvQOdfv2mtFAkC1FJhHwII2C7w0PanWfLP8kZKBo6YHv4vAoU8/y8Ze/sIgFQuSpgHoOLg6H9kQsBtL8vkmGwIIICAGwJ0/vNtJ4IA+XqTGwIItCcg85fcwND/9hBzOLt88BXTw/+lFoM5VKVmFl4HAOIyAYCare7Izn0DA9GNPArgSGtRTAQQoPNfzDVAEKAYd3JFAIHsAn953z9H+w4fzn4iZ+QnEJeiQz/7qekRAIVOduZ1AGDXxxY9xzwA+f17MZHT9j17o89u+k8TSZMmAgggoE2Azr82ypYSIgjQEhsnIYBAjgIs+ZcjdhtZJXG0rX/Tpn1tJJHm1MLu/kvhvA4ASAXjJFkvv9ncFZClATc8+5y7FaDkCCDgtQCdfzualyCAHe1AKRBA4GQBlvw72cTWPclgLs//MwLA5AVQLvEYgEnfvNKWVQF27t+fV3bkgwACCKQSoPOfiim3gwgC5EZNRgggkFJAnvu/Wg39Z3NDoPzS3g05lLSwCQClbt6PAHjx2sXfyqERycKwgMwHsHDDo1Fff6EBM8O1JHkEEHBJgM6/na1FEMDOdqFUCIQqIM/97+ztDbX6btVbPf/fu2616ef/Zfi/ekq9uM37AECFNonWF0dMzroEZD6Amzb/SFdypIMAAgi0LEDnv2W6XE4kCJALM5kggEATgVse/X60+dkdTY7ibWsEBo94f/dfrIMIAPAYgDX/rNouyIO/+FX0wC9+2XY6JIAAAgi0KkDnv1W5fM8jCJCvN7khgMBIgYe2Px3d+r3HRu7kldUC5f7+PJb/K3T4vzRAEAGA0iAjAKz+15axcDdt+lG07eU9Gc/icAQQQKB9ATr/7RvmmQJBgDy1yQsBBKoCMunfDV/7RvUlvx0ROPzLp/IYAXCkaI4gAgAsB1j0ZaY3f5kP4PJ/e4hJAfWykhoCCDQRoPPfBMjStwkCWNowFAsBTwWqk/7tO3zY0xr6WS31UP7Ogxs2PG+4dmWVfqFLAEr9gggAHGvIjcd+88sDgeqkgB5UhSoggIADAnT+HWikBkUkCNAAh7cQQECrgNz5Z9I/raS5JJYcGQxi+L9gBhMASOJkfS5XD5nkJiCTAsrygGwIIICASQE6/yZ180ubIEB+1uSEQKgCN/zrN6KHn/p5qNV3ut7lA/vyGP5vxXJmwQQAWA7Q6X+TdQsvkwLe9uMn6r7PGwgggEA7AnT+29Gz71yCAPa1CSVCwBcB+by4/4knfalOWPWQ5f9WrXwkh0oXPgGg1DGYAEClQVkOMIfrOv8sbvvxk6wMkD87OSLgvQCdfz+bmCCAn+1KrRAoUoDPiyL128+73H84j7v/Vjz/L1pBBQDU5A7r279ESMFGgRsf+3+jzWrGVTYEEEBAhwBf5nQo2psGQQB724aSIeCagMz4/5lvP+xasSnvcIHBcJ7/l2oHFQCIy9HG4W3N334JLNzwKMsD+tWk1AaBQgTo/BfCnnumBAFyJydDBLwTkM7//DVrI2b8d7tpc1r+z4rn/6WlggoAyHKAUZJscfsSpfT1BKrLA/b1W/Pvq15R2Y8AApYKPLT96ejjX/umpaWjWLoFCALoFiU9BMIRkOX+Pq5m/Kfz73abJ0ND23JY/k+QrHj+XwoSVABAKlwuxevkN5ufAgQB/GxXaoVAHgJyJ0eWb2ILS4AgQFjtTW0R0CEgnX+58y///2BzW2DowIEHc6iBNc//S12DCwCUBpkHIIeLvNAsZHnAy//toYiRAIU2A5kj4JQAwzidai7thSUIoJ2UBBHwVoDOv19NO/DML/OYANCau//SesEFAOQxADUZ4A6/Ll1qM1pAggALH3l09G5eI4AAAicJ0Pk/iSTIHQQBgmx2Ko1AZgGZ8I87/5nZrDwhx+H/Vj2fHFwAQK6+OEnWW3kVUiitAo+/sDta+th/aE2TxBBAwC8BOv9+tWe7tSEI0K4g5yPgt8AN//qN6P4nnvS7kgHVLhnofzyn6hIAyAm6bjZDpdK6um/yhlcCD/7iVwQBvGpRKoOAPoHf9vQwe7M+Tm9SIgjgTVNSEQS0CtD518ppRWL9zz+fx/P/g6qyQ1ZU+FghghwB8NK11/yUxwBsugzNloUggFlfUkfARQF5hvPq+/6Z2ZtdbLwcykwQIAdkskDAIQE6/w41VsqiJuXyzgNff3B7ysPbOcyq5/+lIkEGAI614MZjv/kVgABBgAAamSoikFKACZxSQgV+GEGAwC8Aqo/AMQE6/35eCkn/4Twm/xO8w7YJBhsASGLmAbDtYjRdHoIApoVJHwH7Bej8299GNpWQIIBNrUFZEMhXQD4v/vK+r/LMf77sueWW0/B/qQ8jAHJr1SYZvXjt4m9FSdTb5DDe9kxAggB/teG7LBHoWbtSHQTSCND5T6PEMaMFCAKMFuE1Av4LyOfFDV/7RvTwUz/3v7IB1jDH4f9HFK968tyuLdgRANIMSRytt6s5KE0eAo/s+G1lYsC+fqsm5Myj6uSBQLAC1Qn/pDPHhkBWAYIAWcU4HgF3Bej8u9t2aUse8vB/MQo8AMBjAGn/ofh2HEEA31qU+iBQX0CW+rvozpWs21yfiHdSCEgQQK4juZ7YEEDAT4Gjw/7/mTv/fjbv8VrlOPzfuuf/BSE+LhHoH1Pv6X5WIcwItPrBV/vCM6dGa9/zrmhSZ2fwFgAg4KOAdNbmr1nLbP8+Nm5BdZo4bly0fvHC6C1nTiuoBGSLAAImBHhMzISqfWnK8P89t/zd23MoWVnl8WIO+WTOIugRAKIVJ4wCyHzVeHTC4y/sji7/t4eYE8CjNqUqCFQF6PxXJfitU2Df4cOVoNK//OQJncmSFgIIFCjAY2IF4uecdejD/4U7+ADAUKm0LufrjuwsE9i+Z28lCPDbvj7LSkZxEECgVQE6/63KcV4aAQkCfPxr34wIAqTR4hgE7BaofF58aS2PidndTNpKF/rwf4EM/hEAQeAxAFFgO+vVr4rWvvud0aypZ4CBAAIOCzy0/enK7M3SSWNDwLTAVeefF911xftNZ0P6CCBgQGDTM8+qpf7+mcfEDNjamGSOw/+l+jLrsHUrAEjBgh8BIAg8BiAKbM8fOBh9QD0OsGnHc2AggICjAnJH9ur/xZc5R5vPyWLf/8STlbXC5flhNgQQcEdAgsV0/t1pLx0lzXH4vyw1ZmXnXxwJACgEHgOQS4FNBPaXy9HCf/9+9NDTvwAEAQQcE5DOvwzLZkMgbwFZK1wmmyQIkLc8+SHQmsDqH24mWNwandNnHf7FU2tyqoDVQxAJAKir4KVrr/lplCRbcrogyMZyAQkCXPPd70erN/+n5SWleAggUBW44V+/Qee/isHvQgRkmUAJAshkYmwIIGCvwN98+6HoM9952N4CUjIjAsnQ0LaDGzY8byTxkxOVEQDWbgQAjjVNuRSvs7aVKFjuAvEpp0TLf/xk9JmHNuSeNxkigEB6gaNrNn81kmHYbAgULSBBgIvuXBnJpGJsCCBgl4B8Xlz2pXujL2163K6CUZpcBIYOHHgwl4yiaFDlM5RTXi1lQwDgGFtpMFrfkiAneSsgQYB7f/1sNL/7ywzr9LaVqZjLAtVlm2T4NRsCtgjI5JPvvGslKwTY0iCUAwElIJ8XEpzb/OwOPAIVGHjml3nd1bP67r80PwGAY/8Idn1s0XNqpoaNx17yC4GKgAQBfnTwcHTR3asY1sk1gYBFAizbZFFjUJSaAjIfhQw1ZkMAgWIFZLI/6fzv7O0ttiDkXphAzsP/DxZW0ZQZEwAYDpVE64a/5G8ERECCALs6x0XvVEEA+RBhQwCBYgVksj+5w8qXuWLbgdybC8hQ44vu/CdGkTWn4ggEjAjc8uj3mezPiKxbiQ7t6+vOqcRllY88AmD1RgBgWPP0dwytH/aSPxE4LiBBgAOTuqKrv3p/JB8mbAggUIwAk/0V406urQvIvADn33J7JOuNsyGAQD4C1flhbv3eY/lkSC5WCxx6/Id5Df8/bDXEscIRABjWSj1LlvSpxwDWDdvFnwgcF5AgwJipU6Nbv/8D1nw+rsIfCOQjUJ28icn+8vEmF70CMi+ArDcuo1fYEEDArIA8IiZD/pkfxqyzK6mXBwY29G/dui+n8hIAyAlaazZJnKzXmiCJeSVQDQI8/PQvKx8uzPTsVfNSGUsF5M6p3EFl8iZLG4hipRKQIIDMCyCjWCSgxYYAAvoFJMgmy3HyiJh+W1dTLPf2PJBT2WX4/0BOebWVTdzW2Z6ePPWe7mcVzAxPq0e1NAgkAwPR4O7d0cTOU6LPv/eS6EMXnK8hVZJAAIHRAvLIDUM4R6vw2nWB6V1d0fqPLoxeN3my61Wh/AhYISBBtc98+2GWhLWiNewpRJIkfXv+8QtvzqlEMvlfX055tZUNjwDU4IsTRgHUYGHXMIHqSIB9/QPc0Rnmwp8I6BKoDvmn869LlHRsEpC7kxeoUS08EmBTq1AWVwUqq8Kou/48IuZqC5ord3L40IPmUj8pZSeG/0upGQFwUttF0bS7u8+OOqIdNd5iFwIjBKojAaKkHM2aNjW68/L3R285c9qIY3iBAALZBGTIvzwvLUOm2RDwXeCSc98U3aU+OyaNH+97VakfAtoFGCWmndSrBA/96pfvPvD1B7fnVKndKh81nZz9GwGAOm2kHgN4TOHMq/M2uxE4LjA8CCA7P/knF0Wfetc7j7/PHwggkF5A1k2XpdPYEAhJQB4J+Px7L40unZnXSNWQdKmrjwIySkwCxcwN42Pr6qlTUi7v3HPL371dT2pNU5E7Fj1Nj7LkAB4BqNcQCasB1KNh/0iB6uMAUXz0n5MMWb7sS/cyydNIJl4h0FDgtz09lfXS6fw3ZOJNTwXkkYCr/9c/RxIAY4JATxuZamkTeGj700wMq03T34SGXnllTY61c2rIIiMA6lwZk1evnjRuqGOHekiiq84h7EZghMDokQATx42rDOvkjs4IJl4gcJIAQzhPImFHwAIyGuArf/FhHicL+Bqg6rUFJDh2w9e+wfJ+tXnYO0rg4JYf//7BDRueH7Xb1Etnhv8LAAGABpfBtJVr7ojieGmDQ3gLgRECo4MA8ibPd44g4gUCxwXkrr8sicYQzuMk/IHAcQF5nGzJ3AuZG+C4CH+ELLD6h5ujW9QIS+aGCfkqSF/38sDAhr2337Iw/RltHenU8H+pKQGABu3NZIANcHirrkCtIICMBviUfJn7wzl1z+MNBEISkC9zn/nOwyFVmboikFlARgPcdcX7o7mvPyfzuZyAgA8CBIp9aMX86zD40ot/1bt2zSM55dyr8jmUU15asiEA0IRRjQJ4Uo0CmN3kMN5GYIRArSCAHDDnnBmVL3Os/TyCixcBCchyTZ9Rzzlz1z+gRqeqbQswkqxtQhJwTECG+9//kye56+9Yu9lQ3Jwn/5MqOzX8XwpMAEAUGmxTV3ZfHcdMCNiAiLfqCNQLAlRHA1x1wXkM7axjx24/BZjh3892pVb5CFQ/OxhJlo83uRQnIEvByuNhMjkmGwJZBQb37fts78o7u7Oe1+Lxzg3/l3oSAGjS2kwG2ASItxsK1AsCyEkM7WxIx5seCciXObnrv22XBMnZEECgHQEZSSZLBr7lzGntJMO5CFgnIHf9P/Pth6P7n3jSurJRIHcE9j/0b2/q37p1X04l7lX5ODX8X1wIAIhCk23qPd1fVlALmhzG2wjUFGgUBJATrjr/PPVl7hJGA9TUY6fLAnyZc7n1KLvtAjJJoIwk45Ey21uK8qURkNVgVm96nEn+0mBxTF2B8kD/A3tvv/XGugfofaOskntRb5L5pEYAIIUzkwGmQOKQhgLNggAytFNme/7Uu97ZMB3eRMAFAen4yxc5vsy50FqU0WUBHgtwufUouwg8tP3pytJ+zO7P9aBD4NCvfvnuA19/cLuOtFKkcVAd05fiOOsOIQCQsknUKIDHFNa8lIdzGAInCTQLAsgJ8mXursvfH106880nnc8OBFwQ+JefPFEZwsmXORdaizL6IiCPlMljAXx2+NKi/tdDHg2Tu/5MCOt/W+dVw2RwcPOe//EPl+eVn8pnr/rpzzE/bVkRAEhJyWSAKaE4rKFAmiCAJCDPeMpoAJZ+asjJmxYJ8GXOosagKMEKzJo2tRII4LMj2EvA+orLSjC3fu/70cNP/dz6slJAtwQGe/Yu7V298sGcSu3s8H/xIQCQ4SpRowCeVWAzMpzCoQicJJA2CCAnytJPn/yTdzLZ00mK7LBFgGX9bGkJyoHACQEmCjxhwV92CPy2pye69dHHmODPjubwrhRJkvS98vD/8/YcJ/9zdvi/ND4BgAz/BKbec+9NcZQsz3AKhyJQUyBLEEASkIkCP/mui5jsqaYmO4sQkC9zMrM/d3GK0CdPBNIJMJosnRNHmROg42/OlpRPCJQPHVyz94u333Rij/G/fqdyGDSei6EMCABkgGUywAxYHNpUIGsQQBIkENCUlQMMC8gd/y+pCf5YpskwNMkjoFFARpMtmTuHx8o0mpJUYwGCxI19eFevwMEtP/79gxs2PK831bqpScdfAgDObgQAMjYdSwJmBOPwhgKtBAEkQfkyJxM+sfxTQ17e1ChAx18jJkkhUJCAjAiQQACTBRbUAAFkK/PBrN60mdFhAbS1LVUsDwxs2Hv7LQtzLM9+ldcrOeanPSsCABlJp65c+444Lm/MeBqHI1BXoNUggCTIXZ26rLyhSYAJmzRBkgwCFgnIZIEfVUvPfuiC8y0qFUVxWUBWgJHRYdt27Xa5GpTdQYHB//38B3rvW/d4jkV/SeU1lGN+2rMiANACKUsCtoDGKQ0F2gkCSMJ8mWvIy5stCMjazHIXhyWaWsDjFAQcEZClZ5eoQID8TBo/3pFSU0xbBPoOHYru/8mT6rPi8Whnb68txaIcAQkkQ0Pb9tz693+aY5UPq7x6cszPSFYEAFpgZUnAFtA4palAu0EAyUDWgpYvclddcB5f5pqKc8BoAb7MjRbhNQLhCLDqTDht3W5NZZi/dPyZC6ZdSc5vVyDnpf+kuL3q55D84fJGAKDF1mNJwBbhOK2hgI4gQDUDmTBQAgGsB10V4Xc9geoszQ899XS077AEt9kQQCBUAQLJobZ843rL50Sl0686/tztb2zFu/kIJOXyzj23/N3b88mtkktZ/ffFHPMzlhUBgBZpWRKwRThOayqgMwggmcmXOQkEyA+TBjblD+oAntkMqrmpLAKZBWRUwNxzzmFUWWY5f06Qx8Huf+IJJvXzp0m9qUn5wIHb9t51x205VuiAymtfjvkZy4oAQIu0LAnYIhynpRLQHQSoZipf5q46/3xmgK6CBPi7Ops/d/sDbHyqjEAbAjKq7JJz36xGlc3gEbM2HF04VYb4y2eE3PFnVJgLLRZeGZMk6Xvl4f/n7f1bt+bZIZel/2QJQOc3AgBtNCFLAraBx6lNBUwFASRjmfipMipAfaF7y5nTmpaFA9wWkDv9D6svcw8/9XO3K0LpEUCgcAEZVSaPlvGIWeFNobUAEhyWZ/rp9GtlJTFDAuVDB9fs/eLtNxlKvlay0vGXAIAXGwGANprx9FX3vrUjSba0kQSnItBQwGQQoJpxdRZoubNDMKCq4v7v6iRN3Ol3vy2pAQK2Csjnx6Xqs0M+Py6d+WZbi0m56ggwIqwODLutFzi45ce/f3DDhudzLGifyutgjvkZzYoAQJu8LAnYJiCnNxXIIwhQLQTzBVQl3PwtkzTJckwPq2c2maTJzTak1Ai4KiDBAHk84OhjAucw54yFDSkrvWx6ZkdlRBjBYQsbiCKlEigP9D+w9/Zbb0x1sL6DdqukEn3JFZsSAYA2/aeuXPuOOC5vbDMZTkegoUCeQYBqQSQYcIm6oyN3d1hJoKpi32+ZoEmG97Mck31tQ4kQCFlg1rSp0Rz1qACfIcVeBfIZsenZZwkMF9sM5K5R4NCvfvnuA19/cLvGJJslJXf+ZQSANxsBAA1NyZKAGhBJoqlAEUGA4YWSL3NyZ4dHBYar5P+33OWXO/xy92bbrt1M0JR/E5AjAgi0IFBdUWCWmneGoHILgClOkTv88rlQ+XxQz/TzGZECjUOcEkgGBzfv+R//cHnOhd6j8hvIOU+j2REA0MA7dWX31XEcrdOQFEkg0FCg6CBAtXAyOmD65K7KnR2+zFVVzPyWZzR39vRyl98ML6kigEBBAhIQmDVtWuWHlQVaawQJCG97YXfl82HbrqMd/tZS4iwE3BAY/N/Pf6D3vnWP51jaIyqvl3PML5esCABoYmYUgCZIkmkqYEsQYHRB55wzI5JggAz3lNECk8aPH30Ir1MIyOR9lbv8codffbHjWf4UaByCAALOC1RXF5DPD/ks4XPkRJPK58I2FQzuO3y48iN/b352x4kD+AuBAASSoaFte279+z/Nuaq9Kr9DOedpPDsCAJqIz1jV/YlSEq3QlBzJINBQwNYgwPBCy4RQ8gWuOtRTRgzI3R5WGjihVO3sV+/wy3BNNgQQQACBkQISYH7d5MmVzxTfgwPVzr58HnBXf+R1wKuwBQZ79i7tXb3ywRwVyiqvl9SPN5P/Ve0IAFQl2vw9efXqSeOGOnZEcdTVZlKcjkAqAReCAPUqUh0tULnTE0BQoDqM/+iXOTVMkzv79S4N9iOAAAKpBKqPolWDzJMk6OzAyAH5PNgnd/IPHa508KXDL0FgRnulanYOClQgKZd37rnl796ec/W9m/yv6kcAoCqh4ffUe+69KY6S5RqSIgkEUgm4HASoVUH5QjfrTDX8UwUFql/qZOSA3PmxeZMvcLJVh2jKlzkZxs8QTZtbjbIhgIDvAhJsrm7Vz5Tqa/mcmTR+XPWllt/Vz4BqYtXPBunwM8KrqsJvBLILFHD3Xwopd/+HspfW/jMIAGhsI0YBaMQkqdQCvgUBGlVcRgzIowXypU2+vFW36p2f6mudv6tf4CRNef5SvuDJxhe6CgP/QQABBBBAAAEEjAkUdPe/X1Vor7FKFZwwAQDNDcAoAM2gJJdKIKQgQCoQDkIAAQQQQAABBBBwXmBw377P9q68szvnikjnX4IAXm4lL2tVYKXioWRdgdmTdaAC8SmnRGOmTo2imH/SgV4CVBsBBBBAAAEEEPBKIEmSvkM/3JjnxH/iN6h+vO38SwXpLYiCxm3XxxY9p6aKXKcxSZJCIJUAQYBUTByEAAIIIIAAAggg4IBAcvBgd//WrftyLuqBnPPLPTsCAAbI46FouYFkSRKBpgIEAZoScQACCCCAAAIIIICA5QLy7P+BH3xvTQHFPFRAnrlmSQDAADejAAygkmRqAYIAqak4EAEEEEAAAQQQQMBCgaFXXllTwN1/WfpPDeb2eyMAYKh9GQVgCJZkUwkQBEjFxEEIIIAAAggggAAClgkU9Oy/KLxiGYWR4hAAMMIaRYwCMARLsqkFCAKkpuJABBBAAAEEEEAAAUsECnr2Xyb+G7KEwGgxCAAY5GUUgEFckk4lQBAgFRMHIYAAAggggAACCFggIHf/C3r2P4i7/9LEBAAMXuiMAjCIS9KpBQgCpKbiQAQQQAABBBBAAIECBQq6+y9L/w0UWO1csyYAYJibUQCGgUk+lQBBgFRMHIQAAggggAACCCBQkAB3//OBJwBg2JlRAIaBST61AEGA1FQciAACCCCAAAIIIJCzQEF3/8uqmt4v/Te8KQkADNcw9DejAAzBkmxmAYIAmck4AQEEEEAAAQQQQMCwQIF3/w8Yrpp1yRMAyKFJZBRAlCQrcsiKLBBoKkAQoCkRByCAAAIIIIAAAgjkKDC0f/9t/Vu37ssxS8lK7v4TAMgZPZjsDneUl0dJ1BtMhamo1QIEAaxuHgqHAAIIIIAAAggEI5CUyzt7V97ZXUCFD6s8kwLyLTRLRgDkxN+zZElfEscrcsqObBBoKkAQoCkRByCAAAIIIIAAAggYFhjq673NcBb1kg9m6b/hAAQAhmsY/ru/NLiCUQCGkUk+kwBBgExcHIwAAggggAACCCCgUaBy93/1ygc1Jpk2qYPqwKG0B/t0HAGAHFuTUQA5YpNVagGCAKmpOBABBBBAAAEEEEBAo8DQrheWakwuS1JB3v0XIAIAWS4TDccyCkADIkloFyAIoJ2UBBFAAAEEEEAAAQQaCCSDg5t771v3eINDTL3VrxIO8u6/gBIAMHVZ1UmXUQB1YNhduABBgMKbgAIggAACCCCAAALBCAy9uJtn/wto7biAPMlSCUy9p/tZhT8DDARsE0gGBqLB3bvVnKiyMgobAggggAACCCCAAAJ6BeTu/57/8Q+X6001VWpy939vqiM9PYgRAEU1bBItLypr8kWgkQAjARrp8B4CCCCAAAIIIIBAuwKHtm1Z2m4aLZ4f7LP/VS8CAFWJnH/vvn7RV9SikxtzzpbsEEglQBAgFRMHIYAAAggggAACCGQUKA/0P3Bww4bnM56m43C5+z+gIyGX0yAAUGTrJaXlRWZP3gg0EiAI0EiH9xBAAAEEEEAAAQSyCiRJ0nf4qZ/x7H9WOI3HEwDQiJk1qd3XL/xBlETrs57H8QjkJUAQIC9p8kEAAQQQQAABBPwXSA4e7Obuf7HtTACgWP8oKkdLiy4C+SPQSIAgQCMd3kMAAQQQQAABBBBII5CUyzsP/OB7a9Ica+CY4J/9r5oSAKhKFPR718cWPafmAlhXUPZki0AqAYIAqZg4CAEEEEAAAQQQQKCOwFBf7239W7fuq/O2yd08+z9MlwDAMIyi/uwvDS1VjwL0FpU/+SKQRoAgQBoljkEAAQQQQAABBBAYLSDL/vWuXvng6P05vebu/zBoAgDDMIr6s2fJkr4kjlcUlT/5IpBWgCBAWimOQwABBBBAAAEEEKgKDL24u6iJ/7j7X22EY78JAIwCKerl7uuuuVk9CrCjqPzJF4G0AgQB0kpxHAIIIIAAAggggIAs+9d737rHC5Lg7v8oeAIAo0AKfZmUFhSaP5kjkFKAIEBKKA5DAAEEEEAAAQQCFih42T/u/te49ggA1EApapcsC6hGAWwsKn/yRSCLAEGALFociwACCCCAAAIIhCdQ4LJ/gs3d/xqXHAGAGihF7oqHogVF5k/eCGQRIAiQRYtjEUAAAQQQQACBcAQKXvaPu/91LjUCAHVgitp9dFnAeHlR+ZMvAlkFCAJkFeN4BBBAAAEEEEDAf4ECl/0T3D7/hVurIQGA1tyMntVfGlzBhIBGiUlcswBBAM2gJIcAAggggAACCDgskAwNbStw2T+5+z/kMJ/RohMAMMrbWuKyLGCURMtbO5uzEChGgCBAMe7kigACCCCAAAII2CYwtHvXTQWWibv/DfAJADTAKfKt3dcv+goTAhbZAuTdigBBgFbUOAcBBBBAAAEEEPBHoHzgwG0FLvt3UEly97/B5UQAoAFO0W+V43hp0WUgfwSyChAEyCrG8QgggAACCCCAgB8CBU/8J4jM/N/kUiIA0ASoyLdfuvaan6pRAOuKLAN5I9CKAEGAVtQ4BwEEEEAAAQQQcFtg6OXffbZ/69Z9BdViv8qXu/9N8AkANAEq+u3+0tBSNR9Ab9HlIH8EsgoQBMgqxvEIIIAAAggggIC7Asng4ObetWseKagGZZXvgYLydipbAgCWN5dMCFguRcstLybFQ6CmAEGAmizsRAABBBBAAAEEvBM4tG3L0gIrJXf/1eBptmYCBACaCVnw/ovXLvoiEwJa0BAUoSUBggAtsXESAggggAACCCDgjIBM/Hdww4bnCyrwoMpXJv9jSyFAACAFkg2HxEPRAh4FsKElKEMrAgQBWlHjHAQQQAABBBBAwH4BJv6zv42Gl5AAwHANi//e9bFFzyVxvMLiIlI0BBoKEARoyMObCCCAAAIIIICAkwJDu15YWuDEf/0K7ZCTcAUVmgBAQfCtZLv7umtuVo8C7GjlXM5BwAYBggA2tAJlQAABBBBAAAEE9AiUBwY29N637nE9qbWUCsv+ZWQjAJARrPDDk9KCwstAARBoQ4AgQBt4nIoAAggggAACCFgikCRJ3+Gntn62wOLIc/8DBebvZNYEABxrtt3XL/xBlCQrHCs2xUVghABBgBEcvEAAAQQQQAABBJwTGNq/v8iJ/8SLu/8tXDUEAFpAK/qUwx3l5UwIWHQrkH+7AgQB2hXkfAQQQAABBBBAoBiBZGhoW+/KO7uLyb2Sqyz7N1Rg/s5mTQDAwabrWbKkr1xKFjhYdIqMwAgBggAjOHiBAAIIIIAAAgg4IXD4md/cWGBByyrvAwXm73TWBAAcbb4Xr138LTUh4EZHi0+xETguQBDgOAV/IIAAAggggAAC1guUDxy47cDXH9xeYEHl7r/qCrG1IkAAoBU1S86Jh6IFPApgSWNQjLYECAK0xcfJCCCAAAIIIIBALgIy9H/vXXfclktmtTORZf9k8j+2FgUIALQIZ8Npuz626LlyKVpuQ1koAwLtChAEaFeQ8xFAAAEEEEAAAbMCBQ/9l8ox8V+bTUwAoE3Aok9/8dpFX+RRgKJbgfx1CRAE0CVJOggggAACCCCAgF6B8qGDawoe+s+yfxqalACABsSikyjH8VIeBSi6FchflwBBAF2SpIMAAggggAACCOgRSMrlnQcee7TIof8y8R93/zU0JwEADYhFJ/HStdf8lEcBim4F8tcpQBBApyZpIYAAAggggAAC7QkM7Xphaf/WrfvaS6Wts2XWf5b9a4vw6MkEADQg2pAEjwLY0AqUQacAQQCdmqSFAAIIIIAAAgi0JiBD/3vvW/d4a2drOWtQpcLdfy2UUUQAQBOkDcmwKoANrUAZdAoQBNCpSVoIIIAAAggggEA2AQuG/kuB+7KVmqMbCRAAaKTj2HusCuBYg1HcVAIEAVIxcRACCCCAAAIIIKBd4PBvfr2w4KH/h1WlBrRXLOAECQB41vg8CuBZg1KdigBBAC4EBBBAAAEEEEAgX4HygQO3FTzrv0z8ty/fWvufGwEAD9uYRwE8bFSqFBEE4CJAAAEEEEAAAQTyEUiGhrbtveuOImf9l4oy8Z+B5iYAYAC16CTlUYAkipYWXQ7yR0C3AEEA3aKkhwACCCCAAAIInCxw6GdPLjx5b657mPjPEDcBAEOwRSe7+/pFX4mSaH3R5SB/BHQLEATQLUp6CCCAAAIIIIDACQEZ+n9ww4bnT+wp5C8m/jPETgDAEKwNyR7uGFqgRgLssKEslAEBnQIEAXRqkhYCCCCAAAIIIHBUwJKh/0z8Z/CCJABgELfopHuWLOmLktKCostB/giYECAIYEKVNBFAAAEEEEAgVIEkSfosGPrPxH+GL0ACAIaBi05+9/ULf5BE8fKiy0H+CJgQIAhgQpU0EUAAAQQQQCBEgaHenpssGPrPxH+GL77YcPokb4nAtJVrnozieLYlxaEYCGgVSAYGosHdu6MokaAxGwIIIIAAAggggEAWgfLAwIa9t9+yMMs5Bo7tV2nuNZAuSQ4TYATAMAyv/yzH872uH5ULWoCRAEE3P5VHAAEEEEAAgTYEknJ554FHNyxtIwldp+7TlRDp1BcgAFDfxqt3ZGnAcszSgF41KpUZIUAQYAQHLxBAAAEEEEAAgVQCQ7teWNq/dWvRne/9qrCy9B+bYQECAIaBbUr+xWsXfVGtCrDRpjJRFgR0ChAE0KlJWggggAACCCDgu4As+dd737rHC66ndPzl2X+2HAQIAOSAbFMW/aWh+VES9dpUJsqCgE4BggA6NUkLAQQQQAABBHwVsGTJP+HtUz/qPiVbHgIEAPJQtigPWRqwXEoWWFQkioKAdgGCANpJSRABBBBAAAEEPBKwZMk/ET2sfgY8orW+KgQArG8i/QV88drF34qSZIX+lEkRAXsECALY0xaUBAEEEEAAAQTsEhj63UtLLVjyT5Zv6rVLxv/SEADwv41r1nDX9YtvVEGALTXfZCcCnggQBPCkIakGAggggAACCGgTKB86uKZ37ZpHtCXYekK96lSG/rfu19KZBABaYvPkJFkakPkAPGlMqlFPgCBAPRn2I4AAAggggEBoApUl/x579DYL6i1D//stKEdwRSAAEFyTn6hwZWlA5gM4AcJf3goQBPC2aakYAggggAACCGQQsGTJP4b+Z2gz3YcSANAt6lh6zAfgWINR3JYFCAK0TMeJCCCAAAIIIOCBgCVL/olkr/ph6L9IFLARACgA3bYsD3eUlzMfgG2tQnlMCBAEMKFKmggggAACCCBgu0B5oP+BvXfdwdB/2xsqh/IRAMgB2fYsZGnAoVJpAfMB2N5SlE+HAEEAHYqkgQACCCCAAAKuCCRDQ9sOPPrITRaUl6H/FjQCAQALGsGGIrx07TU/VeNwltpQFsqAgGkBggCmhUkfAQQQQAABBGwQSJKk7/Azv7mxf+vWfRaUp1eVgaH/BTcEAYCCG8Cm7Hdfv+gr6lGAFTaVibIgYEqAIIApWdJFAAEEEEAAAVsEhnp7bjrw9Qe3W1AeZv23oBGkCLEl5aAYFglMW7nmySiOZ1tUJIqCgDGBZGAgGty9W8WjZVQaGwIIIIAAAggg4IdA5bn/22+90YLaDKoyvKx+uPtvQWMwAsCCRrCuCOV4PvMBWNcqFMiQACMBDMGSLAIIIIAAAggUJmDRc/9i0Kd+6PwXdjWMzJgAwEgPXimBXR9b9Fy5lCwAA4FQBAgChNLS1BMBBBBAAAH/BSx77v+AEh/wX92dGhIAcKetci3pi9cu/hbzAeRKTmYFCxAEKLgByB4BBBBAAAEEtAhY9Ny/DP3fr6VSJKJNgACANkr/Etp1/eIb1Vidjf7VjBohUFuAIEBtF/YigAACCCCAgBsC5UMH1/SuXvmgJaVl6L8lDTG8GAQAhmvw90kC/aUh5gM4SYUdPgsQBPC5dakbAggggAAC/grIc/97v3j7TZbUUO78M/TfksYYXgwCAMM1+PskgZ4lS/qGSvG8k95gBwIeCxAE8LhxqRoCCCCAAAIeCshz/4d+9uRCS6p2RJXjFUvKQjFGCRAAGAXCy5MFXrr2mp+W42jpye+wBwF/BQgC+Nu21AwBBBBAAAHfBIZe+N8LD27Y8LwF9ZJ1lXssKAdFqCNAAKAODLtHCrx47aIvqvkA1o3cyysE/BYgCOB3+1I7BBBAAAEEfBAY3Lfvs733rXvckrrsU+UYsqQsFKOGQFxjH7sQqCswbeWaJ6M4nl33AN5AwEOBZGAgGty9W61gK0FtNgQQQAABBBBAwA6B8kD/A3tvv/VGO0oTHVTlkIn/2CwWYASAxY1jY9EOd5TnRUnUa2PZKBMCpgQYCWBKlnQRQAABBBBAoFWByqR/9nT+Zck/ufvPZrkAAQDLG8i24jEpoG0tQnnyEiAIkJc0+SCAAAIIIIBAMwHLJv2T4spz/+qJYTbbBQgA2N5CFpZPJgVMkmiBhUWjSAgYFSAIYJSXxBFAAAEEEEAgpYBFk/5JiWXYv4wAYHNAgACAA41kYxF3X7/oK0wKaGPLUCbTAgQBTAuTPgIIIIAAAgg0ErBs0r/Dqqzy7D+bIwJMAuhIQ9laTCYFtLVlKJdpASYGNC1M+ggggAACCCAwWsCySf9kduSX1A9D/0c3lMWvGQFgceO4UDQmBXShlSijCQFGAphQJU0EEEAAAQQQqCdg2aR/Ukye+6/XWBbvJwBgceO4ULTjkwKyMoALzUUZNQsQBNAMSnIIIIAAAgggUFMgKZd3vvLIdy6v+WYxO/erbAeKyZpc2xEgANCOHudWBCqTAkbRUjgQCFGAIECIrU6dEUAAAQQQyE9AZvw//JtfL+zfunVffrk2zKlfvftKwyN401oBAgDWNo1bBZNJAcsxQQC3Wo3S6hIgCKBLknQQQAABBBBAYLSAzPh/4OsPbh+9v6DX8ty/DP1nc1SAAICjDWdjsV+8dtEXWRnAxpahTHkIEATIQ5k8EEAAAQQQCEtgsGfv0t771j1uUa157t+ixmilKAQAWlHjnLoCu69b9FcqCLCx7gG8gYDHAgQBPG5cqoYAAggggEDOAjLjf+/qlQ/mnG2j7PrUmzz330jIgfcIADjQSK4Vsb80ND9Kki2ulZvyIqBDgCCADkXSQAABBBBAIGwBC2f8P6haRH7YHBcgAOB4A9pYfFkZgOUBbWwZypSXAEGAvKTJBwEEEEAAAf8EpPNv2Yz/R5TyPv+kw6wRAYAw2914rY8vD2g8JzJAwE4BggB2tgulQgABBBBAwGYBmfH/0M+etGnG/+qkf+opXzYfBAgA+NCKltahsjxgEi2wtHgUCwHjAgQBjBOTAQIIIIAAAt4IVJb7+/WvLj+4YcPzFlWqV5VlyKLyUJQ2BQgAtAnI6Y0FWB6wsQ/v+i9AEMD/NqaGCCCAAAII6BAY6u25yaLl/qRKB9RPv466kYY9ArE9RaEkPgtMvaf7y+piW+BzHakbAo0EkoGBaHD37ihKZCQdGwIIIIAAAgggcEKgstyfXTP+S8d/74kS8pcvAowA8KUlLa/HseUB11leTIqHgDEBRgIYoyVhBBBAAAEEnBYoHzq4xrLl/gYVaI/TqBS+rgAjAOrS8IYJgWkr1zwZxfFsE2mTJgIuCDASwIVWoowIIIAAAgjkI1Ae6H9g7+233phPbqlykaGKe9SPBAHYPBRgBICHjWpzlY4uD5hssbmMlA0BkwKMBDCpS9oIIIAAAgi4I5AMDm62rPMveL3qh86/SHi6EQDwtGFtrZYsD3g0CFD5n4utxaRcCBgVIAhglJfEEUAAAQQQsF4gGRra9sq/P7TQsoLuV+Vh0j/LGkV3cQgA6BYlvaYCEgQYKsXzooQgQFMsDvBWgCCAt01LxRBAAAEEEGgokJTLO1955DuX92/duq/hgfm+eVhl90q+WZJbEQIEAIpQJ8/opWuv+SlBAC6E0AUIAoR+BVB/BBBAAIHQBJIk6Tv8m18vtKzzf0S1Q29obRFqfQkAhNryFtRbggDlUrLAgqJQBAQKEyAIUBg9GSOAAAIIIJC7wNDvXlp64OsPbs894/oZyqR/veonqX8I7/gkQADAp9Z0sC4vXrv4W0kSLXCw6BQZAW0CBAG0UZIQAggggAAC1goM9uxd2rt2zSOWFVCW+2PSP8saxWRxCACY1CXtVAK7r1/0FYIAqag4yGMBggAeNy5VQwABBBAIXqDS+V+98kHLIHpVeQYsKxPFMSxAAMAwMMmnE6gEAaJ4ebqjOQoBPwUIAvjZrtQKAQQQQCBsAUs7/wdVqxwKu2XCrD0BgDDb3cpa777umpvVw0frrCwchUIgJwGCADlBkw0CCCCAAAI5CJQPHLit1747/7LUX18O1ScLCwUIAFjYKCEXafd1i/6KIEDIVwB1FwGCAFwHCCCAAAIIuC9QHuh/YO9dd9xmWU1k0j957p8tUAECAIE2vM3VJghgc+tQtrwECALkJU0+CCCAAAII6BeodP5vv/VG/Sm3laJ0/veoH3W/jS1UAQIAoba85fXuLw0tjZJki+XFpHgIGBUgCGCUl8QRQAABBBAwImBp51/quk/9MOO/kVZ3J1ECAO60VVAl7VmypO9wR3keQYCgmp3K1hAgCFADhV0IIIAAAghYKpAMDW078OgjN1lYPHnmn0n/LGyYvItEACBvcfJLLUAQIDUVB3ouQBDA8wameggggAACXghI5/+VR75zef/WrXKn3aZNZvyXHzYEIgIAXARWCxAEsLp5KFyOAgQBcsQmKwQQQAABBDIKWNz5Z8b/jG3p++EEAHxvYQ/qRxDAg0akCloECAJoYSQRBBBAAAEEtApY3Pk/oirKjP9aW9v9xAgAuN+GQdSAIEAQzUwlUwgQBEiBxCEIIIAAAgjkJJAkSd+hnz250MJh/8z4n9M14Fo2BABca7GAy0sQIODGp+ojBAgCjODgBQIIIIAAAoUIJOXyzsO//tXlBzdseL6QAtTPlM5/fZvg34mDFwDAOYFpd3efrWav2BLFUZdzhafACGgUSAYGosHdu9VqvvI5z4YAAggggAACeQlI5/+VDd9+t4V3/oVgj/oZyMuCfNwSYASAW+1FaZXAro8tem6oFKslAqNeQBAIWYCRACG3PnVHAAEEEChKQIb9H/7Nr20c9i8kveqHzr9IsNUUIABQk4Wdtgu8dO01PyUIYHsrUb48BAgC5KFMHggggAACCBwVqHT+1bD/A19/cLuFJvtVmQ5ZWC6KZJEAAQCLGoOiZBMgCJDNi6P9FSAI4G/bUjMEEEAAAXsELO/8H1RSr9ijRUlsFSAAYGvLUK5UAgQBUjFxUAACBAECaGSqiAACCCBQmIDlnX9Z7m9fYThk7JQAAQCnmovC1hIgCFBLhX0hChAECLHVqTMCCCCAgGkBBzr/MulfYtqB9P0QIADgRzsGX4tqEED9n29H8BgABC1AECDo5qfyCCCAAAKaBapL/Vn6zP+gqm6v+qHzr7ndfU6OZQB9bt0A63b6qnvf2lFONrJEYICNT5VHCLBE4AgOXiCAAAIIIJBZwPI7/7IGsNz5lyAAGwKpBRgBkJqKA10QqI4EiJJkiwvlpYwImBJgJIApWdJFAAEEEAhBIBka2nbopz95t6V3/un8h3ARGqojIwAMwZJssQLT7u4+OypFWxgJUGw7kHvxAowEKL4NKAECCCCAgFsClt/5F0y58z/gliqltUWAAIAtLUE5tAscDQIk66M4nq09cRJEwCEBggAONRZFRQABBBAoVEDu/L/yyHcu79+61dZZ9XsV0KFCkcjcaQECAE43H4VvJjB59epJ44ZKak4AggDNrHjfbwGCAH63L7VDAAEEEGhfgM5/+4akYL8AcwDY30aUsA2BniVL+g53lOcxJ0AbiJzqhQBzAnjRjFQCAQQQQMCQgAOd//2q6tz5N9T+ISVLACCk1g60rgQBAm14qn2SAEGAk0jYgQACCCCAQORA5/+gaqZXaCoEdAgQANChSBrWCxAEsL6JKGBOAgQBcoImGwQQQAABJwSSwcHNlj/zL53/PicwKaQTAswB4EQzUUiNAvEZd95zX2ns2I9oTJOkEHBOgDkBnGsyCowAAgggoFnAgTv/h1WVezRXm+QCF2AEQOAXQIDVT178+HV/oZZ3+UGAdafKCBwXYCTAcQr+QAABBBAIUKA80P+A5Xf+j6hm6Q2waaiyYQFGABgGJnlrBRgJYG3TULA8BRgJkKc2eSGAAAII2CAgnf+9t996ow1lqVMG6fzvUT9JnffZjUDLAowAaJmOEx0XqIwEKB858lXH60HxEWhLgJEAbfFxMgIIIICAYwJ0/h1rMIqrXYARANpJSdAxgfiM2+/6u9L48f+XY+WmuAhoFWAkgFZOEkMAAQQQsFBgsGfv0t7VKx+0sGjVInHnvyrBb2MCjAAwRkvCjggkL/73Gz4z+PLLH3ekvBQTASMCjAQwwkqiCCCAAAKWCND5t6QhKEbhAgQACm8CCmCBwNDv/vb/uocggAUtQREKFSAIUCg/mSOAAAIIGBJwoPM/qKrOM/+G2p9kRwrwCMBID16FLTBm0seW/vH4c2d+I47jSWFTUPuQBXgcIOTWp+4IIICAXwIOdP7LSlw6/xIEYEPAuAABAOPEZOCYAEEAxxqM4poRIAhgxpVUEUAAAQTyEVBLPvcd/vWvLj/w9Qe355NjS7nQ+W+JjZPaEeARgHb0ONdHgcG+u1f8x6Gntr8/GRzc5mMFqRMCaQR4HCCNEscggAACCNgokAwNbaPzb2PLUCYbBBgBYEMrUAYbBcZ0/vEfnzP5ig9/Ix4zZpaNBaRMCOQhwEiAPJTJAwEEEEBAl4B0/l955DuX92/duk9XmgbS4c6/AVSSTCfACIB0ThwVnsBg/3/8x7M9X7//zxkJEF7jU+MTAowEOGHBXwgggAACdguUBwY2OND5l6X+XlY/PPNv9+XkbekYAeBt01IxTQJjVDpTzrjjri+Wxo2/UlOaJIOAcwKMBHCuySgwAgggEJRAeaD/gb2333qj5ZWWTn+P+qHzb3lD+Vw8RgD43LrUTYeA/A96z4s33vCxwZdeXKojQdJAwEUBRgK42GqUGQEEEAhDoHzo4BoHOv/c+Q/jcrS+lowAsL6JKKAlAh2qHKe99uYvXDXm9DNWWFImioFA7gKMBMidnAwRQAABBBoIOLDMn5ReOv+y1F8iL9gQKFKAAECR+uTtmoAEASZPWfbpPx77X16/No7jSa5VgPIioEOAIIAORdJAAAEEEGhXgM5/u4KcH6IAAYAQW506tyMg/2amTLruhtnjZ81aG5c6preTGOci4KoAQQBXW45yI4AAAu4LJEnS58AyfwLNnX/3LzfvakAAwLsmpUI5CFSCAJ1z506ZfNVffI1lAnMQJwsrBQgCWNksFAoBBBDwWsCRZf6kDej8e30luls5JgF0t+0oeXEC8vzWnv5Nm/b03H/f5eXDhx4orijkjEBxAkwMWJw9OSOAAAIhCjjU+T+s2odn/kO8SB2oMyMAHGgkimitQGUkgCrd2NP+/tZFY7smf87aklIwBAwKMBLAIC5JI4AAAghUBBxZ5k/KelD99FUKzX8QsFCAAICFjUKRnBOQyQBfpVYI+CArBDjXdhRYkwBBAE2QJIMAAgggcJLA4L59n+1deWf3SW/Yt4POv31tQolGCRAAGAXCSwRaEJB/R5PVT6daIeBCVghoQZBTvBAgCOBFM1IJBBBAwBoBmexv6IX/vbD3vnWPW1Oo+gWh81/fhncsEiAAYFFjUBTnBSojASZe+ZGzXvWHf7SWyQGdb08q0IIAQYAW0DgFAQQQQOAkAYdm+pey96kfCQCwIWC9AAEA65uIAjomUAkCqBUCJk6+4sMr4s7Oix0rP8VFoG0BggBtE5IAAgggELSAQ5P9STv1qp9D8gcbAi4IEABwoZUoo2sCp6oCT5BCMzmga01HeXUJEATQJUk6CCCAQFgCDk32V1Yts0/90PkP6xJ1vrYEAJxvQipgqcB4Va4uKZtMDtjx2tNvjuNYRgewIRCMAEGAYJqaiiKAAAJaBBya7E86/7LM36CWipMIAjkKEADIEZusghM4HgSYdN0NM8fPmrU2LnVMD06BCgctQBAg6Oan8ggggEAqAcee96fzn6pVOchWAQIAtrYM5fJF4BRVkcnqpyTzAnRd+d/WlsaOneNL5agHAmkECAKkUeIYBBBAIEwBed7/0M+eXHhww4bnHRA4osood/4TB8pKERGoKUAAoCYLOxHQKjBGpTZF/ZQk1TNuXXFz6dRTF8vfbAiEIkAQIJSWpp4IIIBAegF53v/Ao4/c1L91qzxLb/tG59/2FqJ8qQQIAKRi4iAE2haQIICMBJDfzAsgCGzBCRAECK7JqTACCCBQU0CG/A/19tzUu3rlgzUPsG+nLPEnQQru/NvXNpQoowABgIxgHI5AGwLy701GAoyVNCrzApw78454zJhZ8poNgRAECAKE0MrUEQEEEKgvUOn8v/C/F/bet+7x+kdZ9Y50/vusKhGFQaANAQIAbeBxKgItCIwIAsi8AJOv+PCKuLPz4hbS4hQEnBQgCOBks1FoBBBAoG2BZHBw8yv//tBCR4b8S333q59X2q44CSBgkQABAIsag6IEJSBLAr6qWuPT//H2ZR0TJy6rvuY3Ar4LEATwvYWpHwIIIDBSoHzgwG1777rjtpF7rX0lM/33qp9+a0tIwRBoUYAAQItwnIaABoFTVRoTqulMWfbpC8f+l9evjeNYggNsCHgvQBDA+yamgggggEBUGfL/u5eW9q5d84gjHCzz50hDUczWBAgAtObGWQjoEhivEuqqJsZSgVUJfociQBAglJamngggEKKAY0v8SRPJTP+96mdQ/bAh4KUAAQAvm5VKOSYgQYCJ6qeyTKCUnUcCRIEtFAGCAKG0NPVEAIGQBMqHDq7Z+8Xbb3KozjLcv0f9JA6VmaIikFmAAEBmMk5AwIjAiGUCJQceCTDiTKKWChAEsLRhKBYCCCCQUcDBJf6khsz0n7GdOdxdAQIA7rYdJfdPQP49Hl8mUKrHUoH+NTI1qi9AEKC+De8ggAACLgjIkP/Dz/zmxgNff3C7C+U9VkZm+neosShq+wIEANo3JAUEdArIv8ku9TOummhlXoDLr7q5NG78ldV9/EbAVwGCAL62LPVCAAHfBRwc8s9M/75flNSvpgABgJos7ESgcAFZCeD4MoFSmil/u/w9Y6f9HytYJaDwtqEAhgUIAhgGJnkEEEBAo4CDs/xL7ZnpX+M1QFJuCRAAcKu9KG1YAiNWCJCqs0pAWBdAyLUlCBBy61N3BBBwRSAZHNz8yr8/tLB/69Z9rpRZlVNm+pfJ/oYcKjNFRUCbAAEAbZQkhIARAZkcUOYFOL5CgORy2t/fumhs1+TPyd9sCPgqQBDA15alXggg4IPA4L59n+1deWe3Y3WRyf4kWMFM/441HMXVJ0AAQJ8lKSFgSkCCAF3qZ+zwDCoTBM6atTYudUwfvp+/EfBJgCCAT61JXRBAwAeBpFzeefg3v17o2ER/Qs9kfz5cgNShbQECAG0TkgACuQjIv9WJ6mfEvADySMDkKz68Iu7svDiXUpAJAgUIEAQoAJ0sEUAAgRoC5YH+Bw48+shNjg35l+f9Zcj/QI0qsQuB4AQIAATX5FTYcQEJArx6dB3kkYAxk7qWMUHgaBle+yJAEMCXlqQeCCDgokBlor/enpt6V6980LHyD6rySudffrMhgIASIADAZYCAewKdqshd6mfEvABMEOheQ1LibAIEAbJ5cTQCCCCgQ6A8MLDh8FNbP3tww4bndaSXYxqHVV696ofn/XNEJyv7BQgA2N9GlBCBWgIdaudr1I/MDzBiO/0fb1/WMXHishE7eYGAJwIEATxpSKqBAALWCzh8119sed7f+iuMAhYlQACgKHnyRaB9Afn3O1n9yIiAEVtlgsBzZ94Rjxkza8QbvEDAAwGCAB40IlVAAAGrBZKhoW2Hn/nNjQ5O9CfP+8ss/4esBqZwCBQoQACgQHyyRkCTwKkqnQm10jrj1hU3l049dXGt99iHgMsCBAFcbj3KjgACtgpU7vrv33+bg8v7CekR9dOrfnjeXyGwIVBPgABAPRn2I+CWQM15AaQKU5Z9+sKxM86+mdEAbjUopW0uQBCguRFHIIAAAmkFHL7rL1Xkef+0Dc1xwQsQAAj+EgDAIwGZD6BL/YwdXafKBIHzr1jGaIDRMrx2XYAggOstSPkRQMAGgcF9+z7r6F1/4eN5fxsuIsrgjAABAGeaioIikEpA/k3LUoGvqnV0ZTTA62esiEsd02u9zz4EXBQgCOBiq1FmBBCwQcDxu/7yvL8s8TdggyVlQMAVAQIArrQU5UQgm8B4dbgEAkYsFShJMBpAFNh8EyAI4FuLUh8EEDAt4Phd/37lI51/lvgzfaGQvncCBAC8a1IqhMBxAXkkYLL6OWmpQDmClQJEgc0nAYIAPrUmdUEAAVMCyeDg5sPPPnOTgzP8V0kOqD9kpn82BBBoQYAAQAtonIKAQwLyb7xL/YyrVWYZDTDpfR9Y3DFx4rJa77MPAdcECAK41mKUFwEE8hJwfIZ/YZIh/73qR+7+syGAQIsCBABahOM0BBwTkMcBXl2vzJXRALNmrWVugHpC7HdJgCCAS61FWRFAIA+B8sDAhsNP/f/bu7vQOK87j+OaF2kkWR47keV9wXaWLRQ2zkXpC0Rqdy8KTUQoS2B35ULvSnyxFwsBXeUiaRwIS1nUXhQKRcUEchVB7ieQkhaCdbfsulEWsuAl2HXcdTcZv8xIGmlm9vzGPfZY0bzqeTnnPN8HnsxoXp7nnM9fyHn+zzn/c/W1eqVyI4nzxXAOLe2nIf8s8RcDLofMlgAJgGzFm95mW6DnUoGW5fRPfrrKaACrwaPPAiQBfI4ebUcAgagEArjrLwqW+IvqF4LjIGAESADwa4BAtgQKprtPmP1LSwVahvKFH56Z/c7fXs4Vi8/Y13hEwEcBkgA+Ro02I4BAVAK66197v/Ly7tWrPs+Xv2M86lGZcBwEECABwO8AAlkV0DKBJ/p1/tS//ttLxRMnV3O5XN/P9TsG7yGQtgBJgLQjwPkRQCBpgXardb35x9uvVS+vv5f0uSM83545lob8NyM8JodCAAEjwAgAfg0QyK5A31UCxNIZDbC49EauVFrOLhM9912AJIDvEaT9CCAwrEBru75e++D9Nc/v+lPlf9iA8zkExhAgATAGGl9BICAB/Q04afZDVwmw/ZxffWVx8it/fZnRAFaER98ESAL4FjHaiwACowi0m82Pmrc++3H17bc2R/meY5+lyr9jAaE5YQqQAAgzrvQKgVEFBk4J0JKBJ1/8p9X83NzFUQ/O5xFwQYAkgAtRoA0IIBClQCBF/kTCkP8ofzE4FgJ9BEgA9MHhLQQyJjBwSoA8OksGPn3+ZxQJzNhvRyDdJQkQSCDpBgIITLT3969sf/QfL3u8tJ+NIkP+rQSPCCQgQAIgAWROgYBHAvqbcNzsxwa1mSKBg4R431UBkgCuRoZ2IYDAMAKBFPlTV/fNfsfsDf3AhgACyQiQAEjGmbMg4JvAlGnwE2bP92t4Z1rAP/7gUn565kK/z/EeAq4JkARwLSK0BwEEhhFo1Wprtd/+et3zIn/qqpb20/KEbf3AhgACyQmQAEjOmjMh4JuA/j4oCVAa1HAVCSw+dW41Pzm5NOizvI+AKwIkAVyJBO1AAIFBAq1Go7Lz8dXXAhjur0J/uvDfHtRn3kcAgXgESADE48pREQhJYM50RlMC+o4GUIcXLr25Ulg4fYnVAqTB5oMASQAfokQbEciuQKfI383f/8jz6v42gLvmiS7+NfSfDQEEUhIgAZASPKdFwDMBFQg8afbJQe1mtYBBQrzvmgBJANciQnsQQEACre36eu2D99cCGO6v7twz+309YUMAgXQFSACk68/ZEfBJQH8vNBJARQIHblotYPpvnr7EtICBVHzAAQGSAA4EgSYggEBHIKDq/uqPlvfTXX8K/UmDDQEHBEgAOBAEmoCAZwJDLRdo+6T6AJN/9dQllg20Ijy6KkASwNXI0C4EsiGgC/+d/7n249q7G1uB9Jjl/QIJJN0IS4AEQFjxpDcIJCWgvx1DLRdoG8SygVaCR5cFSAK4HB3ahkCYAp1l/e5U16q//MVGID1keb9AAkk3whQgARBmXOkVAkkJaLnAE2bXqICBm102MFeaXqZQ4EAuPpCSAEmAlOA5LQIZFAhoWT8bPd3113x/lvezIjwi4JgACQDHAkJzEPBQYOTRAOULPzwzu7j0Rq5UWvawvzQ5AwIkATIQZLqIQIoCAS3rZxW5628leETAcQESAI4HiOYh4JGARgM8YfaBywXaPqk+QPGpc6sUCrQiPLokQBLApWjQFgTCENA8/+Yfbq0FsqyfDUrdPFGhP+76WxEeEXBYgASAw8GhaQh4KDDyaAD1cf7V15+f/PO/eCOXL5z1sM80OWABkgABB5euIZCgQGee/2c3Xw7swp+7/gn+DnEqBKISIAEQlSTHQQCBboGRVgqwX1y49OZK4dSpVRIBVoRHFwRIArgQBdqAgJ8CARb4s4Ggwr+V4BEBzwRIAHgWMJqLgEcCY40GUKHAE3//Dxfzx4+/RKFAj6IdeFNJAgQeYLqHQMQC7Xb7Trte/9XnP//ZWsSHTvtw3PVPOwKcH4EjCpAAOCIgX0cAgYECGg1QNntp4Ce7PqBEQPm5F5YLC6cvkQjoguFpagIkAVKj58QIeCNgL/xrv/31+u7Vq5oXH8rWMh3RXf/7oXSIfiCQVQESAFmNPP1GIHmBWXNKLRk40saIgJG4+HDMAiQBYgbm8Ah4KtC58N/Z3qh98P5aYBf+isie2b8we1M/sCGAgN8CJAD8jh+tR8A3gYJpsJIAI40GUCe1dODMN791MXfs2AojAiTClpYASYC05DkvAm4KtBq77+x8/Lu1eqVyw80Wjt0q3fW/Z3ZV+WdDAIFABEgABBJIuoGAZwIzpr2aFjD0koG2f4wIsBI8pilAEiBNfc6NgBsCrVptLcCh/hZ3xzzRFAbu+lsRHhEIRIAEQCCBpBsIeCigvz/HzX5snLZrRMD0179xgWKB4+jxnSgESAJEocgxEPBLwM7x3/nv/3onwDv+CgZF/vz6laS1CIwsQAJgZDK+gAACEQuoSOBJs0+Oc1xGBIyjxneiEiAJEJUkx0HAbYEMXPgrABruT5E/t38VaR0CRxYgAXBkQg6AAAIRCahIoEYEjDwtwJ7/9E9+usqIAKvBY1ICJAGSkuY8CCQvoAv/5r17a9sf/mYjwOJ+FnTXPLljdob7WxEeEQhYgARAwMGlawh4KKC/SaoNoGTAWJtGBBz//osrxXL5Yi5fODvWQfgSAiMKkAQYEYyPI+C4QLvVut68U13b3vywEvCFv4b7a56/EgBsCCCQEQESABkJNN1EwDOBKdNeJQLGmhZg+7pw6c2VwqlTqyQCrAiPcQqQBIhTl2MjkIxA58L/s5svV99+azOZM6Z2Fg33r5m9nVoLODECCKQiQAIgFXZOigACQwpoJICKBKpOwNjb/Oori8Wnzq3mJyeXxj4IX0RgCAGSAEMg8REEHBRoNRqV1u3/Xc/AhT/V/R38/aNJCCQpQAIgSW3OhQAC4wjo75SSAKoPcKStkwg485cr+emZC0c6EF9GoI8ASYA+OLyFgEMCncJ+e43Kzse/Wwu0on+39p75QcP9G90v8hwBBLInQAIgezGnxwj4KlAwDT9h9tJRO6AlBGeefXY1V5pezuVyOiYbApEKkASIlJODIRCpQGeY//3764EX9rNmLfNEw/3r9gUeEUAg2wIkALIdf3qPgI8CSgBoNMCR6gOo4ywhKAW2uARIAsQly3ERGE8gYxf+QtIcf138M89fGmwIINARIAHALwICCPgqoPoASgSMvWyg7bgSAXPf/d5iceHPLlInwKrwGIUASYAoFDkGAkcTaO/vX2l+/n/r1cvr7x3tSN58m2X9vAkVDUUgeQESAMmbc0YEEIhOQH/DVB9A+5ETAWrWiX/+l/PTX/3qS9QJkAZbFAIkAaJQ5BgIjCZg7/Y3rn1SycD8foujC//7ZmeevxXhEQEEviRAAuBLJLyAAAIeCqg+wJzZNSogkk11Aqa//o0L+bljKywjGAlppg9CEiDT4afzCQpk8G6/dPfNrgv/bf3AhgACCPQTIAHQT4f3EEDAN4HICgV2d3zh0psr+SeeXGF6QLcKz0cVIAkwqhifR2A4gYxV8+9GocBftwbPEUBgKAESAEMx8SEEEPBMYMq0VyMCjrxiQHe/O6sHfPNbF3PHzKgAVg/opuH5kAIkAYaE4mMIDCHQudtfr1cyUs2/W0QX/irwp50Cf90yPEcAgYECJAAGEvEBBBDwWEAJgLLZi1H2QUUDy8+9sMyogChVs3MskgDZiTU9jV7A3u3f/fTTX9Xe3diK/gzOH1HL+d01Oxf+zoeKBiLgpgAJADfjQqsQQCBaASUCVCgw0hEBaqItGpgrTS8zKkAibMMIkAQYRonPIPBIoHO3/97djeovf7Hx6NXMPLN3/LdNj5uZ6TUdRQCBWARIAMTCykERQMBRgRnTLk0NiHREgO3r/KuvPz85v3AhVyot29d4RKCXAEmAXjK8jsADgYxW8j8Yft3xV4E/LvwPyvAzAgiMJUACYCw2voQAAp4LxJoI0BSB499/caU4d3wlVyw+47kVzY9RgCRAjLgc2ksBO8S/dfv2RvXttza97EQ0jebCPxpHjoIAAgcESAAcAOFHBBDIjID+/mlagPZ8XL1+WDhwdmaZ5QTjUvb7uCQB/I4frY9GoNVoVFq1+5XtzQ8ru1evao57Vrdd03Hd8W9kFYB+I4BAvAIkAOL15egIIOCHQKwjAiyBpggUn5xfpl6AFeHRCpAEsBI8Zkmg3Wx+1KzVNhrXPqnUK5UbWer7IX3VHX9V9d8/5D1eQgABBCITIAEQGSUHQgCBAAQSSQSwikAAvykxdIEkQAyoHNI5Ac3rb+/uVHZv3NjIaBX/gzFhqP9BEX5GAIFYBUgAxMrLwRFAwFMBJQI0NWAy7vZrisDU1762XCyXLzJFIG5t949PEsD9GNHC0QUezuuvVivVy+vvjX6EIL/BhX+QYaVTCLgvQALA/RjRQgQQSE8gkREBtntaUnDy3LlFkgFWJJuPJAGyGfcQe92Z11/94h0u+h+Lri78tZwfc/wfY+EHBBBISoAEQFLSnAcBBHwWSDQRICiNDCg9/fRS4cn5l1hJwOdfnfHaThJgPDe+lb4Axfx6xoA7/j1peAMBBJIUIAGQpDbnQgAB3wWmTAeUDJhNsiMPRwawrGCS7KmfiyRA6iGgAUMKcNHfE6pl3lFhP93xb/b8FG8ggAACCQqQAEgQm1MhgEAwAgXTkzmzJ5oIkN7DkQEnTprVBErLeo0tXAGSAOHG1vee2Qr+2x/+ZiPjy/YdFkpV8tdSfrrwZ0MAAQScEiAB4FQ4aAwCCHgmoESAigVqVEA+6bZrNYG5735vcXJ+4cLE1NRiLpc7kXQbOF/8AiQB4jfmDMMJ2Dv9jU+vXWHZvkPNuPA/lIUXEUDAJQESAC5Fg7YggICvAvpbqkSA9sQTARZtfvWVxcLphaX83LEVVhSwKmE8kgQII46+9cIu2df6/PPK9n/++xZ3+ntGcNe8o7v93PHvScQbCCDgigAJAFciQTsQQCAUgZLpiBIBekxte1g3YGZ2idEBqYUh0hOTBIiUk4P1ENDQ/nZjd3P3xo2N2rsbWz0+xssPBCjsx28CAgh4J0ACwLuQ0WAEEPBEQAUDVScg1USArDRVoPzcC8v5cnkxNzW1xOgAqfi5kQTwM24ut7rdbt+ZaDa3mvV6pXHtkwpD+wdGS4X9dKdfxf0o7DeQiw8ggIBrAiQAXIsI7UEAgdAEnJge0I3aXUiQ0QHdMn48JwngR5xcbqUu+tt7jUqrWq1UL6+/53JbHWob8/sdCgZNQQCB8QVIAIxvxzcRQACBUQT093ba7CoYmPqogO6GM12gW8OP5yQB/IiTK618cMG/t9na2bnCXf6Ro6Jh/jtm1zx/NgQQQMB7ARIA3oeQDiCAgIcCmh6gRIASAqkVDezlZosJ5mZmFvOTk0u9Psfr6QqQBEjX3/Wzq2L/xN7e1u7N31eYyz9ytHS3Xxf8DPMfmY4vIICA6wIkAFyPEO1DAIGQBfQ3WIkAFQ0sutpRmxDIl0rnmTLgVpRIArgVj7RaY+fxt3d3N1vVL65QsX/sSNiLfj2yIYAAAkEKkAAIMqx0CgEEPBRQAmDW7EoGOL09NmWgUDiTKxafcbrBgTeOJEDgAT6ke+39/StmDv+WGdK/1fj02hUK9x2CNPxLKup3z+y66Keo3/BufBIBBDwVIAHgaeBoNgIIBCugv8uaGqBEwKQPvbRFBXPTM2eZNpBOxEgCpOOexFk7y/I1983F/u7W3h9ubTKcPxJ1XfRrXj9z+yPh5CAIIOCTAAkAn6JFWxFAIGsCBdNhJQI0TcC5WgH9gqFpA/ny3FktPThRKJ6llkA/rWjeIwkQjWOaR7HF+jR3n6H8sUTCVvLXhX87ljNwUAQQQMBxARIAjgeI5iGAAAJ/EtDKAZoioNEB3m2lb3+7PPfs353PnXryfHFmdmmCqQOxxJAkQCyssR20M5Rf8/Zr9z9q3Ly+xVD+WKhtQT9V89dzNgQQQCDTAiQAMh1+Oo8AAh4K2CkCGhXg1HKCo1p2JwUKxcmzE6bIYK6QP5vLF86Oeiw+/0iAJMAjC1ee6UJfbbFF+vbq9bsM5Y81OnaI/7Y5SyPWM3FwBBBAwDMBEgCeBYzmIoAAAl0C3k4R6OrDoU/nX339+cJc+Znc1OQZphAcStT3RZIAfXlie7Pdal2fMHu71bzeqla1DN9dKvLHxn3YgffMi7ag32Hv8xoCCCCQeQESAJn/FQAAAQQCEdBoAE0P0O5VvYBh/btHDOTzhRP52dnnWYGgtx5JgN42UbzTajR0gb/VajbvTNy7u9W4fes6Q/ijkB35GBrWXzM7VfxHpuMLCCCQRQESAFmMOn1GAIGQBewUAa0g4F3xwHECo2UJi7Nz5cLphSU7YkDHofCgGXLeaEzs37plnmhENNuoAqrAP9Fu3+0suXfv3hXd0a++/dbmqMfh85EL6E7/zp925vVHzssBEUAgZAESACFHl74hgAACD+oEBD0yoF+QtUTh5JlzZ1V8MKt1BkgC9P4NUdX9iWZzywzdv9u5m9/YvT5Rr1/nbn5vsxTf0UW/Cvlxpz/FIHBqBBDwX4AEgP8xpAcIIIDAsAKaJuDtSgLDdnLYz9kpBVquMDc90yk8mDeFCNv5fFnHCGkEQZaTAA/v4ptq+4qrltejCJ8kvNhsBX8N8W960WIaiQACCDguQALA8QDRPAQQQCAGAf3tnzJ7ZkcGDGtqRxDo8xpFoNoDneczM4um/sD5XC7X+XnY46X5udCSALbgnkxVdG9ib/+GltOj8F6av2WRnNve6Vf1fob3R0LKQRBAAIFHAiQAHlnwDAEEEMiqgEYG2L2YVYSj9Ht+9ZVF+33VIrDP9ZgzyQL7c9qjClxPAtjl8uSlJfP0aIvs6Tl37qUQ5Kb5/Braz/D+IMNLpxBAwCUBEgAuRYO2IIAAAukLKAGgaQIaIaBCgmwxCNjpB92H7p6K0P26fZ7T1AQzReHhz7lceZxVEKJIAthh9bYtelShvIlW+273a4c91xB8+zpz7a1E5h5VlVJ3+G0hv3bmBOgwAgggkJIACYCU4DktAggg4IFAwbTRjgxQQiDI5QU9iANNRCAEAQ3t10W/vdMfQp/oAwIIIOCdAAkA70JGgxFAAIHUBGzdAEYHpBYCToyANwL2Lr8u+LfNzl1+b0JHQxFAIGQBEgAhR5e+IYAAAvEJ6N+PGbNrhACjA+Jz5sgI+CRg7/JraL/u9rMhgAACCDgmQALAsYDQHAQQQMBTAdUOsKsKUDvA0yDSbARGFLB3+evme7rg5y7/iIB8HAEEEEhagARA0uKcDwEEEAhfQP+2aFSAHR1AQiD8mNPDbAjYC34N69cFP8v0ZSPu9BIBBAISIAEQUDDpCgIIIOCogE0IzJr2MV3A0SDRLAR6CGhYv63WzwV/DyReRgABBHwRIAHgS6RoJwIIIBCOgKYLdI8QYHWBcGJLT/wXsPP47V1+hvX7H1N6gAACCDwUIAHwkIInCCCAAAIpCSghYJccVGKAKQMpBYLTZk6ge0i/7u7r4p8L/sz9GtBhBBDIkgAJgCxFm74igAACfgjo3yYlAZQMsCMF/Gg5rUTAbYHuC37m8LsdK1qHAAIIxCJAAiAWVg6KAAIIIBCxgBIBGiVgkwIaNcCGAAL9BbqH8zfNR5nD39+LdxFAAIHgBUgABB9iOogAAggEKaBkgE0I2NEC1BIIMtR0akgBXdzrrr52XewznN8gsCGAAAIIPC5AAuBxD35CAAEEEPBXQP+maYSAEgI2QaDnJAYMAlswArrQt3fz7ZB+XfSzIYAAAgggMFCABMBAIj6AAAIIIOC5gJIC+veuZHZbcJApBJ4HNSPN1118XeRrGT574a+LfzYEEEAAAQTGEiABMBYbX0IAAQQQCEBASYBps2uEAImBAALqcRe05J6q7+uCXxf4dhi/ecqGAAIIIIBAdAIkAKKz5EgIIIAAAmEIKBmgpIAtOKjnmkrAhsBRBHQn/+AFPvP0jyLKdxFAAAEERhYgATAyGV9AAAEEEMiogK0r0J0gEAUJgoz+Qhzotr3A18u6i6/dXuAzR18qbAgggAACqQuQAEg9BDQAAQQQQCAQARIEgQSyRze4wO8Bw8sIIIAAAv4IkADwJ1a0FAEEEEDAbwGbIFAvGEXgViz7XdyrpdzBdytetAYBBBBAYEwBEgBjwvE1BBBAAAEEEhBQHQJt+vfa1iHQo/33WysbsD0u0H0xr8r5+lmbvYi3w/MfvMp/EUAAAQQQyJCA/R+IDHWZriKAAAIIIBCcQHeCoLtzNoHQ/Vp3AsG+7kIdA1XCP7gddrGuC3pd2B/c7AX+wdf5GQEEEEAAAQQQQAABBBBAAAEEEEAAAQQQQAABBBBAAAEEEEAAAQQQQAABBBBAAAEEEEAAAQQQQAABBBBAAAEEEEAAAQQQQAABBBBAAAEEEEAAAQQQQAABBBBAAAEEEEAAAQQQQAABBBBAAAEEEEAAAQQQQAABBBBAAAEEEEAAAQQQQAABBBBAAAEEEEAAAQQQQAABBBBAAAEEEEAAAQQQQAABBBBAAAEEEEAAAQQQQAABBBBAAAEEEEAAAQQQQAABBBBAAAEEEEAAAQQQQAABBBBAAAEEEEAAAQQQQAABBBBAAAEEEEAAAQQQQAABBBBAAAEEEEAAAQQQQAABBBBAAAEEEEAAAQQQQAABBBBAAAEEEEAAAQQQQAABBBBAAAEEEEAAAQQQQAABBBBAAAEEEEAAAQQQQAABBBBAAAEEEEAAAQQQQAABBBBAAAEEEEAAAQQQQAABBBBAAAEEEEAAAQQQQAABBBBAAAEEEEAAAQQQQAABBBBAAAEEEEAAAQQQQAABBBBAAAEEEEAAAQQQQAABBBBwXuD/ARf9OErSpTlDAAAAAElFTkSuQmCC;" parent="1" vertex="1">
                    <mxGeometry x="526.5" y="409" width="15" height="15" as="geometry"/>
                </mxCell>
                <mxCell id="zUnTaJyi1g9B3rZYQBrX-38" value="" style="html=1;verticalLabelPosition=bottom;align=center;labelBackgroundColor=#ffffff;verticalAlign=top;strokeWidth=2;strokeColor=#FF3333;shadow=0;dashed=0;shape=mxgraph.ios7.icons.flash;fontFamily=Helvetica;fontSize=12;" parent="1" vertex="1">
                    <mxGeometry x="554" y="460" width="4" height="8" as="geometry"/>
                </mxCell>
                <mxCell id="zUnTaJyi1g9B3rZYQBrX-39" value="" style="html=1;verticalLabelPosition=bottom;align=center;labelBackgroundColor=#ffffff;verticalAlign=top;strokeWidth=1;strokeColor=#FFFF33;shadow=0;dashed=0;shape=mxgraph.ios7.icons.loud;fontFamily=Helvetica;fontSize=12;" parent="1" vertex="1">
                    <mxGeometry x="509" y="326" width="20" height="20" as="geometry"/>
                </mxCell>
                <mxCell id="zUnTaJyi1g9B3rZYQBrX-40" value="" style="html=1;verticalLabelPosition=bottom;align=center;labelBackgroundColor=#ffffff;verticalAlign=top;strokeWidth=1;strokeColor=#FFFF33;shadow=0;dashed=0;shape=mxgraph.ios7.icons.wifi;pointerEvents=1;fontFamily=Helvetica;fontSize=12;rotation=-90;" parent="1" vertex="1">
                    <mxGeometry x="479.29999999999995" y="325.5" width="29.7" height="21" as="geometry"/>
                </mxCell>
                <mxCell id="zUnTaJyi1g9B3rZYQBrX-41" value="" style="html=1;verticalLabelPosition=bottom;align=center;labelBackgroundColor=#ffffff;verticalAlign=top;strokeWidth=1;strokeColor=#0080F0;shadow=0;dashed=0;shape=mxgraph.ios7.icons.message;fontFamily=Helvetica;fontSize=12;flipH=1;fillColor=none;" parent="1" vertex="1">
                    <mxGeometry x="543" y="342" width="31" height="20" as="geometry"/>
                </mxCell>
                <mxCell id="zUnTaJyi1g9B3rZYQBrX-42" value="" style="endArrow=classic;html=1;rounded=0;strokeColor=#FFFFFF;strokeWidth=1;" parent="1" edge="1">
                    <mxGeometry width="50" height="50" relative="1" as="geometry">
                        <mxPoint x="364" y="479" as="sourcePoint"/>
                        <mxPoint x="374.99999999999955" y="529" as="targetPoint"/>
                    </mxGeometry>
                </mxCell>
                <mxCell id="zUnTaJyi1g9B3rZYQBrX-43" value="" style="endArrow=classic;html=1;rounded=0;strokeColor=#FFFFFF;strokeWidth=1;entryX=0.9;entryY=0.35;entryDx=0;entryDy=0;entryPerimeter=0;" parent="1" target="zUnTaJyi1g9B3rZYQBrX-39" edge="1">
                    <mxGeometry width="50" height="50" relative="1" as="geometry">
                        <mxPoint x="563" y="305" as="sourcePoint"/>
                        <mxPoint x="530" y="330" as="targetPoint"/>
                    </mxGeometry>
                </mxCell>
                <mxCell id="zUnTaJyi1g9B3rZYQBrX-44" value="" style="endArrow=classic;html=1;rounded=0;strokeColor=#FFFFFF;strokeWidth=1;entryX=0.356;entryY=0.597;entryDx=0;entryDy=0;entryPerimeter=0;" parent="1" target="zUnTaJyi1g9B3rZYQBrX-2" edge="1">
                    <mxGeometry width="50" height="50" relative="1" as="geometry">
                        <mxPoint x="463" y="298" as="sourcePoint"/>
                        <mxPoint x="476.00000000000006" y="296.9999999999999" as="targetPoint"/>
                    </mxGeometry>
                </mxCell>
                <mxCell id="zUnTaJyi1g9B3rZYQBrX-45" value="" style="endArrow=classic;html=1;rounded=0;strokeColor=#FFFFFF;strokeWidth=1;" parent="1" edge="1">
                    <mxGeometry width="50" height="50" relative="1" as="geometry">
                        <mxPoint x="609" y="352" as="sourcePoint"/>
                        <mxPoint x="559" y="373" as="targetPoint"/>
                    </mxGeometry>
                </mxCell>
                <mxCell id="zUnTaJyi1g9B3rZYQBrX-46" value="" style="endArrow=classic;html=1;rounded=0;strokeColor=#FFFFFF;strokeWidth=1;entryX=0.167;entryY=0.2;entryDx=0;entryDy=0;entryPerimeter=0;" parent="1" edge="1">
                    <mxGeometry width="50" height="50" relative="1" as="geometry">
                        <mxPoint x="471.00000000000045" y="389" as="sourcePoint"/>
                        <mxPoint x="528.0050000000001" y="412" as="targetPoint"/>
                    </mxGeometry>
                </mxCell>
                <mxCell id="zUnTaJyi1g9B3rZYQBrX-47" value="" style="endArrow=classic;html=1;rounded=0;strokeColor=#FFFFFF;strokeWidth=1;" parent="1" edge="1">
                    <mxGeometry width="50" height="50" relative="1" as="geometry">
                        <mxPoint x="596.0000000000005" y="432" as="sourcePoint"/>
                        <mxPoint x="564" y="461" as="targetPoint"/>
                    </mxGeometry>
                </mxCell>
                <mxCell id="zUnTaJyi1g9B3rZYQBrX-48" value="HRS04 Ultrasonic&lt;br style=&quot;font-size: 12px;&quot;&gt;Distance Sensor" style="text;html=1;align=center;verticalAlign=middle;resizable=0;points=[];autosize=1;strokeColor=none;fillColor=none;fontSize=12;fontFamily=Helvetica;" parent="1" vertex="1">
                    <mxGeometry x="314" y="438" width="114" height="42" as="geometry"/>
                </mxCell>
                <mxCell id="zUnTaJyi1g9B3rZYQBrX-49" value="Buzzer" style="text;html=1;align=center;verticalAlign=middle;resizable=0;points=[];autosize=1;strokeColor=none;fillColor=none;fontSize=12;fontFamily=Helvetica;" parent="1" vertex="1">
                    <mxGeometry x="537" y="279" width="56" height="27" as="geometry"/>
                </mxCell>
                <mxCell id="zUnTaJyi1g9B3rZYQBrX-50" value="LED Bulb" style="text;html=1;align=center;verticalAlign=middle;resizable=0;points=[];autosize=1;strokeColor=none;fillColor=none;fontSize=12;fontFamily=Helvetica;" parent="1" vertex="1">
                    <mxGeometry x="430" y="275" width="70" height="27" as="geometry"/>
                </mxCell>
                <mxCell id="zUnTaJyi1g9B3rZYQBrX-51" value="16x1 LCD" style="text;html=1;align=center;verticalAlign=middle;resizable=0;points=[];autosize=1;strokeColor=none;fillColor=none;fontSize=12;fontFamily=Helvetica;" parent="1" vertex="1">
                    <mxGeometry x="586" y="327" width="72" height="27" as="geometry"/>
                </mxCell>
                <mxCell id="zUnTaJyi1g9B3rZYQBrX-52" value="Arduino&lt;br&gt;UNO" style="text;html=1;align=center;verticalAlign=middle;resizable=0;points=[];autosize=1;strokeColor=none;fillColor=none;fontSize=12;fontFamily=Helvetica;" parent="1" vertex="1">
                    <mxGeometry x="419.3" y="363" width="60" height="42" as="geometry"/>
                </mxCell>
                <mxCell id="zUnTaJyi1g9B3rZYQBrX-53" value="9V Power&lt;br style=&quot;font-size: 12px;&quot;&gt;Supply" style="text;html=1;align=center;verticalAlign=middle;resizable=0;points=[];autosize=1;strokeColor=none;fillColor=none;fontSize=12;fontFamily=Helvetica;" parent="1" vertex="1">
                    <mxGeometry x="566" y="391" width="71" height="42" as="geometry"/>
                </mxCell>
                <mxCell id="zUnTaJyi1g9B3rZYQBrX-54" value="" style="endArrow=classic;html=1;rounded=0;strokeColor=#FFFFFF;strokeWidth=1;" parent="1" edge="1">
                    <mxGeometry width="50" height="50" relative="1" as="geometry">
                        <mxPoint x="286.00000000000045" y="543" as="sourcePoint"/>
                        <mxPoint x="299" y="595" as="targetPoint"/>
                    </mxGeometry>
                </mxCell>
                <mxCell id="zUnTaJyi1g9B3rZYQBrX-55" value="Water Level&lt;br style=&quot;font-size: 12px;&quot;&gt;Tolerance" style="text;html=1;align=center;verticalAlign=middle;resizable=0;points=[];autosize=1;strokeColor=none;fillColor=none;fontSize=12;fontFamily=Helvetica;" parent="1" vertex="1">
                    <mxGeometry x="244" y="504" width="83" height="42" as="geometry"/>
                </mxCell>
            </root>
        </mxGraphModel>
    </diagram>
</mxfile>